<svg width="205" height="32" viewBox="0 0 205 32" fill="none" xmlns="http://www.w3.org/2000/svg">
<path d="M160.164 0.0568037C159.66 0.0803086 159.332 0.315358 159.332 0.816796V23.2464C159.332 23.6361 159.609 23.9887 160.036 23.9887H199.699C200.055 23.9887 200.342 23.9574 200.509 23.4814C200.509 23.4814 204.529 10.7829 204.599 10.5557C204.748 10.0738 204.653 9.83093 204.246 9.57042C191.325 1.21442 172.01 0 163.24 0C161.981 0 160.941 0.0235051 160.166 0.0568037H160.164Z" fill="url(#paint0_linear_184_21013)"/>
<path d="M168.366 14.3929C166.911 13.6819 165.919 13.3116 166.158 12.5967C166.439 11.7505 167.904 11.4313 169.231 11.4626C169.902 11.4802 170.378 11.5664 170.923 11.6918L171.404 10.162C170.713 10.0327 170.219 9.96808 169.392 9.94653C166.732 9.88385 164.326 10.6262 163.711 12.1932C162.976 14.0521 165.054 15.098 166.852 15.9599C168.284 16.6435 169.414 17.2938 169.018 18.1478C168.707 18.8079 167.696 19.1213 166.226 19.086C164.953 19.0566 163.364 18.6864 162.11 18.0498L161.367 19.6776C162.287 20.1085 164.186 20.6942 165.807 20.7353C168.849 20.8019 170.82 20.0321 171.608 18.3574C172.541 16.381 170.226 15.2978 168.366 14.3909V14.3929Z" fill="white"/>
<path d="M172.497 17.1842C172.512 17.2214 172.538 17.2331 172.578 17.2331C172.619 17.2331 172.639 17.2214 172.65 17.1842C172.668 17.1313 174.133 12.5478 174.133 12.5478C175.627 14.7044 177.109 17.5426 177.903 20.5454H180.34L181.544 16.7434C181.556 16.7062 181.585 16.6964 181.622 16.6964C181.659 16.6964 181.692 16.7082 181.696 16.7434C182.064 19.1292 184.414 20.7334 187.742 20.7334C189.897 20.7334 191.841 20.1634 192.325 19.9009L193.586 15.8894H198.435L198.925 14.3342H194.079L194.915 11.7016H200.693L201.194 10.0896H193.081L190.328 18.7805C189.742 18.9294 189.02 19.0019 188.267 19.0019C186.642 19.0019 185.34 18.614 184.602 17.7444C184.049 17.0901 183.83 16.2498 183.966 15.3077C184.292 13.0688 186.453 11.6566 189.344 11.6566C189.952 11.6566 190.578 11.6918 191.139 11.7663L191.71 10.0759C191.013 9.97011 190.171 9.9231 189.344 9.9231C186.781 9.9231 184.554 10.8143 183.11 12.3813C183.066 12.4303 183.017 12.4283 182.99 12.4283C182.945 12.4283 182.916 12.4205 182.928 12.3813L183.652 10.0915H181.535L179.22 17.4192C178.485 15.2587 176.969 12.4107 175.116 10.0915H172.846L171.148 15.4272C172.002 16.0618 172.272 16.528 172.495 17.1861L172.497 17.1842Z" fill="white"/>
<path d="M159.332 27.8081H160.349L161.35 30.4857H161.362L162.378 27.8081H163.333L161.664 31.894H160.95L159.332 27.8081Z" fill="#642974"/>
<path d="M164.252 29.8513C164.252 29.5241 164.306 29.2284 164.415 28.962C164.524 28.6956 164.675 28.4703 164.869 28.2843C165.063 28.0982 165.294 27.9552 165.56 27.8533C165.826 27.7534 166.118 27.7025 166.435 27.7025C166.751 27.7025 167.042 27.7534 167.31 27.8533C167.576 27.9532 167.807 28.0962 168.001 28.2843C168.195 28.4703 168.346 28.6976 168.455 28.962C168.563 29.2284 168.618 29.5241 168.618 29.8513C168.618 30.1784 168.563 30.4741 168.455 30.7405C168.346 31.0069 168.195 31.2322 168.001 31.4182C167.807 31.6043 167.576 31.7473 167.31 31.8492C167.042 31.9491 166.751 32 166.435 32C166.118 32 165.827 31.9491 165.56 31.8492C165.292 31.7493 165.063 31.6063 164.869 31.4182C164.675 31.2322 164.524 31.005 164.415 30.7405C164.306 30.4761 164.252 30.1784 164.252 29.8513ZM165.177 29.8513C165.177 30.0432 165.207 30.2195 165.267 30.3801C165.325 30.5407 165.41 30.6778 165.521 30.7954C165.631 30.9129 165.763 31.005 165.919 31.0696C166.074 31.1342 166.245 31.1675 166.437 31.1675C166.629 31.1675 166.8 31.1342 166.955 31.0696C167.11 31.005 167.242 30.9129 167.353 30.7954C167.463 30.6778 167.548 30.5388 167.607 30.3801C167.665 30.2215 167.696 30.0452 167.696 29.8513C167.696 29.6573 167.667 29.4869 167.607 29.3263C167.548 29.1637 167.463 29.0247 167.353 28.9071C167.242 28.7896 167.11 28.6976 166.955 28.6329C166.8 28.5683 166.629 28.535 166.437 28.535C166.245 28.535 166.074 28.5683 165.919 28.6329C165.763 28.6976 165.631 28.7896 165.521 28.9071C165.41 29.0247 165.325 29.1637 165.267 29.3263C165.209 29.4889 165.177 29.6632 165.177 29.8513Z" fill="#642974"/>
<path d="M170.818 30.1527L169.297 27.8101H170.407L171.264 29.3398L172.172 27.8101H173.23L171.709 30.1527V31.896H170.816V30.1527H170.818Z" fill="#642974"/>
<path d="M175.268 27.8081H176.005L177.765 31.894H176.758L176.409 31.0283H174.837L174.499 31.894H173.516L175.266 27.8081H175.268ZM175.611 28.9971L175.12 30.2663H176.11L175.613 28.9971H175.611Z" fill="#642974"/>
<path d="M182.55 31.6063C182.289 31.7454 182.013 31.8453 181.728 31.906C181.443 31.9667 181.15 31.998 180.853 31.998C180.536 31.998 180.245 31.9471 179.978 31.8472C179.71 31.7473 179.481 31.6043 179.287 31.4163C179.093 31.2302 178.942 31.003 178.833 30.7386C178.724 30.4741 178.67 30.1764 178.67 29.8493C178.67 29.5222 178.724 29.2264 178.833 28.96C178.942 28.6936 179.093 28.4684 179.287 28.2823C179.481 28.0962 179.712 27.9532 179.978 27.8514C180.243 27.7515 180.536 27.7006 180.853 27.7006C181.169 27.7006 181.476 27.7397 181.747 27.8181C182.019 27.8964 182.259 28.0316 182.465 28.2255L181.836 28.9189C181.714 28.7916 181.576 28.6956 181.425 28.631C181.272 28.5663 181.082 28.533 180.853 28.533C180.663 28.533 180.49 28.5663 180.335 28.631C180.179 28.6956 180.048 28.7877 179.937 28.9052C179.826 29.0227 179.741 29.1618 179.683 29.3244C179.625 29.4869 179.593 29.6613 179.593 29.8493C179.593 30.0373 179.623 30.2175 179.683 30.3782C179.741 30.5388 179.826 30.6759 179.937 30.7934C180.048 30.9109 180.179 31.003 180.335 31.0676C180.49 31.1323 180.661 31.1656 180.853 31.1656C181.045 31.1656 181.216 31.144 181.355 31.099C181.497 31.0539 181.609 31.0089 181.693 30.9638V30.2998H180.967V29.4693H182.55V31.6043V31.6063Z" fill="#642974"/>
<path d="M184.195 27.8084H186.945V28.6389H185.086V29.4008H186.842V30.2313H185.086V31.0618H187.048V31.8923H184.195V27.8064V27.8084Z" fill="#642974"/>
<path d="M191.891 30.3192C191.891 30.5621 191.855 30.7854 191.783 30.9891C191.711 31.1928 191.602 31.3691 191.461 31.5199C191.319 31.6707 191.141 31.7883 190.925 31.8725C190.712 31.9567 190.465 31.9998 190.188 31.9998C189.91 31.9998 189.658 31.9567 189.445 31.8725C189.231 31.7883 189.053 31.6707 188.911 31.5199C188.77 31.3691 188.661 31.1928 188.589 30.9891C188.517 30.7854 188.48 30.5621 188.48 30.3192V27.8081H189.373V30.284C189.373 30.4113 189.392 30.5288 189.433 30.6365C189.474 30.7443 189.53 30.8383 189.602 30.9166C189.674 30.995 189.761 31.0577 189.862 31.1008C189.963 31.1458 190.071 31.1673 190.19 31.1673C190.308 31.1673 190.417 31.1458 190.516 31.1008C190.615 31.0557 190.7 30.995 190.774 30.9166C190.846 30.8383 190.902 30.7443 190.943 30.6365C190.983 30.5288 191.003 30.4113 191.003 30.284V27.8081H191.895V30.3192H191.891Z" fill="#642974"/>
<path d="M193.428 27.8081H194.994C195.199 27.8081 195.395 27.8277 195.579 27.8688C195.764 27.91 195.927 27.9766 196.065 28.0706C196.204 28.1646 196.315 28.2919 196.396 28.4506C196.478 28.6092 196.519 28.809 196.519 29.048C196.519 29.3359 196.445 29.5827 196.295 29.7845C196.146 29.9862 195.931 30.1135 195.644 30.1684L196.672 31.894H195.603L194.757 30.2604H194.316V31.894H193.424V27.8081H193.428ZM194.32 29.4985H194.846C194.926 29.4985 195.011 29.4965 195.1 29.4907C195.189 29.4848 195.271 29.4672 195.343 29.4378C195.415 29.4084 195.475 29.3633 195.523 29.3026C195.57 29.2419 195.595 29.1538 195.595 29.0421C195.595 28.9383 195.574 28.856 195.533 28.7934C195.492 28.7307 195.438 28.6856 195.374 28.6523C195.31 28.619 195.234 28.5975 195.151 28.5857C195.067 28.574 194.986 28.5681 194.904 28.5681H194.32V29.4965V29.4985Z" fill="#642974"/>
<path d="M199.85 28.8072C199.778 28.7152 199.679 28.6466 199.555 28.6016C199.431 28.5565 199.314 28.535 199.204 28.535C199.14 28.535 199.072 28.5428 199.004 28.5585C198.936 28.5742 198.87 28.5977 198.81 28.631C198.75 28.6643 198.699 28.7074 198.661 28.7602C198.622 28.8151 198.604 28.8797 198.604 28.9561C198.604 29.0795 198.651 29.1735 198.742 29.2382C198.833 29.3028 198.95 29.3596 199.087 29.4047C199.225 29.4497 199.377 29.4967 199.536 29.5437C199.697 29.5907 199.846 29.6554 199.984 29.7396C200.122 29.8238 200.238 29.9374 200.329 30.0804C200.42 30.2234 200.467 30.4134 200.467 30.6524C200.467 30.8913 200.424 31.0774 200.341 31.2459C200.257 31.4143 200.143 31.5554 200.001 31.667C199.858 31.7787 199.693 31.8609 199.505 31.9158C199.316 31.9687 199.117 31.9961 198.907 31.9961C198.645 31.9961 198.401 31.9549 198.176 31.8746C197.95 31.7943 197.741 31.6631 197.547 31.4829L198.181 30.7797C198.273 30.9031 198.389 30.9971 198.527 31.0657C198.664 31.1342 198.81 31.1675 198.957 31.1675C199.029 31.1675 199.103 31.1597 199.177 31.1421C199.25 31.1244 199.318 31.099 199.377 31.0637C199.435 31.0285 199.483 30.9854 199.52 30.9305C199.557 30.8757 199.574 30.813 199.574 30.7405C199.574 30.6171 199.528 30.5211 199.435 30.4487C199.342 30.3782 199.223 30.3174 199.084 30.2665C198.942 30.2156 198.791 30.1666 198.626 30.1157C198.463 30.0667 198.309 29.9982 198.168 29.9139C198.026 29.8297 197.91 29.7181 197.817 29.579C197.723 29.4399 197.677 29.2578 197.677 29.0305C197.677 28.8033 197.72 28.6192 197.805 28.4527C197.89 28.2862 198.005 28.1491 198.148 28.0375C198.292 27.9258 198.457 27.8416 198.643 27.7867C198.829 27.7319 199.021 27.7025 199.221 27.7025C199.45 27.7025 199.671 27.7358 199.885 27.8005C200.098 27.8651 200.29 27.9748 200.463 28.1295L199.852 28.8053L199.85 28.8072Z" fill="#642974"/>
<path d="M152.334 3.96362H152.332C152.149 3.96362 152 4.12068 152 4.31442V27.3487C152 27.5425 152.149 27.6995 152.332 27.6995H152.334C152.518 27.6995 152.667 27.5425 152.667 27.3487V4.31442C152.667 4.12068 152.518 3.96362 152.334 3.96362Z" fill="#E0E0E0"/>
<mask id="mask0_184_21013" style="mask-type:luminance" maskUnits="userSpaceOnUse" x="0" y="0" width="146" height="32">
<path d="M145.333 0H0V32H145.333V0Z" fill="white"/>
</mask>
<g mask="url(#mask0_184_21013)">
<path d="M88.4668 0.0290527H94.4378C94.4378 0.0290527 100.119 0.0290527 100.119 15.7976C100.119 31.2478 94.4378 31.7397 94.4378 31.7397H88.4958C88.4958 31.7397 94.2639 31.2478 94.2639 15.8844C94.2639 0.0290516 88.4668 0.0290527 88.4668 0.0290527Z" fill="#363089"/>
</g>
<mask id="mask1_184_21013" style="mask-type:luminance" maskUnits="userSpaceOnUse" x="0" y="0" width="146" height="32">
<path d="M145.333 0H0V32H145.333V0Z" fill="white"/>
</mask>
<g mask="url(#mask1_184_21013)">
<path d="M78.6367 0.0290527H84.6077C84.6077 0.0290527 90.2889 0.0290527 90.2889 15.7976C90.2889 31.2478 84.6077 31.7397 84.6077 31.7397H78.6657C78.6657 31.7397 84.4338 31.2478 84.4338 15.8844C84.4338 0.0290516 78.6367 0.0290527 78.6367 0.0290527Z" fill="#363089"/>
</g>
<mask id="mask2_184_21013" style="mask-type:luminance" maskUnits="userSpaceOnUse" x="0" y="0" width="146" height="32">
<path d="M145.333 0H0V32H145.333V0Z" fill="white"/>
</mask>
<g mask="url(#mask2_184_21013)">
<path d="M141.332 27.8625H145.303V26.9366H141.332V24.0722H145.303V23.1464H140.375V31.7684H145.274V30.8426H141.303L141.332 27.8625ZM137.332 25.5189C137.332 26.329 136.781 26.9655 135.796 26.9655H133.825V24.1012H135.796C136.781 24.0722 137.332 24.6798 137.332 25.5189ZM135.187 27.8625L137.477 31.7684H138.578L136.259 27.8335C137.738 27.631 138.288 26.5605 138.288 25.5189C138.288 24.3616 137.622 23.1464 135.796 23.1464H132.868V31.7684H133.825V27.8625H135.187ZM129.448 31.7684H130.404V23.1464H129.448V31.7684ZM127.274 25.9529C127.274 24.1301 126.143 23.0306 124.491 23.0306C122.839 23.0306 121.709 24.1301 121.709 25.9529V28.9909C121.709 30.8136 122.839 31.9131 124.491 31.9131C126.143 31.9131 127.274 30.8136 127.274 28.9909V25.9529ZM126.317 28.9619C126.317 30.2639 125.506 30.9294 124.491 30.9294C123.477 30.9294 122.665 30.2639 122.665 28.9619V25.9529C122.665 24.6509 123.477 23.9854 124.491 23.9854C125.506 23.9854 126.317 24.6509 126.317 25.9529V28.9619ZM115.854 31.7684H120.752V30.8426H116.81V23.1753H115.854V31.7684Z" fill="#363089"/>
</g>
<mask id="mask3_184_21013" style="mask-type:luminance" maskUnits="userSpaceOnUse" x="0" y="0" width="146" height="32">
<path d="M145.333 0H0V32H145.333V0Z" fill="white"/>
</mask>
<g mask="url(#mask3_184_21013)">
<path d="M129.447 21.092C131.186 21.092 132.055 20.1662 132.055 18.7774C132.055 17.4175 131.273 16.6653 130.055 16.3181L129.041 16.0288C128.142 15.7684 127.766 15.2765 127.766 14.4953C127.766 13.743 128.316 13.1355 129.36 13.1355C130.287 13.1355 130.809 13.6852 130.983 14.4953H131.968C131.795 13.0197 130.867 12.1807 129.36 12.1807C127.968 12.1807 126.809 12.9908 126.809 14.4664C126.809 15.508 127.331 16.5496 128.635 16.9257L129.737 17.244C130.722 17.5043 131.128 17.9962 131.128 18.7485C131.128 19.6454 130.461 20.1083 129.476 20.1083C128.548 20.1083 127.795 19.4718 127.65 18.3723H126.664C126.751 20.0794 127.881 21.092 129.447 21.092ZM122.693 17.5333L125.534 12.3543H124.49L122.2 16.5206L119.91 12.3543H118.867L121.708 17.5333V20.9763H122.664V17.5333H122.693ZM116.809 17.6779H114.258L115.534 13.6852L116.809 17.6779ZM117.881 20.9763H118.838L116.084 12.3543H115.012L112.229 20.9763H113.186L113.968 18.5459H117.099L117.881 20.9763ZM110.519 14.9872C110.519 15.913 110.026 16.6942 108.693 16.6942H106.867V13.2801H108.693C110.055 13.2801 110.519 14.0613 110.519 14.9872ZM111.505 14.9872C111.505 13.4537 110.722 12.3543 108.722 12.3543H105.939V20.9763H106.896V17.6201H108.722C110.722 17.6201 111.505 16.5206 111.505 14.9872Z" fill="#363089"/>
</g>
<mask id="mask4_184_21013" style="mask-type:luminance" maskUnits="userSpaceOnUse" x="0" y="0" width="146" height="32">
<path d="M145.333 0H0V32H145.333V0Z" fill="white"/>
</mask>
<g mask="url(#mask4_184_21013)">
<path d="M145.331 1.85184H143.737V7.17552L140.664 1.85184H139.07V10.1267H140.664V4.80301L143.737 10.1267H145.331V1.85184ZM135.968 7.20445C135.968 8.15925 135.302 8.68004 134.432 8.68004C133.563 8.68004 132.896 8.15925 132.896 7.20445V4.80301C132.896 3.84822 133.563 3.32742 134.432 3.32742C135.302 3.32742 135.968 3.84822 135.968 4.80301V7.20445ZM137.534 7.20445V4.80301C137.534 2.98023 136.403 1.7361 134.403 1.7361C132.403 1.7361 131.273 2.95129 131.273 4.80301V7.20445C131.273 9.02724 132.403 10.2714 134.403 10.2714C136.403 10.2714 137.534 9.02724 137.534 7.20445ZM129.708 1.85184H128.113V10.1267H129.708V1.85184ZM123.302 6.97299H124.838V7.17552C124.838 8.13031 124.171 8.65111 123.302 8.65111C122.432 8.65111 121.766 8.13031 121.766 7.17552V4.77408C121.766 3.81928 122.432 3.29849 123.302 3.29849C124.055 3.29849 124.664 3.70355 124.809 4.45581H126.403C126.258 2.80663 125.157 1.7361 123.302 1.7361C121.302 1.7361 120.171 2.95129 120.171 4.80301V7.20445C120.171 9.02724 121.302 10.2714 123.302 10.2714C125.302 10.2714 126.432 9.05617 126.432 7.20445V5.4106H123.302V6.97299ZM116.084 0.0290527L115.186 1.33104H116.606L118.113 0.0290527H116.084ZM115.244 3.44316H118.693V1.88077H113.65V10.1556H118.693V8.59324H115.244V6.77046H118.693V5.20807H115.244V3.44316ZM110.461 4.31115C110.461 4.88981 110.084 5.17914 109.476 5.17914H107.534V3.41422H109.476C110.055 3.44315 110.461 3.73249 110.461 4.31115ZM108.49 6.74153L110.49 10.1556H112.316L110.258 6.65473C111.418 6.39433 112.055 5.52634 112.055 4.31115C112.055 2.83556 111.128 1.88077 109.447 1.88077H105.939V10.1556H107.534V6.74153H108.49Z" fill="#363089"/>
</g>
<mask id="mask5_184_21013" style="mask-type:luminance" maskUnits="userSpaceOnUse" x="0" y="0" width="146" height="32">
<path d="M145.333 0H0V32H145.333V0Z" fill="white"/>
</mask>
<g mask="url(#mask5_184_21013)">
<path d="M111.101 31.0452L111.361 31.7685H112.115L110.782 28.2097H110.086L108.753 31.7685H109.506L109.767 31.0452H111.101ZM110.84 30.4086H109.999L110.405 29.2513L110.84 30.4086ZM106.637 28.2097H105.912V31.7685H108.202V31.103H106.637V28.2097Z" fill="#363089"/>
</g>
<mask id="mask6_184_21013" style="mask-type:luminance" maskUnits="userSpaceOnUse" x="0" y="0" width="146" height="32">
<path d="M145.333 0H0V32H145.333V0Z" fill="white"/>
</mask>
<g mask="url(#mask6_184_21013)">
<path d="M110.347 23.8411H111.912V23.1757H109.651V26.7344H111.941V26.069H110.376V25.2878H111.941V24.6223H110.376V23.8411H110.347ZM108.028 25.4035C108.028 25.8086 107.709 26.04 107.332 26.04H106.637V23.8411H107.332C107.709 23.8411 108.028 24.0726 108.028 24.4776V25.4035ZM107.332 26.7055C108.231 26.7055 108.753 26.1847 108.753 25.4035V24.4776C108.753 23.6965 108.231 23.1757 107.332 23.1757H105.912V26.7344H107.332V26.7055Z" fill="#363089"/>
</g>
<mask id="mask7_184_21013" style="mask-type:luminance" maskUnits="userSpaceOnUse" x="0" y="0" width="146" height="32">
<path d="M145.333 0H0V32H145.333V0Z" fill="white"/>
</mask>
<g mask="url(#mask7_184_21013)">
<path d="M41.0145 9.22975L38.7826 9.20082L42 5.15019H44.9275L42.4927 8.41963C42.1739 8.94042 41.6232 9.22975 41.0145 9.22975ZM77.2463 17.6782C77.2463 22.076 74.3768 24.8536 70.6956 24.8536C70.2028 24.8536 69.797 24.8536 69.5362 24.7089C68.9855 24.3617 69.0144 23.5227 69.0144 23.5227V22.5679H70.4927C72.7246 22.5679 74.4927 21.0055 74.4927 17.8518C74.4927 14.8428 72.8405 12.9043 70.4927 12.9043C68.4057 12.9043 66.4927 14.3509 66.4927 17.8807V21.8735V24.8825V30.4666C66.3768 32.029 64.7826 31.9711 64.7826 31.9711H63.7681V24.8825H48.4637H40.9565H40.8695C38.9855 24.8825 37.3623 24.3039 36.1159 23.2912C35.3913 23.8988 34.2608 24.3328 32.8406 24.7668C31.855 25.0561 29.7101 24.9983 27.6232 24.9404H26.7536C26.6087 24.9404 26.4637 24.9115 26.3188 24.9115C24.2029 24.6221 22.7246 23.2912 22.1159 20.9766C21.8551 19.7903 21.884 18.8934 21.884 18.8934H19.6811L20.9855 21.8446L22.3768 24.9693L20.6956 25.0272C19.5652 24.9983 19.0145 24.68 18.4638 23.3202L16.4927 18.9223H12.3768H11.1304C10.1739 18.9223 9.5942 18.0833 9.5942 17.4467C9.5942 17.3021 9.5942 16.6077 9.5942 16.6077H10.058H15.7391L15.4782 15.9422L15.5362 16.0869L11.3623 5.38166C11.3333 5.32379 11.3043 5.29486 11.2464 5.26592C11.1884 5.29486 11.1594 5.32379 11.1304 5.38166L6.92753 15.8265L6.69565 16.4341L4.78261 21.237L3.91304 23.2044C3.33333 24.5643 2.81159 24.8825 1.68116 24.9115L0 24.8536L1.3913 21.7288L2.69565 18.7777L8.84057 3.50101C9.30434 2.40155 10.2898 2.45942 10.6956 2.45942H11.5362C11.5362 2.45942 12.9275 2.37262 13.3623 3.32741L18.6667 16.463H21.7971V8.59323V2.54622V2.28582C21.7971 1.01276 22.8406 0.000105932 24.0869 0.000105932H24.8406H26.7826C28.3478 -0.0288271 31.5652 1.73609 32.1159 5.15019C32.1159 5.15019 33.0145 9.02722 31.855 13.9748C30.6087 17.8807 27.6522 18.7198 25.5942 18.7777H24.6377C24.6377 18.7777 24.5507 19.5589 24.9275 20.8898C25.4203 22.076 26.2609 22.51 28.3768 22.539C28.3768 22.539 31.1304 22.7415 32.3768 22.3364C33.3623 22.0182 34 21.7867 34.5507 21.4395C33.884 20.3401 33.5072 19.0091 33.5072 17.5625C33.5072 13.1647 36 10.2135 40.4348 10.2135C43.5072 10.2135 45.3913 11.4865 46.1449 14.0616C46.1449 14.0616 46.3478 14.4377 45.7101 15.19C44.7246 16.3762 42.3478 18.7487 38.2319 21.671C39.0145 22.2207 39.971 22.4811 40.9855 22.4811H48.3188C48.3188 22.4811 48.4058 22.4811 48.4347 22.4811H48.5507C48.5797 22.4811 48.6376 22.4811 48.6666 22.4522C48.7826 22.4232 48.8405 22.3364 48.7826 22.2207C48.7536 22.1918 48.7536 22.1628 48.6956 22.105C47.7391 20.9187 47.0724 19.2985 47.0724 17.4757C47.0724 13.3093 50.3768 10.2713 54.4927 10.2713C58.6087 10.2713 61.942 13.3093 61.942 17.4757C61.942 19.4431 61.2173 21.1791 60 22.4232H63.5652C63.6811 22.3654 63.7681 22.2207 63.7681 22.076V18.8355V16.5209V13.5986V10.6475H65.1304C65.7681 10.6475 66.2608 11.2261 66.2898 11.8337V11.8916C66.3188 11.8048 67.5072 10.416 71.0434 10.416C74.8115 10.416 77.2463 13.3672 77.2463 17.6782ZM24.6377 7.11764C24.6377 7.20444 24.6377 7.29124 24.6377 7.37804V16.463H25.7101C26.6666 16.492 27.913 15.595 28.3768 15.1032C28.3768 15.1032 28.9855 14.6981 29.4203 12.0363C29.942 8.79576 29.3913 5.90245 29.3913 5.90245C29.1014 4.68726 28.0869 2.66195 26.2608 2.57515L25.4782 2.54622H25.3913C24.9855 2.54622 24.6377 2.89341 24.6377 3.29848V3.38528V7.11764ZM36.7246 19.935C38.8116 18.4015 42.1449 15.8265 43.4492 14.322C43.8261 13.6565 42.3478 12.3835 40.4058 12.4992C38.6956 12.586 37.2753 13.3672 36.6087 15.0453C36.4927 15.3346 36.3478 15.9133 36.2898 16.4052C36.2898 16.4052 36.1159 17.4757 36.3478 18.7487C36.4058 19.1538 36.5507 19.5589 36.7246 19.935ZM59.2463 17.5625C59.2463 14.6981 57.1304 12.6439 54.4927 12.6439C51.913 12.6439 49.7681 14.6981 49.7681 17.5625C49.7681 20.4558 51.884 22.51 54.4927 22.51C57.1304 22.539 59.2463 20.4558 59.2463 17.5625Z" fill="#363089"/>
</g>
<mask id="mask8_184_21013" style="mask-type:luminance" maskUnits="userSpaceOnUse" x="0" y="0" width="146" height="32">
<path d="M145.333 0H0V32H145.333V0Z" fill="white"/>
</mask>
<g mask="url(#mask8_184_21013)">
<path d="M0.550725 29.9169H1.76812V30.4667H0V27.5444H0.550725V29.9169Z" fill="#363089"/>
</g>
<mask id="mask9_184_21013" style="mask-type:luminance" maskUnits="userSpaceOnUse" x="0" y="0" width="146" height="32">
<path d="M145.333 0H0V32H145.333V0Z" fill="white"/>
</mask>
<g mask="url(#mask9_184_21013)">
<path d="M2.8705 29.8591L2.6676 30.4377H2.08789L3.13137 27.5444H3.65311L4.69658 30.4377H4.11687L3.91398 29.8591H2.8705ZM3.39224 28.4124L3.0734 29.3672H3.71108L3.39224 28.4124Z" fill="#363089"/>
</g>
<mask id="mask10_184_21013" style="mask-type:luminance" maskUnits="userSpaceOnUse" x="0" y="0" width="146" height="32">
<path d="M145.333 0H0V32H145.333V0Z" fill="white"/>
</mask>
<g mask="url(#mask10_184_21013)">
<path d="M6.89643 29.2515V30.4377H6.3457V27.5444H7.56309C8.1428 27.5444 8.49063 27.8627 8.49063 28.4124C8.49063 28.8464 8.25874 29.1358 7.85295 29.2515L8.57758 30.4667H7.9399L7.24425 29.2804L6.89643 29.2515ZM7.56309 28.0942H6.89643V28.7018H7.56309C7.76599 28.7018 7.91092 28.586 7.91092 28.3835C7.91092 28.2099 7.79498 28.0942 7.56309 28.0942Z" fill="#363089"/>
</g>
<mask id="mask11_184_21013" style="mask-type:luminance" maskUnits="userSpaceOnUse" x="0" y="0" width="146" height="32">
<path d="M145.333 0H0V32H145.333V0Z" fill="white"/>
</mask>
<g mask="url(#mask11_184_21013)">
<path d="M9.70893 28.7306H10.9263V29.2803H9.70893V29.9169H10.9263V30.4666H9.1582V27.5733H10.9263V28.123H9.70893V28.7306ZM10.7234 26.9078L10.2017 27.3708H9.70893L10.0278 26.9078H10.7234Z" fill="#363089"/>
</g>
<mask id="mask12_184_21013" style="mask-type:luminance" maskUnits="userSpaceOnUse" x="0" y="0" width="146" height="32">
<path d="M145.333 0H0V32H145.333V0Z" fill="white"/>
</mask>
<g mask="url(#mask12_184_21013)">
<path d="M12.6659 28.7884H13.7673V29.425C13.7673 30.0615 13.3616 30.4955 12.6659 30.4955C11.9703 30.4955 11.5645 30.0615 11.5645 29.425V28.5859C11.5645 27.9494 11.9703 27.5154 12.6659 27.5154C13.3326 27.5154 13.7094 27.8915 13.7673 28.4702H13.2166C13.1587 28.2098 12.9558 28.0651 12.6949 28.0651C12.405 28.0651 12.1442 28.2387 12.1442 28.5859V29.425C12.1442 29.7722 12.376 29.9458 12.6949 29.9458C12.9847 29.9458 13.2456 29.7722 13.2456 29.425V29.3382H12.6949L12.6659 28.7884Z" fill="#363089"/>
</g>
<mask id="mask13_184_21013" style="mask-type:luminance" maskUnits="userSpaceOnUse" x="0" y="0" width="146" height="32">
<path d="M145.333 0H0V32H145.333V0Z" fill="white"/>
</mask>
<g mask="url(#mask13_184_21013)">
<path d="M14.9833 27.5444H14.4336V30.4377H14.9833V27.5444Z" fill="#363089"/>
</g>
<mask id="mask14_184_21013" style="mask-type:luminance" maskUnits="userSpaceOnUse" x="0" y="0" width="146" height="32">
<path d="M145.333 0H0V32H145.333V0Z" fill="white"/>
</mask>
<g mask="url(#mask14_184_21013)">
<path d="M16.8143 30.4955C16.1187 30.4955 15.7129 30.0615 15.7129 29.425V28.5859C15.7129 27.9494 16.1187 27.5154 16.8143 27.5154C17.51 27.5154 17.9158 27.9494 17.9158 28.5859V29.425C17.8868 30.0615 17.51 30.4955 16.8143 30.4955ZM17.3361 28.5859C17.3361 28.2387 17.1042 28.0651 16.7854 28.0651C16.4955 28.0651 16.2346 28.2387 16.2346 28.5859V29.425C16.2346 29.7722 16.4665 29.9458 16.7854 29.9458C17.0752 29.9458 17.3361 29.7722 17.3361 29.425V28.5859Z" fill="#363089"/>
</g>
<mask id="mask15_184_21013" style="mask-type:luminance" maskUnits="userSpaceOnUse" x="0" y="0" width="146" height="32">
<path d="M145.333 0H0V32H145.333V0Z" fill="white"/>
</mask>
<g mask="url(#mask15_184_21013)">
<path d="M20.7813 30.4667H20.2306L19.1581 28.586V30.4667H18.6074V27.5444H19.1581L20.2306 29.4251V27.5444H20.7813V30.4667Z" fill="#363089"/>
</g>
<mask id="mask16_184_21013" style="mask-type:luminance" maskUnits="userSpaceOnUse" x="0" y="0" width="146" height="32">
<path d="M145.333 0H0V32H145.333V0Z" fill="white"/>
</mask>
<g mask="url(#mask16_184_21013)">
<path d="M24.4645 27.5444H25.0442L24.0008 30.4667H23.479L22.4355 27.5444H23.0153L23.7399 29.5697L24.4645 27.5444Z" fill="#363089"/>
</g>
<mask id="mask17_184_21013" style="mask-type:luminance" maskUnits="userSpaceOnUse" x="0" y="0" width="146" height="32">
<path d="M145.333 0H0V32H145.333V0Z" fill="white"/>
</mask>
<g mask="url(#mask17_184_21013)">
<path d="M26.5507 30.4955C25.855 30.4955 25.4492 30.0615 25.4492 29.425V28.5859C25.4492 27.9494 25.855 27.5154 26.5507 27.5154C27.2463 27.5154 27.6521 27.9494 27.6521 28.5859V29.425C27.6231 30.0615 27.2463 30.4955 26.5507 30.4955ZM27.0724 28.5859C27.0724 28.2387 26.8405 28.0651 26.5217 28.0651C26.2318 28.0651 25.971 28.2387 25.971 28.5859V29.425C25.971 29.7722 26.2028 29.9458 26.5217 29.9458C26.8115 29.9458 27.0724 29.7722 27.0724 29.425V28.5859Z" fill="#363089"/>
</g>
<mask id="mask18_184_21013" style="mask-type:luminance" maskUnits="userSpaceOnUse" x="0" y="0" width="146" height="32">
<path d="M145.333 0H0V32H145.333V0Z" fill="white"/>
</mask>
<g mask="url(#mask18_184_21013)">
<path d="M30.4939 27.5444V29.4251C30.4939 30.0616 30.0881 30.4956 29.3925 30.4956C28.6968 30.4956 28.291 30.0616 28.291 29.4251V27.5444H28.8417V29.4251C28.8417 29.7723 29.0736 29.9459 29.3925 29.9459C29.6823 29.9459 29.9432 29.7723 29.9432 29.4251V27.5444H30.4939Z" fill="#363089"/>
</g>
<mask id="mask19_184_21013" style="mask-type:luminance" maskUnits="userSpaceOnUse" x="0" y="0" width="146" height="32">
<path d="M145.333 0H0V32H145.333V0Z" fill="white"/>
</mask>
<g mask="url(#mask19_184_21013)">
<path d="M31.0723 29.5408H31.652C31.681 29.7723 31.8839 29.9459 32.1447 29.9459C32.3766 29.9459 32.5505 29.8591 32.5505 29.6566C32.5505 29.483 32.4636 29.3962 32.2607 29.3383L31.7679 29.1936C31.3331 29.0779 31.1012 28.7596 31.1012 28.3256C31.1012 27.747 31.565 27.4866 32.0578 27.4866C32.6375 27.4866 33.0143 27.8338 33.0723 28.3256H32.4926C32.4346 28.1231 32.2317 28.0363 32.0578 28.0363C31.8259 28.0363 31.652 28.1231 31.652 28.3256C31.652 28.4992 31.7969 28.5571 31.9418 28.615L32.4056 28.7307C32.8404 28.8464 33.1012 29.1358 33.1012 29.6276C33.1012 30.1484 32.7534 30.4667 32.1157 30.4667C31.507 30.4956 31.1013 30.1195 31.0723 29.5408Z" fill="#363089"/>
</g>
<mask id="mask20_184_21013" style="mask-type:luminance" maskUnits="userSpaceOnUse" x="0" y="0" width="146" height="32">
<path d="M145.333 0H0V32H145.333V0Z" fill="white"/>
</mask>
<g mask="url(#mask20_184_21013)">
<path d="M35.9714 28.0942V30.4667H35.3917V28.0942H34.5801V27.5444H36.783V28.0942H35.9714Z" fill="#363089"/>
</g>
<mask id="mask21_184_21013" style="mask-type:luminance" maskUnits="userSpaceOnUse" x="0" y="0" width="146" height="32">
<path d="M145.333 0H0V32H145.333V0Z" fill="white"/>
</mask>
<g mask="url(#mask21_184_21013)">
<path d="M37.8554 29.2515V30.4377H37.3047V27.5444H38.5221C39.1018 27.5444 39.4496 27.8627 39.4496 28.4124C39.4496 28.8464 39.2177 29.1358 38.8119 29.2515L39.5366 30.4667H38.8989L38.2032 29.2804L37.8554 29.2515ZM38.5221 28.0942H37.8554V28.7018H38.5221C38.725 28.7018 38.8699 28.586 38.8699 28.3835C38.8699 28.2099 38.754 28.0942 38.5221 28.0942Z" fill="#363089"/>
</g>
<mask id="mask22_184_21013" style="mask-type:luminance" maskUnits="userSpaceOnUse" x="0" y="0" width="146" height="32">
<path d="M145.333 0H0V32H145.333V0Z" fill="white"/>
</mask>
<g mask="url(#mask22_184_21013)">
<path d="M40.6381 29.8591L40.4352 30.4377H39.8555L40.8989 27.5444H41.4207L42.4642 30.4377H41.8845L41.6816 29.8591H40.6381ZM41.1308 28.4124L40.812 29.3672H41.4497L41.1308 28.4124Z" fill="#363089"/>
</g>
<mask id="mask23_184_21013" style="mask-type:luminance" maskUnits="userSpaceOnUse" x="0" y="0" width="146" height="32">
<path d="M145.333 0H0V32H145.333V0Z" fill="white"/>
</mask>
<g mask="url(#mask23_184_21013)">
<path d="M45.1599 30.4667H44.6092L43.5078 28.586V30.4667H42.957V27.5444H43.5078L44.6092 29.4251V27.5444H45.1599V30.4667Z" fill="#363089"/>
</g>
<mask id="mask24_184_21013" style="mask-type:luminance" maskUnits="userSpaceOnUse" x="0" y="0" width="146" height="32">
<path d="M145.333 0H0V32H145.333V0Z" fill="white"/>
</mask>
<g mask="url(#mask24_184_21013)">
<path d="M45.7695 29.5408H46.3492C46.3782 29.7723 46.5811 29.9459 46.842 29.9459C47.0739 29.9459 47.2478 29.8591 47.2478 29.6566C47.2478 29.483 47.1608 29.3962 46.9579 29.3383L46.4652 29.1936C46.0304 29.0779 45.7985 28.7596 45.7985 28.3256C45.7985 27.747 46.2623 27.4866 46.755 27.4866C47.3347 27.4866 47.7116 27.8338 47.7695 28.3256H47.1898C47.1318 28.1231 46.9289 28.0363 46.755 28.0363C46.5232 28.0363 46.3492 28.1231 46.3492 28.3256C46.3492 28.4992 46.4942 28.5571 46.6391 28.615L47.1029 28.7307C47.5376 28.8464 47.7985 29.1358 47.7985 29.6276C47.7985 30.1484 47.4507 30.4667 46.813 30.4667C46.2043 30.4956 45.7985 30.1195 45.7695 29.5408Z" fill="#363089"/>
</g>
<mask id="mask25_184_21013" style="mask-type:luminance" maskUnits="userSpaceOnUse" x="0" y="0" width="146" height="32">
<path d="M145.333 0H0V32H145.333V0Z" fill="white"/>
</mask>
<g mask="url(#mask25_184_21013)">
<path d="M49.0156 30.4665H48.4648V27.5732H49.6532C50.3489 27.5732 50.6677 28.0362 50.6677 28.5859C50.6677 29.1067 50.3489 29.5986 49.6532 29.5986H49.0156V30.4665ZM49.6243 29.0199C49.9431 29.0199 50.059 28.7884 50.059 28.557C50.059 28.3255 49.9141 28.094 49.6243 28.094H48.9866V28.991H49.6243V29.0199Z" fill="#363089"/>
</g>
<mask id="mask26_184_21013" style="mask-type:luminance" maskUnits="userSpaceOnUse" x="0" y="0" width="146" height="32">
<path d="M145.333 0H0V32H145.333V0Z" fill="white"/>
</mask>
<g mask="url(#mask26_184_21013)">
<path d="M52.2284 30.4955C51.5328 30.4955 51.127 30.0615 51.127 29.425V28.5859C51.127 27.9494 51.5328 27.5154 52.2284 27.5154C52.9241 27.5154 53.3299 27.9494 53.3299 28.5859V29.425C53.3299 30.0615 52.9241 30.4955 52.2284 30.4955ZM52.7501 28.5859C52.7501 28.2387 52.5183 28.0651 52.1994 28.0651C51.9096 28.0651 51.6487 28.2387 51.6487 28.5859V29.425C51.6487 29.7722 51.8806 29.9458 52.1994 29.9458C52.4893 29.9458 52.7501 29.7722 52.7501 29.425V28.5859Z" fill="#363089"/>
</g>
<mask id="mask27_184_21013" style="mask-type:luminance" maskUnits="userSpaceOnUse" x="0" y="0" width="146" height="32">
<path d="M145.333 0H0V32H145.333V0Z" fill="white"/>
</mask>
<g mask="url(#mask27_184_21013)">
<path d="M54.5781 29.2515V30.4377H54.0273V27.5444H55.2447C55.8244 27.5444 56.1723 27.8627 56.1723 28.4124C56.1723 28.8464 55.9404 29.1358 55.5346 29.2515L56.2592 30.4667H55.6215L54.9259 29.2804L54.5781 29.2515ZM55.2737 28.0942H54.5781V28.7018H55.2447C55.4476 28.7018 55.5926 28.586 55.5926 28.3835C55.6215 28.2099 55.4766 28.0942 55.2737 28.0942Z" fill="#363089"/>
</g>
<mask id="mask28_184_21013" style="mask-type:luminance" maskUnits="userSpaceOnUse" x="0" y="0" width="146" height="32">
<path d="M145.333 0H0V32H145.333V0Z" fill="white"/>
</mask>
<g mask="url(#mask28_184_21013)">
<path d="M57.9424 28.0942V30.4667H57.3917V28.0942H56.5801V27.5444H58.754V28.0942H57.9424Z" fill="#363089"/>
</g>
<mask id="mask29_184_21013" style="mask-type:luminance" maskUnits="userSpaceOnUse" x="0" y="0" width="146" height="32">
<path d="M145.333 0H0V32H145.333V0Z" fill="white"/>
</mask>
<g mask="url(#mask29_184_21013)">
<path d="M59.8261 28.7307H61.0435V29.2804H59.8261V29.9169H61.0435V30.4667H59.2754V27.5444H61.0435V28.0942H59.8261V28.7307Z" fill="#363089"/>
</g>
<defs>
<linearGradient id="paint0_linear_184_21013" x1="159.334" y1="11.9934" x2="204.604" y2="11.9934" gradientUnits="userSpaceOnUse">
<stop stop-color="#782A63"/>
<stop offset="0.25" stop-color="#A12771"/>
<stop offset="0.81" stop-color="#C93026"/>
<stop offset="1" stop-color="#C93026"/>
</linearGradient>
</defs>
</svg>
