<svg width="154" height="32" viewBox="0 0 154 32" fill="none" xmlns="http://www.w3.org/2000/svg">
<mask id="mask0_184_20067" style="mask-type:luminance" maskUnits="userSpaceOnUse" x="92" y="0" width="62" height="32">
<path d="M92.502 0L105.486 31.9571H153.082L153.158 0H92.502Z" fill="white"/>
</mask>
<g mask="url(#mask0_184_20067)">
<path d="M144.642 18.4325C146.143 17.6795 147.406 18.2769 147.913 18.6925C148.338 17.0572 150.686 7.41813 150.965 6.26807C149.353 6.85235 147.341 7.25166 145.617 7.51497C145.518 8.63022 144.883 15.7526 144.641 18.4314L144.642 18.4325Z" fill="#05BAEE"/>
<path d="M137.795 11.0154C137.795 11.0154 137.795 11.0154 137.795 11.0165C137.795 11.7541 137.795 17.6198 137.795 17.6198C137.795 18.9385 136.639 19.945 135.323 19.945C134.008 19.945 132.852 18.9255 132.852 17.6198V12.4603C132.852 10.5943 132.366 7.95142 128.279 7.95142H119.074C114.64 7.95142 111.044 11.5376 111.044 15.9725C111.044 17.4196 111.432 18.7731 112.101 19.9461H105.436L112.557 7.96229H98.7617C98.7617 9.64986 99.3591 11.9859 101.788 11.9859H105.664L101.424 19.228C99.9673 21.7174 99.9325 24.0034 99.9325 24.0034H119.073C123.508 24.0034 127.104 20.4085 127.104 15.9725C127.104 14.52 126.713 13.161 126.038 11.9859H128.099C128.584 11.9859 128.785 12.2296 128.785 12.6812V17.5382C128.785 21.0668 131.103 24.0023 135.321 24.0023C139.54 24.0023 141.859 21.0635 141.859 17.5382V7.95142C138.561 7.95142 137.793 9.74234 137.793 11.0154H137.795ZM119.076 19.9602C116.873 19.9602 115.088 18.1747 115.088 15.9725C115.088 13.7703 116.873 11.9848 119.076 11.9848C121.278 11.9848 123.063 13.7703 123.063 15.9725C123.063 18.1747 121.278 19.9602 119.076 19.9602Z" fill="url(#paint0_linear_184_20067)"/>
<path d="M145.995 24.0033C147.329 24.0033 148.411 22.9331 148.411 21.6129C148.411 20.2926 147.329 19.2224 145.995 19.2224C144.66 19.2224 143.578 20.2926 143.578 21.6129C143.578 22.9331 144.66 24.0033 145.995 24.0033Z" fill="#F08700"/>
<path style="mix-blend-mode:multiply" d="M89.7616 -5.97132C90.6037 -6.31514 95.8079 2.81794 100.676 14.7582C105.544 26.6984 108.234 36.925 107.391 37.2688C106.549 37.6127 101.919 28.2108 97.0504 16.2706C92.1825 4.33033 88.9183 -5.62749 89.7616 -5.97132Z" fill="url(#paint1_radial_184_20067)"/>
<path d="M105.486 31.9571L92.4883 0.0065918L92.7331 0.00768091L105.731 31.9571H105.486Z" fill="#0069AD"/>
</g>
<path d="M65.4337 9.77666V23.7254H63.6928V9.77666H58.666V8.27515H70.591L70.4822 9.77666H65.4337Z" fill="#0069B3"/>
<path d="M72.6113 23.7252V8.2749H80.7499V9.77641H74.3304V15.1296H80.2494V16.5876H74.3304V22.2237H81.2504L81.0981 23.7252H72.6113Z" fill="#0069B3"/>
<path d="M91.0888 20.4395L89.3697 17.5453H86.1273V23.7254H84.4082V8.27515H87.7594C91.1976 8.27515 93.7001 9.79842 93.7001 12.845C93.7001 14.5205 93.0038 16.0656 91.0671 16.9795L92.6121 19.5691C94.0483 21.9193 94.8317 22.311 96.0938 22.4851L95.898 23.7907C93.6131 23.7254 92.7862 23.3555 91.0888 20.4395ZM87.433 9.75489H86.1273V16.1309C86.1273 16.1309 87.4112 16.1744 88.6734 16.1744C90.523 16.1744 91.8722 14.934 91.8722 12.9973C91.8722 10.6689 90.0008 9.75489 87.433 9.75489Z" fill="#0069B3"/>
<path d="M0.832379 0.0568038C0.327907 0.0803087 0 0.315358 0 0.816797V23.2464C0 23.6362 0.27746 23.9887 0.704321 23.9887H40.3675C40.7226 23.9887 41.0097 23.9574 41.1766 23.4814C41.1766 23.4814 45.1968 10.7829 45.2667 10.5557C45.4161 10.0738 45.321 9.83094 44.9136 9.57042C31.9932 1.21442 12.6778 0 3.90772 0C2.64848 0 1.60849 0.0235051 0.834319 0.0568038H0.832379Z" fill="url(#paint2_linear_184_20067)"/>
<path d="M9.03569 14.3929C7.58048 13.6819 6.589 13.3117 6.82766 12.5967C7.109 11.7505 8.57391 11.4313 9.90106 11.4626C10.5724 11.4802 11.0478 11.5664 11.593 11.6918L12.0742 10.162C11.3834 10.0327 10.8887 9.96808 10.0621 9.94653C7.40198 9.88385 4.99603 10.6262 4.38097 12.1932C3.6456 14.0521 5.72364 15.098 7.52228 15.9599C8.9542 16.6435 10.0834 17.2938 9.68763 18.1478C9.37718 18.8079 8.3663 19.1213 6.89557 19.086C5.62274 19.0567 4.03366 18.6864 2.78024 18.0499L2.03711 19.6776C2.9568 20.1085 4.85633 20.6942 6.47647 20.7353C9.51882 20.8019 11.4901 20.0321 12.2779 18.3574C13.2112 16.381 10.8964 15.2978 9.03569 14.3909V14.3929Z" fill="white"/>
<path d="M13.1649 17.1842C13.1804 17.2214 13.2056 17.2331 13.2464 17.2331C13.2871 17.2331 13.3065 17.2214 13.3182 17.1842C13.3356 17.1313 14.8006 12.5478 14.8006 12.5478C16.2946 14.7044 17.7769 17.5426 18.5705 20.5454H21.0075L22.2124 16.7434C22.2241 16.7062 22.2532 16.6964 22.29 16.6964C22.3269 16.6964 22.3599 16.7082 22.3638 16.7434C22.7324 19.1292 25.0821 20.7334 28.4097 20.7334C30.5653 20.7334 32.5095 20.1634 32.9926 19.9009L34.2538 15.8894H39.1025L39.5934 14.3342H34.7466L35.5829 11.7016H41.361L41.8616 10.0896H33.7493L30.9961 18.7805C30.4101 18.9294 29.6883 19.0019 28.9355 19.0019C27.3095 19.0019 26.0076 18.614 25.2703 17.7444C24.7173 17.0901 24.4981 16.2498 24.6339 15.3077C24.9599 13.0688 27.1213 11.6566 30.0123 11.6566C30.6196 11.6566 31.2464 11.6918 31.8071 11.7663L32.3775 10.0759C31.681 9.97011 30.8389 9.9231 30.0123 9.9231C27.4492 9.9231 25.2218 10.8143 23.7782 12.3813C23.7336 12.4303 23.6851 12.4283 23.6579 12.4283C23.6133 12.4283 23.5842 12.4205 23.5958 12.3813L24.3196 10.0915H22.2027L19.888 17.4192C19.1526 15.2587 17.6372 12.4107 15.7843 10.0915H13.5141L11.8164 15.4272C12.6701 16.0618 12.9398 16.528 13.163 17.1861L13.1649 17.1842Z" fill="white"/>
<path d="M0 27.8083H1.01671L2.01789 30.486H2.02953L3.04624 27.8083H4.00085L2.33221 31.8943H1.61819L0 27.8083Z" fill="#642974"/>
<path d="M4.91992 29.8511C4.91992 29.524 4.97425 29.2283 5.08291 28.9619C5.19156 28.6955 5.3429 28.4702 5.53693 28.2841C5.73096 28.0981 5.96185 27.9551 6.22767 27.8532C6.49349 27.7533 6.78647 27.7024 7.10273 27.7024C7.419 27.7024 7.71004 27.7533 7.9778 27.8532C8.24362 27.9531 8.47451 28.0961 8.66854 28.2841C8.86257 28.4702 9.01391 28.6974 9.12256 28.9619C9.23122 29.2283 9.28555 29.524 9.28555 29.8511C9.28555 30.1782 9.23122 30.474 9.12256 30.7404C9.01391 31.0068 8.86257 31.232 8.66854 31.4181C8.47451 31.6042 8.24362 31.7472 7.9778 31.8491C7.71004 31.9489 7.419 31.9999 7.10273 31.9999C6.78647 31.9999 6.49543 31.9489 6.22767 31.8491C5.95991 31.7492 5.73096 31.6062 5.53693 31.4181C5.3429 31.232 5.19156 31.0048 5.08291 30.7404C4.97425 30.476 4.91992 30.1782 4.91992 29.8511ZM5.84543 29.8511C5.84543 30.0431 5.87454 30.2194 5.93469 30.38C5.9929 30.5406 6.07827 30.6777 6.18886 30.7953C6.29946 30.9128 6.4314 31.0048 6.58662 31.0695C6.74184 31.1341 6.91259 31.1674 7.10467 31.1674C7.29676 31.1674 7.46751 31.1341 7.62273 31.0695C7.77795 31.0048 7.90989 30.9128 8.02049 30.7953C8.13108 30.6777 8.21645 30.5387 8.27466 30.38C8.33287 30.2213 8.36392 30.0451 8.36392 29.8511C8.36392 29.6572 8.33481 29.4868 8.27466 29.3262C8.21645 29.1636 8.13108 29.0245 8.02049 28.907C7.90989 28.7895 7.77795 28.6974 7.62273 28.6328C7.46751 28.5682 7.29676 28.5349 7.10467 28.5349C6.91259 28.5349 6.74184 28.5682 6.58662 28.6328C6.4314 28.6974 6.29946 28.7895 6.18886 28.907C6.07827 29.0245 5.9929 29.1636 5.93469 29.3262C5.87648 29.4888 5.84543 29.6631 5.84543 29.8511Z" fill="#642974"/>
<path d="M11.488 30.1527L9.9668 27.8101H11.0766L11.9342 29.3398L12.8423 27.8101H13.8997L12.3786 30.1527V31.896H11.486V30.1527H11.488Z" fill="#642974"/>
<path d="M15.9376 27.8083H16.6749L18.4348 31.8943H17.4278L17.0785 31.0285H15.5069L15.1693 31.8943H14.1855L15.9357 27.8083H15.9376ZM16.281 28.9973L15.7902 30.2666H16.7797L16.283 28.9973H16.281Z" fill="#642974"/>
<path d="M23.2184 31.6062C22.9565 31.7452 22.681 31.8451 22.3958 31.9059C22.1105 31.9666 21.8176 31.9979 21.5207 31.9979C21.2044 31.9979 20.9134 31.947 20.6456 31.8471C20.3779 31.7472 20.1489 31.6042 19.9549 31.4162C19.7609 31.2301 19.6095 31.0029 19.5009 30.7385C19.3922 30.474 19.3379 30.1763 19.3379 29.8492C19.3379 29.5221 19.3922 29.2263 19.5009 28.9599C19.6095 28.6935 19.7609 28.4683 19.9549 28.2822C20.1489 28.0961 20.3798 27.9531 20.6456 27.8513C20.9115 27.7514 21.2044 27.7004 21.5207 27.7004C21.837 27.7004 22.1435 27.7396 22.4152 27.818C22.6868 27.8963 22.9274 28.0315 23.1331 28.2254L22.5044 28.9188C22.3822 28.7915 22.2444 28.6955 22.0931 28.6308C21.9398 28.5662 21.7497 28.5329 21.5207 28.5329C21.3306 28.5329 21.1579 28.5662 21.0026 28.6308C20.8474 28.6955 20.7155 28.7875 20.6049 28.9051C20.4943 29.0226 20.4089 29.1617 20.3507 29.3242C20.2925 29.4868 20.2615 29.6611 20.2615 29.8492C20.2615 30.0372 20.2906 30.2174 20.3507 30.378C20.4089 30.5387 20.4943 30.6758 20.6049 30.7933C20.7155 30.9108 20.8474 31.0029 21.0026 31.0675C21.1579 31.1322 21.3286 31.1655 21.5207 31.1655C21.7128 31.1655 21.8835 31.1439 22.0232 31.0989C22.1649 31.0538 22.2774 31.0088 22.3608 30.9637V30.2997H21.6352V29.4692H23.2184V31.6042V31.6062Z" fill="#642974"/>
<path d="M24.8633 27.8084H27.6127V28.6389H25.7539V29.4008H27.5098V30.2313H25.7539V31.0618H27.7155V31.8923H24.8633V27.8064V27.8084Z" fill="#642974"/>
<path d="M32.5594 30.3195C32.5594 30.5623 32.5226 30.7856 32.4508 30.9893C32.379 31.1931 32.2703 31.3693 32.1287 31.5202C31.9871 31.671 31.8086 31.7885 31.5932 31.8727C31.3798 31.957 31.1333 32.0001 30.8559 32.0001C30.5784 32.0001 30.3262 31.957 30.1128 31.8727C29.8993 31.7885 29.7208 31.671 29.5792 31.5202C29.4375 31.3693 29.3289 31.1931 29.2571 30.9893C29.1853 30.7856 29.1484 30.5623 29.1484 30.3195V27.8083H30.041V30.2842C30.041 30.4115 30.0604 30.529 30.1011 30.6368C30.1419 30.7445 30.1981 30.8385 30.2699 30.9169C30.3417 30.9952 30.429 31.0579 30.5299 31.101C30.6308 31.146 30.7395 31.1676 30.8578 31.1676C30.9762 31.1676 31.0848 31.146 31.1838 31.101C31.2827 31.0559 31.3681 30.9952 31.4418 30.9169C31.5136 30.8385 31.5699 30.7445 31.6107 30.6368C31.6514 30.529 31.6708 30.4115 31.6708 30.2842V27.8083H32.5633V30.3195H32.5594Z" fill="#642974"/>
<path d="M34.0957 27.8083H35.6615C35.8672 27.8083 36.0631 27.8279 36.2474 27.8691C36.4318 27.9102 36.5948 27.9768 36.7325 28.0708C36.8722 28.1648 36.9828 28.2922 37.0643 28.4508C37.1458 28.6095 37.1865 28.8093 37.1865 29.0482C37.1865 29.3362 37.1128 29.583 36.9634 29.7847C36.814 29.9865 36.5986 30.1138 36.3115 30.1686L37.3398 31.8943H36.2707L35.4248 30.2607H34.9843V31.8943H34.0918V27.8083H34.0957ZM34.9882 29.4987H35.514C35.5936 29.4987 35.6789 29.4968 35.7682 29.4909C35.8574 29.485 35.9389 29.4674 36.0107 29.438C36.0825 29.4086 36.1427 29.3636 36.1912 29.3029C36.2377 29.2421 36.263 29.154 36.263 29.0424C36.263 28.9385 36.2416 28.8563 36.2009 28.7936C36.1601 28.7309 36.1058 28.6859 36.0418 28.6526C35.9777 28.6193 35.9021 28.5977 35.8186 28.586C35.7352 28.5742 35.6537 28.5683 35.5722 28.5683H34.9882V29.4968V29.4987Z" fill="#642974"/>
<path d="M40.518 28.8071C40.4462 28.7151 40.3472 28.6465 40.223 28.6015C40.0989 28.5564 39.9824 28.5349 39.8718 28.5349C39.8078 28.5349 39.7399 28.5427 39.672 28.5584C39.6041 28.574 39.5381 28.5975 39.478 28.6308C39.4178 28.6641 39.3674 28.7072 39.3286 28.7601C39.2898 28.815 39.2723 28.8796 39.2723 28.956C39.2723 29.0794 39.3189 29.1734 39.4101 29.2381C39.5012 29.3027 39.6177 29.3595 39.7554 29.4045C39.8932 29.4496 40.0445 29.4966 40.2036 29.5436C40.3647 29.5906 40.5141 29.6553 40.6518 29.7395C40.7896 29.8237 40.906 29.9373 40.9972 30.0803C41.0884 30.2233 41.135 30.4133 41.135 30.6523C41.135 30.8912 41.0923 31.0773 41.0088 31.2458C40.9254 31.4142 40.8109 31.5552 40.6693 31.6669C40.5257 31.7785 40.3608 31.8608 40.1726 31.9157C39.9844 31.9685 39.7845 31.996 39.575 31.996C39.313 31.996 39.0686 31.9548 38.8435 31.8745C38.6184 31.7942 38.4089 31.663 38.2148 31.4828L38.8493 30.7796C38.9405 30.903 39.0569 30.997 39.1947 31.0656C39.3324 31.1341 39.478 31.1674 39.6254 31.1674C39.6972 31.1674 39.7709 31.1596 39.8447 31.1419C39.9184 31.1243 39.9863 31.0989 40.0445 31.0636C40.1027 31.0283 40.1512 30.9852 40.1881 30.9304C40.225 30.8756 40.2424 30.8129 40.2424 30.7404C40.2424 30.617 40.1959 30.521 40.1027 30.4486C40.0096 30.378 39.8912 30.3173 39.7515 30.2664C39.6099 30.2155 39.4586 30.1665 39.2936 30.1156C39.1307 30.0666 38.9774 29.998 38.8357 29.9138C38.6941 29.8296 38.5777 29.7179 38.4845 29.5789C38.3914 29.4398 38.3448 29.2576 38.3448 29.0304C38.3448 28.8032 38.3875 28.6191 38.4729 28.4526C38.5583 28.2861 38.6728 28.149 38.8163 28.0373C38.9599 27.9257 39.1248 27.8415 39.3111 27.7866C39.4974 27.7318 39.6895 27.7024 39.8893 27.7024C40.1183 27.7024 40.3394 27.7357 40.5529 27.8003C40.7663 27.865 40.9584 27.9747 41.1311 28.1294L40.5199 28.8052L40.518 28.8071Z" fill="#642974"/>
<path d="M52.3342 3.96362H52.3324C52.1488 3.96362 52 4.12068 52 4.31442V27.3488C52 27.5425 52.1488 27.6996 52.3324 27.6996H52.3342C52.5178 27.6996 52.6667 27.5425 52.6667 27.3488V4.31442C52.6667 4.12068 52.5178 3.96362 52.3342 3.96362Z" fill="#E0E0E0"/>
<defs>
<linearGradient id="paint0_linear_184_20067" x1="102.496" y1="14.8518" x2="144.841" y2="17.4414" gradientUnits="userSpaceOnUse">
<stop stop-color="#0069B3"/>
<stop offset="0.07" stop-color="#0074BB"/>
<stop offset="0.39" stop-color="#03A6DF"/>
<stop offset="0.55" stop-color="#05BAEE"/>
<stop offset="0.67" stop-color="#04AAE2"/>
<stop offset="0.88" stop-color="#0182C5"/>
<stop offset="1" stop-color="#0069B3"/>
</linearGradient>
<radialGradient id="paint1_radial_184_20067" cx="0" cy="0" r="1" gradientUnits="userSpaceOnUse" gradientTransform="translate(98.447 15.6978) rotate(-112.18) scale(16.7081 1.33665)">
<stop stop-color="#093E62"/>
<stop offset="1" stop-color="white" stop-opacity="0"/>
</radialGradient>
<linearGradient id="paint2_linear_184_20067" x1="0.00194028" y1="11.9934" x2="45.2725" y2="11.9934" gradientUnits="userSpaceOnUse">
<stop stop-color="#782A63"/>
<stop offset="0.25" stop-color="#A12771"/>
<stop offset="0.81" stop-color="#C93026"/>
<stop offset="1" stop-color="#C93026"/>
</linearGradient>
</defs>
</svg>
