<svg width="185" height="32" viewBox="0 0 185 32" fill="none" xmlns="http://www.w3.org/2000/svg">
<path d="M0.832379 0.0568038C0.327907 0.0803087 0 0.315358 0 0.816797V23.2464C0 23.6362 0.27746 23.9887 0.704321 23.9887H40.3675C40.7226 23.9887 41.0097 23.9574 41.1766 23.4814C41.1766 23.4814 45.1968 10.7829 45.2667 10.5557C45.4161 10.0738 45.321 9.83094 44.9136 9.57042C31.9932 1.21442 12.6778 0 3.90772 0C2.64848 0 1.60849 0.0235051 0.834319 0.0568038H0.832379Z" fill="url(#paint0_linear_184_20347)"/>
<path d="M9.03374 14.3929C7.57853 13.6819 6.58705 13.3117 6.8257 12.5967C7.10704 11.7505 8.57195 11.4313 9.8991 11.4626C10.5704 11.4802 11.0458 11.5664 11.591 11.6918L12.0722 10.162C11.3815 10.0327 10.8867 9.96808 10.0601 9.94653C7.40002 9.88385 4.99408 10.6262 4.37901 12.1932C3.64365 14.0521 5.72169 15.098 7.52032 15.9599C8.95225 16.6435 10.0815 17.2938 9.68567 18.1478C9.37523 18.8079 8.36434 19.1213 6.89361 19.086C5.62079 19.0567 4.0317 18.6864 2.77828 18.0499L2.03516 19.6776C2.95485 20.1085 4.85438 20.6942 6.47451 20.7353C9.51687 20.8019 11.4882 20.0321 12.2759 18.3574C13.2092 16.381 10.8945 15.2978 9.03374 14.3909V14.3929Z" fill="white"/>
<path d="M13.1649 17.1842C13.1804 17.2214 13.2056 17.2331 13.2464 17.2331C13.2871 17.2331 13.3065 17.2214 13.3182 17.1842C13.3356 17.1313 14.8006 12.5478 14.8006 12.5478C16.2946 14.7044 17.7769 17.5426 18.5705 20.5454H21.0075L22.2124 16.7434C22.2241 16.7062 22.2532 16.6964 22.29 16.6964C22.3269 16.6964 22.3599 16.7082 22.3638 16.7434C22.7324 19.1292 25.0821 20.7334 28.4097 20.7334C30.5653 20.7334 32.5095 20.1634 32.9926 19.9009L34.2538 15.8894H39.1025L39.5934 14.3342H34.7466L35.5829 11.7016H41.361L41.8616 10.0896H33.7493L30.9961 18.7805C30.4101 18.9294 29.6883 19.0019 28.9355 19.0019C27.3095 19.0019 26.0076 18.614 25.2703 17.7444C24.7173 17.0901 24.4981 16.2498 24.6339 15.3077C24.9599 13.0688 27.1213 11.6566 30.0123 11.6566C30.6196 11.6566 31.2464 11.6918 31.8071 11.7663L32.3775 10.0759C31.681 9.97011 30.8389 9.9231 30.0123 9.9231C27.4492 9.9231 25.2218 10.8143 23.7782 12.3813C23.7336 12.4303 23.6851 12.4283 23.6579 12.4283C23.6133 12.4283 23.5842 12.4205 23.5958 12.3813L24.3196 10.0915H22.2027L19.888 17.4192C19.1526 15.2587 17.6372 12.4107 15.7843 10.0915H13.5141L11.8164 15.4272C12.6701 16.0618 12.9398 16.528 13.163 17.1861L13.1649 17.1842Z" fill="white"/>
<path d="M0 27.8079H1.01671L2.01789 30.4855H2.02953L3.04624 27.8079H4.00085L2.33221 31.8938H1.61819L0 27.8079Z" fill="#642974"/>
<path d="M4.91992 29.8511C4.91992 29.524 4.97425 29.2283 5.08291 28.9619C5.19156 28.6955 5.3429 28.4702 5.53693 28.2841C5.73096 28.0981 5.96185 27.9551 6.22767 27.8532C6.49349 27.7533 6.78647 27.7024 7.10273 27.7024C7.419 27.7024 7.71004 27.7533 7.9778 27.8532C8.24362 27.9531 8.47451 28.0961 8.66854 28.2841C8.86257 28.4702 9.01391 28.6974 9.12256 28.9619C9.23122 29.2283 9.28555 29.524 9.28555 29.8511C9.28555 30.1782 9.23122 30.474 9.12256 30.7404C9.01391 31.0068 8.86257 31.232 8.66854 31.4181C8.47451 31.6042 8.24362 31.7472 7.9778 31.8491C7.71004 31.9489 7.419 31.9999 7.10273 31.9999C6.78647 31.9999 6.49543 31.9489 6.22767 31.8491C5.95991 31.7492 5.73096 31.6062 5.53693 31.4181C5.3429 31.232 5.19156 31.0048 5.08291 30.7404C4.97425 30.476 4.91992 30.1782 4.91992 29.8511ZM5.84543 29.8511C5.84543 30.0431 5.87454 30.2194 5.93469 30.38C5.9929 30.5406 6.07827 30.6777 6.18886 30.7953C6.29946 30.9128 6.4314 31.0048 6.58662 31.0695C6.74184 31.1341 6.91259 31.1674 7.10467 31.1674C7.29676 31.1674 7.46751 31.1341 7.62273 31.0695C7.77795 31.0048 7.90989 30.9128 8.02049 30.7953C8.13108 30.6777 8.21645 30.5387 8.27466 30.38C8.33287 30.2213 8.36392 30.0451 8.36392 29.8511C8.36392 29.6572 8.33481 29.4868 8.27466 29.3262C8.21645 29.1636 8.13108 29.0245 8.02049 28.907C7.90989 28.7895 7.77795 28.6974 7.62273 28.6328C7.46751 28.5682 7.29676 28.5349 7.10467 28.5349C6.91259 28.5349 6.74184 28.5682 6.58662 28.6328C6.4314 28.6974 6.29946 28.7895 6.18886 28.907C6.07827 29.0245 5.9929 29.1636 5.93469 29.3262C5.87648 29.4888 5.84543 29.6631 5.84543 29.8511Z" fill="#642974"/>
<path d="M11.486 30.1527L9.96484 27.8101H11.0747L11.9323 29.3398L12.8403 27.8101H13.8978L12.3766 30.1527V31.896H11.4841V30.1527H11.486Z" fill="#642974"/>
<path d="M15.9357 27.8079H16.673L18.4328 31.8938H17.4258L17.0765 31.028H15.5049L15.1673 31.8938H14.1836L15.9337 27.8079H15.9357ZM16.2791 28.9968L15.7882 30.2661H16.7777L16.281 28.9968H16.2791Z" fill="#642974"/>
<path d="M23.2184 31.6062C22.9565 31.7452 22.681 31.8451 22.3958 31.9059C22.1105 31.9666 21.8176 31.9979 21.5207 31.9979C21.2044 31.9979 20.9134 31.947 20.6456 31.8471C20.3779 31.7472 20.1489 31.6042 19.9549 31.4162C19.7609 31.2301 19.6095 31.0029 19.5009 30.7385C19.3922 30.474 19.3379 30.1763 19.3379 29.8492C19.3379 29.5221 19.3922 29.2263 19.5009 28.9599C19.6095 28.6935 19.7609 28.4683 19.9549 28.2822C20.1489 28.0961 20.3798 27.9531 20.6456 27.8513C20.9115 27.7514 21.2044 27.7004 21.5207 27.7004C21.837 27.7004 22.1435 27.7396 22.4152 27.818C22.6868 27.8963 22.9274 28.0315 23.1331 28.2254L22.5044 28.9188C22.3822 28.7915 22.2444 28.6955 22.0931 28.6308C21.9398 28.5662 21.7497 28.5329 21.5207 28.5329C21.3306 28.5329 21.1579 28.5662 21.0026 28.6308C20.8474 28.6955 20.7155 28.7875 20.6049 28.9051C20.4943 29.0226 20.4089 29.1617 20.3507 29.3242C20.2925 29.4868 20.2615 29.6611 20.2615 29.8492C20.2615 30.0372 20.2906 30.2174 20.3507 30.378C20.4089 30.5387 20.4943 30.6758 20.6049 30.7933C20.7155 30.9108 20.8474 31.0029 21.0026 31.0675C21.1579 31.1322 21.3286 31.1655 21.5207 31.1655C21.7128 31.1655 21.8835 31.1439 22.0232 31.0989C22.1649 31.0538 22.2774 31.0088 22.3608 30.9637V30.2997H21.6352V29.4692H23.2184V31.6042V31.6062Z" fill="#642974"/>
<path d="M24.8633 27.8084H27.6127V28.6389H25.7539V29.4008H27.5098V30.2313H25.7539V31.0618H27.7155V31.8923H24.8633V27.8064V27.8084Z" fill="#642974"/>
<path d="M32.5594 30.319C32.5594 30.5619 32.5226 30.7852 32.4508 30.9889C32.379 31.1926 32.2703 31.3689 32.1287 31.5197C31.9871 31.6705 31.8086 31.788 31.5932 31.8723C31.3798 31.9565 31.1333 31.9996 30.8559 31.9996C30.5784 31.9996 30.3262 31.9565 30.1128 31.8723C29.8993 31.788 29.7208 31.6705 29.5792 31.5197C29.4375 31.3689 29.3289 31.1926 29.2571 30.9889C29.1853 30.7852 29.1484 30.5619 29.1484 30.319V27.8079H30.041V30.2837C30.041 30.411 30.0604 30.5286 30.1011 30.6363C30.1419 30.744 30.1981 30.838 30.2699 30.9164C30.3417 30.9947 30.429 31.0574 30.5299 31.1005C30.6308 31.1456 30.7395 31.1671 30.8578 31.1671C30.9762 31.1671 31.0848 31.1456 31.1838 31.1005C31.2827 31.0555 31.3681 30.9947 31.4418 30.9164C31.5136 30.838 31.5699 30.744 31.6107 30.6363C31.6514 30.5286 31.6708 30.411 31.6708 30.2837V27.8079H32.5633V30.319H32.5594Z" fill="#642974"/>
<path d="M34.0957 27.8079H35.6615C35.8672 27.8079 36.0631 27.8274 36.2474 27.8686C36.4318 27.9097 36.5948 27.9763 36.7325 28.0703C36.8722 28.1644 36.9828 28.2917 37.0643 28.4503C37.1458 28.609 37.1865 28.8088 37.1865 29.0477C37.1865 29.3357 37.1128 29.5825 36.9634 29.7842C36.814 29.986 36.5986 30.1133 36.3115 30.1681L37.3398 31.8938H36.2707L35.4248 30.2602H34.9843V31.8938H34.0918V27.8079H34.0957ZM34.9882 29.4983H35.514C35.5936 29.4983 35.6789 29.4963 35.7682 29.4904C35.8574 29.4845 35.9389 29.4669 36.0107 29.4375C36.0825 29.4082 36.1427 29.3631 36.1912 29.3024C36.2377 29.2417 36.263 29.1535 36.263 29.0419C36.263 28.9381 36.2416 28.8558 36.2009 28.7931C36.1601 28.7304 36.1058 28.6854 36.0418 28.6521C35.9777 28.6188 35.9021 28.5972 35.8186 28.5855C35.7352 28.5737 35.6537 28.5679 35.5722 28.5679H34.9882V29.4963V29.4983Z" fill="#642974"/>
<path d="M40.518 28.8071C40.4462 28.7151 40.3472 28.6465 40.223 28.6015C40.0989 28.5564 39.9824 28.5349 39.8718 28.5349C39.8078 28.5349 39.7399 28.5427 39.672 28.5584C39.6041 28.574 39.5381 28.5975 39.478 28.6308C39.4178 28.6641 39.3674 28.7072 39.3286 28.7601C39.2898 28.815 39.2723 28.8796 39.2723 28.956C39.2723 29.0794 39.3189 29.1734 39.4101 29.2381C39.5012 29.3027 39.6177 29.3595 39.7554 29.4045C39.8932 29.4496 40.0445 29.4966 40.2036 29.5436C40.3647 29.5906 40.5141 29.6553 40.6518 29.7395C40.7896 29.8237 40.906 29.9373 40.9972 30.0803C41.0884 30.2233 41.135 30.4133 41.135 30.6523C41.135 30.8912 41.0923 31.0773 41.0088 31.2458C40.9254 31.4142 40.8109 31.5552 40.6693 31.6669C40.5257 31.7785 40.3608 31.8608 40.1726 31.9157C39.9844 31.9685 39.7845 31.996 39.575 31.996C39.313 31.996 39.0686 31.9548 38.8435 31.8745C38.6184 31.7942 38.4089 31.663 38.2148 31.4828L38.8493 30.7796C38.9405 30.903 39.0569 30.997 39.1947 31.0656C39.3324 31.1341 39.478 31.1674 39.6254 31.1674C39.6972 31.1674 39.7709 31.1596 39.8447 31.1419C39.9184 31.1243 39.9863 31.0989 40.0445 31.0636C40.1027 31.0283 40.1512 30.9852 40.1881 30.9304C40.225 30.8756 40.2424 30.8129 40.2424 30.7404C40.2424 30.617 40.1959 30.521 40.1027 30.4486C40.0096 30.378 39.8912 30.3173 39.7515 30.2664C39.6099 30.2155 39.4586 30.1665 39.2936 30.1156C39.1307 30.0666 38.9774 29.998 38.8357 29.9138C38.6941 29.8296 38.5777 29.7179 38.4845 29.5789C38.3914 29.4398 38.3448 29.2576 38.3448 29.0304C38.3448 28.8032 38.3875 28.6191 38.4729 28.4526C38.5583 28.2861 38.6728 28.149 38.8163 28.0373C38.9599 27.9257 39.1248 27.8415 39.3111 27.7866C39.4974 27.7318 39.6895 27.7024 39.8893 27.7024C40.1183 27.7024 40.3394 27.7357 40.5529 27.8003C40.7663 27.865 40.9584 27.9747 41.1311 28.1294L40.5199 28.8052L40.518 28.8071Z" fill="#642974"/>
<path d="M52.3342 3.96362H52.3324C52.1488 3.96362 52 4.12068 52 4.31442V27.3488C52 27.5425 52.1488 27.6996 52.3324 27.6996H52.3342C52.5178 27.6996 52.6667 27.5425 52.6667 27.3488V4.31442C52.6667 4.12068 52.5178 3.96362 52.3342 3.96362Z" fill="#E0E0E0"/>
<g clip-path="url(#clip0_184_20347)">
<path d="M61.5421 25.6776H64.5959L63.074 22.0704L61.5421 25.6776ZM60.4977 28.1213H59.6621L62.7258 21.2558H63.4221L66.4858 28.1213H65.6503L64.8744 26.3176H61.2735L60.4977 28.1213ZM72.4695 25.5613C72.4695 25.8457 72.433 26.1496 72.3601 26.4728C72.2937 26.7896 72.1644 27.0837 71.9721 27.3552C71.7798 27.6267 71.5146 27.8529 71.1764 28.034C70.8447 28.2085 70.417 28.2958 69.8932 28.2958C69.3626 28.2958 68.9316 28.2085 68.6 28.034C68.2685 27.8529 68.0065 27.6267 67.8142 27.3552C67.6219 27.0837 67.4893 26.7896 67.4163 26.4728C67.35 26.1496 67.3169 25.8457 67.3169 25.5613V21.2558H68.0331V25.4837C68.0331 25.8134 68.0662 26.0978 68.1325 26.337C68.1988 26.5697 68.285 26.7669 68.3911 26.9285C68.5039 27.0902 68.6265 27.2194 68.7592 27.3164C68.8985 27.4069 69.0344 27.4781 69.1671 27.5297C69.3063 27.5814 69.4389 27.617 69.5649 27.6364C69.6909 27.6493 69.8003 27.6558 69.8932 27.6558C69.9793 27.6558 70.0855 27.6493 70.2115 27.6364C70.3441 27.617 70.4767 27.5814 70.6094 27.5297C70.7486 27.4781 70.8845 27.4069 71.0172 27.3164C71.1565 27.2194 71.2791 27.0902 71.3853 26.9285C71.498 26.7669 71.5875 26.5697 71.6538 26.337C71.7201 26.0978 71.7533 25.8134 71.7533 25.4837V21.2558H72.4695V25.5613ZM76.3045 27.074H76.3244L78.6321 21.2558H79.408L76.6626 28.1213H75.9464L73.2706 21.2558H74.0664L76.3045 27.074ZM81.0525 27.4813H84.8225V28.1213H80.3363V21.2558H84.7031V21.8958H81.0525V24.2328H84.4644V24.8728H81.0525V27.4813ZM86.949 24.291H88.2222C88.5405 24.291 88.8091 24.2587 89.0279 24.194C89.2533 24.1293 89.4324 24.0453 89.565 23.9419C89.6976 23.832 89.7938 23.7059 89.8535 23.5637C89.9132 23.415 89.943 23.2566 89.943 23.0885C89.943 22.9269 89.9132 22.775 89.8535 22.6328C89.7938 22.4841 89.6976 22.3548 89.565 22.2449C89.4324 22.135 89.2533 22.051 89.0279 21.9928C88.8091 21.9281 88.5405 21.8958 88.2222 21.8958H86.949V24.291ZM86.949 28.1213H86.2328V21.2558H88.4012C89.1174 21.2558 89.681 21.4078 90.0922 21.7116C90.51 22.0154 90.7189 22.4744 90.7189 23.0885C90.7189 23.5669 90.563 23.971 90.2514 24.3007C89.9463 24.6239 89.502 24.8114 88.9185 24.8631L90.9477 28.1213H90.0724L88.1426 24.931H86.949V28.1213ZM97.3314 22.5164C97.0927 22.2708 96.8075 22.0769 96.476 21.9346C96.1445 21.7923 95.7598 21.7213 95.3221 21.7213C94.8712 21.7213 94.4667 21.802 94.1086 21.9637C93.7505 22.1253 93.4454 22.3419 93.1935 22.6134C92.9481 22.8849 92.7591 23.2017 92.6265 23.5637C92.4939 23.9193 92.4275 24.2942 92.4275 24.6885C92.4275 25.0829 92.4939 25.4611 92.6265 25.8231C92.7591 26.1787 92.9481 26.4922 93.1935 26.7637C93.4454 27.0352 93.7505 27.2517 94.1086 27.4134C94.4667 27.575 94.8712 27.6558 95.3221 27.6558C95.6869 27.6558 96.035 27.6138 96.3666 27.5297C96.7048 27.4393 97.0065 27.3196 97.2718 27.171V24.8728H95.5907V24.2328H97.9879V27.5976C97.5901 27.8239 97.1524 27.9984 96.6749 28.1213C96.2041 28.2376 95.7531 28.2958 95.3221 28.2958C94.7982 28.2958 94.3108 28.2053 93.8599 28.0243C93.4156 27.8432 93.0276 27.5944 92.6961 27.2776C92.3711 26.9544 92.1159 26.5729 91.9302 26.1334C91.7445 25.6938 91.6516 25.2122 91.6516 24.6885C91.6516 24.1649 91.7445 23.6832 91.9302 23.2437C92.1159 22.8041 92.3711 22.4259 92.6961 22.1091C93.0276 21.7859 93.4156 21.5338 93.8599 21.3528C94.3108 21.1717 94.7982 21.0813 95.3221 21.0813C95.8858 21.0813 96.3699 21.1588 96.7744 21.314C97.1855 21.4626 97.5503 21.6922 97.8686 22.0025L97.3314 22.5164ZM104.964 27.074H104.984V21.2558H105.7V28.1213H104.805L100.607 22.2449H100.587V28.1213H99.8711V21.2558H100.766L104.964 27.074ZM108.329 27.4813H112.099V28.1213H107.613V21.2558H111.98V21.8958H108.329V24.2328H111.741V24.8728H108.329V27.4813ZM115.489 26.114H112.933V25.474H115.489V26.114ZM117.538 24.291H118.811C119.13 24.291 119.398 24.2587 119.617 24.194C119.843 24.1293 120.022 24.0453 120.154 23.9419C120.287 23.832 120.383 23.7059 120.443 23.5637C120.502 23.415 120.532 23.2566 120.532 23.0885C120.532 22.9269 120.502 22.775 120.443 22.6328C120.383 22.4841 120.287 22.3548 120.154 22.2449C120.022 22.135 119.843 22.051 119.617 21.9928C119.398 21.9281 119.13 21.8958 118.811 21.8958H117.538V24.291ZM117.538 28.1213H116.822V21.2558H118.99C119.707 21.2558 120.27 21.4078 120.681 21.7116C121.099 22.0154 121.308 22.4744 121.308 23.0885C121.308 23.5669 121.152 23.971 120.841 24.3007C120.536 24.6239 120.091 24.8114 119.508 24.8631L121.537 28.1213H120.662L118.732 24.931H117.538V28.1213ZM122.718 21.2558H123.434V24.2328H127.274V21.2558H127.99V28.1213H127.274V24.8728H123.434V28.1213H122.718V21.2558ZM135.985 24.6885C135.985 24.2942 135.918 23.9193 135.786 23.5637C135.653 23.2017 135.461 22.8849 135.209 22.6134C134.963 22.3419 134.662 22.1253 134.303 21.9637C133.945 21.802 133.541 21.7213 133.09 21.7213C132.639 21.7213 132.234 21.802 131.876 21.9637C131.518 22.1253 131.213 22.3419 130.961 22.6134C130.716 22.8849 130.527 23.2017 130.394 23.5637C130.262 23.9193 130.195 24.2942 130.195 24.6885C130.195 25.0829 130.262 25.4611 130.394 25.8231C130.527 26.1787 130.716 26.4922 130.961 26.7637C131.213 27.0352 131.518 27.2517 131.876 27.4134C132.234 27.575 132.639 27.6558 133.09 27.6558C133.541 27.6558 133.945 27.575 134.303 27.4134C134.662 27.2517 134.963 27.0352 135.209 26.7637C135.461 26.4922 135.653 26.1787 135.786 25.8231C135.918 25.4611 135.985 25.0829 135.985 24.6885ZM136.76 24.6885C136.76 25.2122 136.668 25.6938 136.482 26.1334C136.296 26.5729 136.038 26.9544 135.706 27.2776C135.381 27.5944 134.993 27.8432 134.542 28.0243C134.098 28.2053 133.614 28.2958 133.09 28.2958C132.566 28.2958 132.079 28.2053 131.628 28.0243C131.183 27.8432 130.796 27.5944 130.464 27.2776C130.139 26.9544 129.884 26.5729 129.698 26.1334C129.512 25.6938 129.419 25.2122 129.419 24.6885C129.419 24.1649 129.512 23.6832 129.698 23.2437C129.884 22.8041 130.139 22.4259 130.464 22.1091C130.796 21.7859 131.183 21.5338 131.628 21.3528C132.079 21.1717 132.566 21.0813 133.09 21.0813C133.614 21.0813 134.098 21.1717 134.542 21.3528C134.993 21.5338 135.381 21.7859 135.706 22.1091C136.038 22.4259 136.296 22.8041 136.482 23.2437C136.668 23.6832 136.76 24.1649 136.76 24.6885ZM134.572 20.9552H133.916L133.09 19.9079L132.264 20.9552H131.608L132.692 19.5588H133.488L134.572 20.9552ZM143.286 27.074H143.305V21.2558H144.022V28.1213H143.126L138.929 22.2449H138.909V28.1213H138.193V21.2558H139.088L143.286 27.074ZM146.651 27.4813H150.421V28.1213H145.935V21.2558H150.301V21.8958H146.651V24.2328H150.063V24.8728H146.651V27.4813ZM153.811 26.114H151.254V25.474H153.811V26.114ZM156.069 25.6776H159.122L157.6 22.0704L156.069 25.6776ZM155.024 28.1213H154.189L157.252 21.2558H157.949L161.012 28.1213H160.176L159.401 26.3176H155.8L155.024 28.1213ZM162.679 27.4813H165.962V28.1213H161.963V21.2558H162.679V27.4813ZM167.653 24.291H168.807C169.125 24.291 169.393 24.2587 169.612 24.194C169.837 24.1293 170.016 24.0453 170.149 23.9419C170.282 23.832 170.378 23.7059 170.438 23.5637C170.498 23.415 170.527 23.2566 170.527 23.0885C170.527 22.9269 170.498 22.775 170.438 22.6328C170.378 22.4841 170.282 22.3548 170.149 22.2449C170.016 22.135 169.837 22.051 169.612 21.9928C169.393 21.9281 169.125 21.8958 168.807 21.8958H167.653V24.291ZM166.936 21.2558H168.986C169.702 21.2558 170.265 21.4078 170.677 21.7116C171.094 22.0154 171.303 22.4744 171.303 23.0885C171.303 23.7026 171.094 24.1649 170.677 24.4752C170.265 24.779 169.702 24.931 168.986 24.931H167.653V28.1213H166.936V21.2558ZM173.364 27.4813H177.134V28.1213H172.648V21.2558H177.015V21.8958H173.364V24.2328H176.776V24.8728H173.364V27.4813ZM181.877 22.3904C181.565 21.9443 181.111 21.7213 180.514 21.7213C180.328 21.7213 180.146 21.7472 179.967 21.7988C179.788 21.8441 179.625 21.9184 179.48 22.0219C179.341 22.1188 179.227 22.2481 179.142 22.4097C179.055 22.5649 179.012 22.7491 179.012 22.9625C179.012 23.2728 179.102 23.5152 179.281 23.6897C179.46 23.8578 179.682 23.9969 179.947 24.1067C180.212 24.2166 180.5 24.3168 180.813 24.4073C181.131 24.4914 181.422 24.6078 181.688 24.7564C181.953 24.8987 182.175 25.0893 182.354 25.3285C182.534 25.5678 182.623 25.8942 182.623 26.3079C182.623 26.6182 182.553 26.8994 182.414 27.1516C182.281 27.3972 182.102 27.6041 181.877 27.7722C181.658 27.9402 181.41 28.0696 181.131 28.16C180.858 28.2505 180.584 28.2958 180.305 28.2958C179.874 28.2958 179.463 28.2182 179.072 28.0631C178.687 27.9014 178.359 27.6396 178.087 27.2776L178.734 26.8219C178.886 27.074 179.098 27.2776 179.37 27.4328C179.642 27.5814 179.963 27.6558 180.335 27.6558C180.514 27.6558 180.693 27.6299 180.872 27.5782C181.051 27.52 181.211 27.4393 181.35 27.3358C181.495 27.2259 181.614 27.0934 181.708 26.9382C181.8 26.7831 181.847 26.6053 181.847 26.4049C181.847 26.1657 181.793 25.9685 181.688 25.8134C181.589 25.6517 181.452 25.5193 181.28 25.4158C181.114 25.3059 180.922 25.2154 180.703 25.1443C180.49 25.0732 180.269 25.002 180.037 24.931C179.811 24.8599 179.589 24.779 179.37 24.6885C179.157 24.5981 178.966 24.4849 178.793 24.3491C178.627 24.2069 178.491 24.0323 178.386 23.8255C178.286 23.6122 178.236 23.3472 178.236 23.0304C178.236 22.7007 178.299 22.4129 178.425 22.1673C178.558 21.9217 178.73 21.7181 178.943 21.5564C179.161 21.3948 179.406 21.2752 179.679 21.1976C179.95 21.1201 180.229 21.0813 180.514 21.0813C180.912 21.0813 181.273 21.1426 181.598 21.2655C181.923 21.3884 182.225 21.6049 182.504 21.9152L181.877 22.3904Z" fill="#333333"/>
<path d="M61.9942 6.67161H58.7793V4.53052H67.6919V6.67161H64.477V15.5152H61.9942V6.67161ZM69.0482 4.53052H76.7035V6.7647H71.531V8.8127H76.417V11.0469H71.531V13.2811H76.9899V15.5152H69.0482V4.53052ZM78.9775 4.53052H83.3383C83.9112 4.53052 84.4523 4.58741 84.9616 4.70118C85.4816 4.80462 85.9325 4.98563 86.3144 5.24421C86.707 5.49246 87.0147 5.83379 87.2375 6.26821C87.471 6.69229 87.5877 7.22499 87.5877 7.86628C87.5877 8.64203 87.3808 9.30402 86.967 9.85221C86.5532 10.3901 85.9484 10.7314 85.1526 10.8762L88.0174 15.5152H85.0412L82.6857 11.1245H81.4603V15.5152H78.9775V4.53052ZM81.4603 9.07646H82.9245C83.1473 9.07646 83.3807 9.07129 83.6247 9.06094C83.8794 9.04026 84.1076 8.99371 84.3091 8.92131C84.5107 8.83856 84.6752 8.71444 84.8025 8.54894C84.9404 8.38344 85.0094 8.15072 85.0094 7.85076C85.0094 7.57149 84.9511 7.34911 84.8343 7.18361C84.7176 7.01811 84.5691 6.89399 84.3887 6.81125C84.2083 6.71815 84.0014 6.65609 83.768 6.62506C83.5346 6.59403 83.3064 6.57852 83.0836 6.57852H81.4603V9.07646Z" fill="#333333"/>
</g>
<defs>
<linearGradient id="paint0_linear_184_20347" x1="0.00194028" y1="11.9934" x2="45.2725" y2="11.9934" gradientUnits="userSpaceOnUse">
<stop stop-color="#782A63"/>
<stop offset="0.25" stop-color="#A12771"/>
<stop offset="0.81" stop-color="#C93026"/>
<stop offset="1" stop-color="#C93026"/>
</linearGradient>
<clipPath id="clip0_184_20347">
<rect width="125.333" height="32" fill="white" transform="translate(58.668)"/>
</clipPath>
</defs>
</svg>
