<svg width="134" height="32" viewBox="0 0 134 32" fill="none" xmlns="http://www.w3.org/2000/svg">
<g clip-path="url(#clip0_16694_7172)">
<g clip-path="url(#clip1_16694_7172)">
<path d="M28.5386 10.8466C25.6126 10.8466 23.2308 13.2072 23.2308 16.1075C23.2308 19.0078 25.6114 21.3684 28.5386 21.3684C31.4657 21.3684 33.8439 19.0078 33.8439 16.1075C33.8439 13.2072 31.4633 10.8466 28.5386 10.8466ZM28.5386 23.7695C24.2784 23.7695 20.8118 20.3331 20.8118 16.1086C20.8118 11.8842 24.2784 8.44775 28.5386 8.44775C32.7987 8.44775 36.2641 11.8842 36.2641 16.1086C36.2641 20.3331 32.7987 23.7695 28.5386 23.7695Z" fill="#0E2149"/>
<path d="M13.4992 23.6704C12.8309 23.6704 12.2891 23.1331 12.2891 22.4704V9.74443C12.2891 9.08175 12.8309 8.54443 13.4992 8.54443C14.1675 8.54443 14.7093 9.08175 14.7093 9.74443V22.4704C14.7093 23.1331 14.1675 23.6704 13.4992 23.6704Z" fill="#0E2149"/>
<path d="M17.7463 23.6704C17.078 23.6704 16.5361 23.1331 16.5361 22.4704V13.1868C16.5361 12.5241 17.078 11.9868 17.7463 11.9868C18.4145 11.9868 18.9564 12.5241 18.9564 13.1868V22.4704C18.9564 23.1331 18.4145 23.6704 17.7463 23.6704Z" fill="#0E2149"/>
<path d="M19.0538 9.83993C19.0538 10.5563 18.4686 11.1366 17.7461 11.1366C17.0237 11.1366 16.4385 10.5563 16.4385 9.83993C16.4385 9.12351 17.0237 8.54321 17.7461 8.54321C18.4686 8.54321 19.0538 9.12351 19.0538 9.83993Z" fill="#D90001"/>
<path d="M7.94116 22.3736C7.94116 21.6572 8.52636 21.0769 9.24883 21.0769C9.97129 21.0769 10.5565 21.6572 10.5565 22.3736C10.5565 23.09 9.97129 23.6703 9.24883 23.6703C8.52636 23.6703 7.94116 23.09 7.94116 22.3736Z" fill="#FFE501"/>
<path d="M67.7951 30.9242C75.6242 30.1362 81.7351 23.5786 81.7351 15.6072C81.7351 7.10334 74.7837 0.210205 66.208 0.210205H15.7377C7.16203 0.209011 0.210693 7.10215 0.210693 15.606C0.210693 23.3242 5.93745 29.7159 13.4066 30.8311" stroke="#0E2149" stroke-width="0.41791" stroke-miterlimit="10"/>
<path d="M16.3193 31.2918V28.8369H16.7974V30.8357H17.9931V31.2918H16.3205H16.3193Z" fill="#0E2149"/>
<path d="M19.1563 31.3338C18.895 31.3338 18.6879 31.2514 18.5374 31.0842C18.3869 30.9183 18.311 30.6878 18.311 30.3929C18.311 30.098 18.3869 29.8771 18.5386 29.7087C18.6903 29.5404 18.8962 29.4568 19.1551 29.4568C19.3911 29.4568 19.5826 29.5284 19.7319 29.6729C19.88 29.8162 19.9546 30.0263 19.9546 30.3022C19.9546 30.4168 19.9498 30.5063 19.9402 30.572H18.7626C18.7722 30.6843 18.8144 30.7726 18.8878 30.8371C18.9625 30.9016 19.0516 30.9338 19.1551 30.9338C19.3153 30.9338 19.4453 30.8717 19.544 30.7475L19.827 31.0317C19.6596 31.2323 19.4357 31.3338 19.1551 31.3338H19.1563ZM18.7674 30.1875H19.5067C19.4923 30.0848 19.4537 30.0037 19.3923 29.9451C19.3297 29.8866 19.2514 29.858 19.1575 29.858C18.9263 29.858 18.7963 29.9678 18.7686 30.1875H18.7674Z" fill="#0E2149"/>
<path d="M21.0479 31.3336C20.9022 31.3336 20.7625 31.3038 20.6301 31.2465C20.4976 31.1892 20.3965 31.1092 20.3254 31.0113L20.6301 30.7557C20.7601 30.8847 20.901 30.9492 21.0539 30.9492C21.2357 30.9492 21.3261 30.8966 21.3261 30.7915C21.3261 30.7426 21.302 30.702 21.2538 30.671C21.2056 30.6399 21.1202 30.6005 20.9973 30.5539C20.783 30.4835 20.6265 30.4047 20.5265 30.3175C20.4266 30.2304 20.3784 30.1121 20.3784 29.9653C20.3784 29.8089 20.441 29.6859 20.5663 29.5951C20.6915 29.5056 20.848 29.4602 21.0371 29.4602C21.3104 29.4602 21.5308 29.5557 21.6981 29.748L21.3899 29.9975C21.2815 29.8972 21.1635 29.8471 21.0359 29.8471C20.8829 29.8471 20.8059 29.8912 20.8059 29.9808C20.8059 30.056 20.9239 30.1277 21.1599 30.1981C21.3489 30.259 21.4946 30.333 21.5982 30.4214C21.7017 30.5098 21.7535 30.6339 21.7535 30.7951C21.7535 30.9683 21.6897 31.102 21.5621 31.1963C21.4344 31.2907 21.2622 31.3384 21.0455 31.3384L21.0479 31.3336Z" fill="#0E2149"/>
<path d="M23.7968 31.3338C23.5042 31.3338 23.3585 31.1762 23.3585 30.8598V29.8986H23.1008V29.4986H23.3585V28.9756L23.8185 28.7583V29.4986H24.2219V29.8986H23.8185V30.7929C23.8185 30.8861 23.8606 30.9326 23.9461 30.9326C24.0424 30.9326 24.1412 30.9076 24.2435 30.855L24.1905 31.2514C24.0774 31.3052 23.9461 31.3326 23.798 31.3326L23.7968 31.3338Z" fill="#0E2149"/>
<path d="M24.7373 31.292V29.4998H25.1973V29.6574C25.2611 29.5237 25.3731 29.458 25.5332 29.458C25.6681 29.458 25.7897 29.5034 25.9005 29.5953L25.8367 30.0132C25.7379 29.9428 25.6283 29.9082 25.5079 29.9082C25.3008 29.9082 25.1973 30.0371 25.1973 30.2938V31.2932H24.7373V31.292Z" fill="#0E2149"/>
<path d="M27.2971 31.2918V31.1617C27.1816 31.2763 27.0262 31.3336 26.83 31.3336C26.6337 31.3336 26.4747 31.2823 26.3507 31.1796C26.2267 31.0769 26.1653 30.9301 26.1653 30.7414C26.1653 30.5527 26.2351 30.3999 26.376 30.2996C26.5169 30.1993 26.6855 30.1492 26.8829 30.1492C27.0407 30.1492 27.1791 30.1766 27.2971 30.2339V30.1432C27.2971 29.9533 27.1888 29.859 26.972 29.859C26.7734 29.859 26.5879 29.9187 26.4133 30.0381L26.2724 29.6704C26.482 29.5307 26.7288 29.4602 27.0118 29.4602C27.1081 29.4602 27.1936 29.4686 27.2682 29.4853C27.3429 29.502 27.42 29.5318 27.4994 29.576C27.5801 29.6202 27.6415 29.6907 27.6849 29.7886C27.7282 29.8853 27.7499 30.0071 27.7499 30.1515V31.2954H27.2971V31.2918ZM26.9191 30.9348C27.0623 30.9348 27.1888 30.8859 27.2971 30.788V30.5945C27.1984 30.5551 27.0864 30.5348 26.9612 30.5348C26.8576 30.5348 26.7734 30.5515 26.7107 30.5862C26.6469 30.6196 26.6156 30.6721 26.6156 30.7426C26.6156 30.8011 26.6421 30.8477 26.6951 30.8823C26.7481 30.9169 26.8227 30.9348 26.9203 30.9348H26.9191Z" fill="#0E2149"/>
<path d="M29.4514 31.2918V30.3103C29.4514 30.1659 29.4261 30.0596 29.3755 29.9951C29.325 29.9294 29.2455 29.8972 29.1371 29.8972C28.9083 29.8972 28.794 30.0333 28.794 30.3044V31.293H28.334V29.5008H28.794V29.6691C28.9096 29.5294 29.0709 29.459 29.278 29.459C29.4574 29.459 29.6079 29.5151 29.7295 29.6261C29.8512 29.7372 29.9114 29.9163 29.9114 30.1647V31.2942H29.4514V31.2918Z" fill="#0E2149"/>
<path d="M31.1107 31.3336C30.965 31.3336 30.8253 31.3038 30.6928 31.2465C30.5604 31.1892 30.4592 31.1092 30.3882 31.0113L30.6928 30.7557C30.8229 30.8847 30.9638 30.9492 31.1167 30.9492C31.2985 30.9492 31.3888 30.8966 31.3888 30.7915C31.3888 30.7426 31.3647 30.702 31.3166 30.671C31.2684 30.6399 31.1829 30.6005 31.0601 30.5539C30.8457 30.4835 30.6892 30.4047 30.5893 30.3175C30.4893 30.2304 30.4412 30.1121 30.4412 29.9653C30.4412 29.8089 30.5038 29.6859 30.629 29.5951C30.7542 29.5056 30.9108 29.4602 31.0998 29.4602C31.3731 29.4602 31.5935 29.5557 31.7609 29.748L31.4526 29.9975C31.3442 29.8972 31.2262 29.8471 31.0986 29.8471C30.9457 29.8471 30.8686 29.8912 30.8686 29.9808C30.8686 30.056 30.9866 30.1277 31.2226 30.1981C31.4117 30.259 31.5574 30.333 31.6609 30.4214C31.7645 30.5098 31.8163 30.6339 31.8163 30.7951C31.8163 30.9683 31.7524 31.102 31.6248 31.1963C31.4972 31.2907 31.325 31.3384 31.1082 31.3384L31.1107 31.3336Z" fill="#0E2149"/>
<path d="M33.1937 31.3338C33.0287 31.3338 32.8999 31.2765 32.8084 31.1619V31.7864L32.3484 31.9929V29.4998H32.8084V29.6299C32.8999 29.5153 33.0299 29.458 33.1973 29.458C33.4237 29.458 33.6043 29.5404 33.7403 29.7052C33.8764 29.8699 33.9438 30.1004 33.9438 30.3977C33.9438 30.695 33.874 30.9135 33.7355 31.0819C33.5959 31.2502 33.4164 31.3338 33.1949 31.3338H33.1937ZM33.1226 30.8956C33.2382 30.8956 33.3273 30.8526 33.3899 30.7655C33.4526 30.6795 33.4839 30.5565 33.4839 30.3977C33.4839 30.2389 33.4526 30.1207 33.3899 30.0311C33.3273 29.9416 33.2382 29.8962 33.1226 29.8962C32.9854 29.8962 32.8806 29.944 32.8084 30.0395V30.7476C32.8698 30.8455 32.9745 30.8944 33.1226 30.8944V30.8956Z" fill="#0E2149"/>
<path d="M35.8247 31.0855C35.6765 31.2514 35.4731 31.335 35.2166 31.335C34.9601 31.335 34.7566 31.2526 34.6085 31.0855C34.4604 30.9195 34.3857 30.6902 34.3857 30.3977C34.3857 30.1052 34.4604 29.8783 34.6097 29.7099C34.759 29.5416 34.9613 29.458 35.2166 29.458C35.4719 29.458 35.6729 29.5416 35.8235 29.7099C35.9728 29.8783 36.0486 30.1076 36.0486 30.3977C36.0486 30.6879 35.974 30.9195 35.8259 31.0855H35.8247ZM35.2166 30.8956C35.3322 30.8956 35.4225 30.8514 35.4887 30.7643C35.5549 30.6771 35.5874 30.5541 35.5874 30.3977C35.5874 30.2413 35.5549 30.1183 35.4887 30.0299C35.4225 29.9416 35.3322 29.8962 35.2166 29.8962C35.101 29.8962 35.0131 29.9416 34.9457 30.0311C34.8782 30.1207 34.8445 30.2437 34.8445 30.3977C34.8445 30.5517 34.8782 30.6735 34.9457 30.7619C35.0131 30.8502 35.1034 30.8956 35.2166 30.8956Z" fill="#0E2149"/>
<path d="M36.5774 31.292V29.4998H37.0374V29.6574C37.1012 29.5237 37.2132 29.458 37.3733 29.458C37.5082 29.458 37.6298 29.5034 37.7406 29.5953L37.6767 30.0132C37.578 29.9428 37.4684 29.9082 37.348 29.9082C37.1409 29.9082 37.0374 30.0371 37.0374 30.2938V31.2932H36.5774V31.292Z" fill="#0E2149"/>
<path d="M38.7038 31.3338C38.4112 31.3338 38.2655 31.1762 38.2655 30.8598V29.8986H38.0078V29.4986H38.2655V28.9756L38.7255 28.7583V29.4986H39.1288V29.8986H38.7255V30.7929C38.7255 30.8861 38.7676 30.9326 38.8531 30.9326C38.9494 30.9326 39.0482 30.9076 39.1505 30.855L39.0975 31.2514C38.9843 31.3052 38.8531 31.3326 38.705 31.3326L38.7038 31.3338Z" fill="#0E2149"/>
<path d="M40.2247 31.3336C40.079 31.3336 39.9393 31.3038 39.8068 31.2465C39.6744 31.1892 39.5732 31.1092 39.5022 31.0113L39.8068 30.7557C39.9369 30.8847 40.0778 30.9492 40.2307 30.9492C40.4125 30.9492 40.5028 30.8966 40.5028 30.7915C40.5028 30.7426 40.4787 30.702 40.4306 30.671C40.3824 30.6399 40.2969 30.6005 40.1741 30.5539C39.9598 30.4835 39.8032 30.4047 39.7033 30.3175C39.6033 30.2304 39.5552 30.1121 39.5552 29.9653C39.5552 29.8089 39.6178 29.6859 39.743 29.5951C39.8682 29.5056 40.0248 29.4602 40.2138 29.4602C40.4872 29.4602 40.7075 29.5557 40.8749 29.748L40.5666 29.9975C40.4583 29.8972 40.3403 29.8471 40.2126 29.8471C40.0597 29.8471 39.9826 29.8912 39.9826 29.9808C39.9826 30.056 40.1006 30.1277 40.3366 30.1981C40.5257 30.259 40.6714 30.333 40.7749 30.4214C40.8785 30.5098 40.9303 30.6339 40.9303 30.7951C40.9303 30.9683 40.8665 31.102 40.7388 31.1963C40.6112 31.2907 40.439 31.3384 40.2223 31.3384L40.2247 31.3336Z" fill="#0E2149"/>
<path d="M43.0927 31.3339C42.8616 31.3339 42.6797 31.2515 42.5461 31.0879C42.4124 30.9243 42.3462 30.6927 42.3462 30.393C42.3462 30.0933 42.416 29.8807 42.5569 29.7112C42.6966 29.5416 42.8772 29.4568 43.0964 29.4568C43.2613 29.4568 43.3902 29.5141 43.4817 29.6288V28.9661L43.9416 28.7595V31.2921H43.4817V31.1619C43.4034 31.2765 43.2746 31.3339 43.0927 31.3339ZM43.1662 30.8956C43.3071 30.8956 43.413 30.8479 43.4805 30.7524V30.0443C43.407 29.9464 43.3023 29.8974 43.1662 29.8974C43.0506 29.8974 42.9615 29.9404 42.8989 30.0252C42.8363 30.11 42.805 30.2341 42.805 30.3953C42.805 30.5565 42.8363 30.6747 42.8989 30.7631C42.9615 30.8515 43.0506 30.8968 43.1662 30.8968V30.8956Z" fill="#0E2149"/>
<path d="M45.3167 31.3338C45.0554 31.3338 44.8483 31.2514 44.6978 31.0842C44.5473 30.9183 44.4714 30.6878 44.4714 30.3929C44.4714 30.098 44.5473 29.8771 44.699 29.7087C44.8507 29.5404 45.0566 29.4568 45.3155 29.4568C45.5515 29.4568 45.743 29.5284 45.8923 29.6729C46.0404 29.8162 46.1151 30.0263 46.1151 30.3022C46.1151 30.4168 46.1102 30.5063 46.1006 30.572H44.923C44.9326 30.6843 44.9748 30.7726 45.0482 30.8371C45.1229 30.9016 45.212 30.9338 45.3155 30.9338C45.4757 30.9338 45.6057 30.8717 45.7044 30.7475L45.9874 31.0317C45.82 31.2323 45.5961 31.3338 45.3155 31.3338H45.3167ZM44.9278 30.1875H45.6671C45.6527 30.0848 45.6141 30.0037 45.5527 29.9451C45.4901 29.8866 45.4118 29.858 45.3179 29.858C45.0867 29.858 44.9567 29.9678 44.929 30.1875H44.9278Z" fill="#0E2149"/>
<path d="M49.9139 31.2918H49.4359V30.0298C49.4359 29.976 49.4383 29.9115 49.4431 29.8363C49.4154 29.9187 49.3901 29.982 49.3685 30.0298L48.7676 31.3348L48.1631 30.0298C48.1415 29.9832 48.1174 29.9187 48.0885 29.8363C48.0933 29.9115 48.0957 29.976 48.0957 30.0298V31.2918H47.6177V28.8369H48.1017L48.7098 30.1909C48.7291 30.2351 48.7495 30.2912 48.7736 30.3593C48.7977 30.2912 48.8182 30.2351 48.8374 30.1909L49.4564 28.8369H49.9127V31.2918H49.9139Z" fill="#0E2149"/>
<path d="M51.5769 31.2918V31.1617C51.4613 31.2763 51.306 31.3336 51.1097 31.3336C50.9135 31.3336 50.7545 31.2823 50.6305 31.1796C50.5065 31.0769 50.4451 30.9301 50.4451 30.7414C50.4451 30.5527 50.5149 30.3999 50.6558 30.2996C50.7967 30.1993 50.9652 30.1492 51.1627 30.1492C51.3205 30.1492 51.4589 30.1766 51.5769 30.2339V30.1432C51.5769 29.9533 51.4686 29.859 51.2518 29.859C51.0531 29.859 50.8677 29.9187 50.6931 30.0381L50.5522 29.6704C50.7617 29.5307 51.0086 29.4602 51.2916 29.4602C51.3879 29.4602 51.4734 29.4686 51.548 29.4853C51.6227 29.502 51.6998 29.5318 51.7792 29.576C51.8599 29.6202 51.9213 29.6907 51.9647 29.7886C52.008 29.8853 52.0297 30.0071 52.0297 30.1515V31.2954H51.5769V31.2918ZM51.1988 30.9348C51.3421 30.9348 51.4686 30.8859 51.5769 30.788V30.5945C51.4782 30.5551 51.3662 30.5348 51.241 30.5348C51.1374 30.5348 51.0531 30.5515 50.9905 30.5862C50.9267 30.6196 50.8954 30.6721 50.8954 30.7426C50.8954 30.8011 50.9219 30.8477 50.9749 30.8823C51.0279 30.9169 51.1025 30.9348 51.2 30.9348H51.1988Z" fill="#0E2149"/>
<path d="M53.6035 31.2918V28.8369H54.7534C55.0436 28.8369 55.2543 28.9086 55.3844 29.053C55.5156 29.1963 55.5807 29.3814 55.5807 29.6059C55.5807 29.7551 55.5385 29.8972 55.4554 30.0321C55.3711 30.1671 55.2531 30.2602 55.1002 30.3139L55.5807 31.2918H55.0436L54.58 30.376H54.0815V31.2918H53.6035ZM54.0803 29.9283H54.7595C54.8726 29.9283 54.9557 29.8984 55.0075 29.8375C55.0593 29.7766 55.0858 29.7002 55.0858 29.6059C55.0858 29.5115 55.0605 29.4387 55.0099 29.3778C54.9593 29.3169 54.8763 29.2871 54.7607 29.2871H54.0815V29.9295L54.0803 29.9283Z" fill="#D90001"/>
<path d="M56.8858 31.3338C56.6245 31.3338 56.4174 31.2514 56.2669 31.0843C56.1164 30.9183 56.0405 30.6878 56.0405 30.3929C56.0405 30.098 56.1164 29.8771 56.2681 29.7087C56.4198 29.5404 56.6257 29.4568 56.8846 29.4568C57.1206 29.4568 57.3121 29.5284 57.4614 29.6729C57.6095 29.8162 57.6841 30.0263 57.6841 30.3022C57.6841 30.4168 57.6793 30.5063 57.6697 30.572H56.4921C56.5017 30.6843 56.5438 30.7726 56.6173 30.8371C56.692 30.9016 56.7811 30.9338 56.8846 30.9338C57.0448 30.9338 57.1748 30.8717 57.2735 30.7475L57.5565 31.0317C57.3891 31.2323 57.1652 31.3338 56.8846 31.3338H56.8858ZM56.4078 29.2717L56.9099 28.7249H57.4831L56.8533 29.2717H56.4078ZM56.4969 30.1875H57.2362C57.2218 30.0849 57.1832 30.0037 57.1218 29.9452C57.0592 29.8866 56.9809 29.858 56.887 29.858C56.6558 29.858 56.5258 29.9678 56.4981 30.1875H56.4969Z" fill="#D90001"/>
<path d="M58.8521 31.9939L58.598 31.6154C58.8485 31.5963 59.0183 31.5617 59.1086 31.5115C59.1989 31.4614 59.2446 31.373 59.2446 31.2464V31.1975C59.1531 31.2882 59.0231 31.3348 58.8557 31.3348C58.6317 31.3348 58.4511 31.2536 58.315 31.0912C58.1778 30.9288 58.1104 30.6972 58.1104 30.3951C58.1104 30.1097 58.179 29.8829 58.3175 29.7133C58.4559 29.5438 58.6365 29.459 58.8605 29.459C59.0207 29.459 59.1495 29.5044 59.2458 29.5963V29.502H59.7058V31.0518C59.7058 31.3718 59.6468 31.6035 59.5276 31.7444C59.4084 31.8853 59.1844 31.9688 58.8533 31.9951L58.8521 31.9939ZM58.9291 30.8954C59.0688 30.8954 59.1736 30.8476 59.2434 30.7521V30.0441C59.1603 29.9461 59.0556 29.8972 58.9291 29.8972C58.8136 29.8972 58.7244 29.9402 58.6618 30.025C58.5992 30.1097 58.5679 30.2339 58.5679 30.3951C58.5679 30.5467 58.598 30.6685 58.6594 30.7593C58.7208 30.85 58.8099 30.8966 58.9279 30.8966L58.9291 30.8954Z" fill="#D90001"/>
<path d="M60.5559 29.2897C60.4824 29.2897 60.4198 29.2634 60.3668 29.2109C60.3138 29.1583 60.2874 29.0962 60.2874 29.0234C60.2874 28.9506 60.3138 28.8885 60.3656 28.8371C60.4174 28.7858 60.4812 28.7595 60.5571 28.7595C60.6329 28.7595 60.6955 28.7846 60.7485 28.8347C60.8003 28.8849 60.8268 28.9482 60.8268 29.0222C60.8268 29.0962 60.8003 29.1607 60.7485 29.2121C60.6968 29.2634 60.6329 29.2897 60.5571 29.2897H60.5559ZM60.3259 31.2921V29.4998H60.7859V31.2921H60.3259Z" fill="#D90001"/>
<path d="M62.7595 31.0855C62.6114 31.2514 62.4079 31.335 62.1514 31.335C61.8949 31.335 61.6914 31.2526 61.5433 31.0855C61.3952 30.9195 61.3206 30.6902 61.3206 30.3977C61.3206 30.1052 61.3952 29.8783 61.5445 29.7099C61.6938 29.5416 61.8961 29.458 62.1514 29.458C62.4067 29.458 62.6078 29.5416 62.7583 29.7099C62.9076 29.8783 62.9834 30.1076 62.9834 30.3977C62.9834 30.6879 62.9088 30.9195 62.7607 31.0855H62.7595ZM62.1514 30.8956C62.267 30.8956 62.3573 30.8514 62.4235 30.7643C62.4897 30.6771 62.5223 30.5541 62.5223 30.3977C62.5223 30.2413 62.4897 30.1183 62.4235 30.0299C62.3573 29.9416 62.267 29.8962 62.1514 29.8962C62.0358 29.8962 61.9479 29.9416 61.8805 30.0311C61.813 30.1207 61.7793 30.2437 61.7793 30.3977C61.7793 30.5517 61.813 30.6735 61.8805 30.7619C61.9479 30.8502 62.0382 30.8956 62.1514 30.8956Z" fill="#D90001"/>
<path d="M64.6306 31.2918V30.3103C64.6306 30.1659 64.6053 30.0596 64.5547 29.9951C64.5042 29.9294 64.4247 29.8972 64.3163 29.8972C64.0876 29.8972 63.9732 30.0333 63.9732 30.3044V31.293H63.5132V29.5008H63.9732V29.6691C64.0887 29.5294 64.2501 29.459 64.4572 29.459C64.6366 29.459 64.7871 29.5151 64.9088 29.6261C65.0304 29.7372 65.0906 29.9163 65.0906 30.1647V31.2942H64.6306V31.2918Z" fill="#D90001"/>
<path d="M73.9216 8.52905H39.1589V23.8496H73.9216V8.52905Z" fill="#C80C0F"/>
<path d="M47.8744 12.2114C47.7022 12.2114 47.5637 12.3499 47.5637 12.5195V19.8675C47.5637 20.0383 47.7034 20.1756 47.8744 20.1756C48.0454 20.1756 48.185 20.0371 48.185 19.8675V12.5195C48.185 12.3487 48.0454 12.2114 47.8744 12.2114Z" fill="#FFDC00"/>
<path d="M49.2408 12.7485C49.0687 12.7485 48.9302 12.887 48.9302 13.0566V19.3312C48.9302 19.502 49.0699 19.6393 49.2408 19.6393C49.4118 19.6393 49.5515 19.5008 49.5515 19.3312V13.0566C49.5515 12.8858 49.4118 12.7485 49.2408 12.7485Z" fill="#FFDC00"/>
<path d="M50.6075 13.9294C50.4353 13.9294 50.2969 14.068 50.2969 14.2375V18.1456C50.2969 18.3163 50.4366 18.4536 50.6075 18.4536C50.7785 18.4536 50.9182 18.3151 50.9182 18.1456V14.2375C50.9182 14.0668 50.7785 13.9294 50.6075 13.9294Z" fill="#FFDC00"/>
<path d="M52.4828 16.1904C52.4832 15.9227 52.2646 15.7053 51.9946 15.705C51.7246 15.7046 51.5055 15.9213 51.5051 16.1891C51.5047 16.4568 51.7233 16.6741 51.9933 16.6745C52.2633 16.6749 52.4824 16.4581 52.4828 16.1904Z" fill="#FFDC00"/>
<path d="M47.318 11.3911C47.3758 11.3111 47.4095 11.2143 47.4095 11.1081C47.4095 10.8406 47.1904 10.6233 46.9206 10.6233C46.6509 10.6233 46.4318 10.8406 46.4318 11.1081C46.4318 11.2334 46.4799 11.3481 46.5594 11.434C46.138 11.9391 45.5853 12.246 45.3721 12.3534C45.2975 12.1803 45.1241 12.0597 44.923 12.0597C44.6533 12.0597 44.4341 12.277 44.4341 12.5445C44.4341 12.8119 44.6533 13.0293 44.923 13.0293C45.0338 13.0293 45.1349 12.9922 45.2168 12.9314C45.7575 13.7564 45.9092 14.7331 45.9525 15.2215C45.46 15.1797 44.4739 15.0293 43.6418 14.4919C43.7008 14.4119 43.7358 14.314 43.7358 14.2078C43.7358 13.9403 43.5166 13.723 43.2469 13.723C42.9772 13.723 42.758 13.9403 42.758 14.2078C42.758 14.4096 42.882 14.5815 43.0578 14.6555C42.935 14.8991 42.5846 15.5308 42.0946 15.8591C42.0054 15.7648 41.879 15.7051 41.7381 15.7051C41.4684 15.7051 41.2493 15.9224 41.2493 16.1899C41.2493 16.4573 41.4684 16.6746 41.7381 16.6746C41.879 16.6746 42.0054 16.6149 42.0958 16.5206C42.5846 16.849 42.9362 17.4818 43.0578 17.7254C42.882 17.7982 42.758 17.9714 42.758 18.1731C42.758 18.4406 42.9772 18.6579 43.2469 18.6579C43.5166 18.6579 43.7358 18.4406 43.7358 18.1731C43.7358 18.0669 43.7008 17.969 43.6418 17.889C44.4751 17.3516 45.46 17.2012 45.9525 17.1594C45.9104 17.6466 45.7587 18.6209 45.2156 19.4496C45.1337 19.3887 45.0326 19.3516 44.9218 19.3516C44.6521 19.3516 44.4329 19.569 44.4329 19.8364C44.4329 20.1039 44.6521 20.3212 44.9218 20.3212C45.1229 20.3212 45.2963 20.2006 45.3709 20.0275C45.5841 20.1337 46.1368 20.4382 46.5582 20.9469C46.4787 21.0328 46.4306 21.1475 46.4306 21.2728C46.4306 21.5403 46.6497 21.7576 46.9194 21.7576C47.1891 21.7576 47.4083 21.5403 47.4083 21.2728C47.4083 21.1678 47.3734 21.0699 47.3168 20.9899C46.8965 20.2746 46.2222 19.8173 45.8285 19.5964C46.5702 18.3355 46.5678 16.9099 46.5678 16.8442L46.5654 16.5516L46.2704 16.5493C46.2054 16.5493 44.7665 16.5445 43.4961 17.2788C43.33 16.9815 43.0386 16.529 42.64 16.1899C43.0374 15.8519 43.33 15.3994 43.4961 15.1021C44.7665 15.8364 46.2054 15.8328 46.2704 15.8316L46.5654 15.8293L46.5678 15.5367C46.5678 15.4722 46.5702 14.0454 45.8285 12.7845C46.2222 12.5636 46.8978 12.1063 47.3168 11.3911H47.318Z" fill="#FFDC00"/>
<path d="M55.1688 17.576C54.3898 17.576 53.7781 16.9969 53.7781 16.2578C53.7781 15.5187 54.3753 14.9468 55.1688 14.9468C55.9623 14.9468 56.5596 15.5223 56.5596 16.2578C56.5596 16.9933 55.9491 17.576 55.1688 17.576ZM55.1736 15.3169C54.6402 15.3169 54.2055 15.7384 54.2055 16.2578C54.2055 16.7772 54.6402 17.2059 55.1736 17.2059C55.7071 17.2059 56.1297 16.7808 56.1297 16.2578C56.1297 15.7348 55.7095 15.3169 55.1736 15.3169Z" fill="white"/>
<path d="M57.9179 17.5725C57.329 17.5725 56.9172 17.163 56.9172 16.5767C56.9172 15.9904 57.329 15.5737 57.9179 15.5737C58.2646 15.5737 58.5464 15.6824 58.7318 15.8866L58.5115 16.1433C58.3658 16 58.1719 15.9248 57.9528 15.9248H57.9383C57.5783 15.9248 57.3266 16.1934 57.3266 16.5767C57.3266 16.96 57.5783 17.2287 57.9383 17.2287C58.1888 17.2287 58.3947 17.1475 58.5332 16.9946L58.7559 17.2155C58.5717 17.4484 58.2827 17.5725 57.9191 17.5725H57.9179Z" fill="white"/>
<path d="M60.0431 17.5725C59.4543 17.5725 59.0425 17.163 59.0425 16.5767C59.0425 15.9904 59.4543 15.5737 60.0431 15.5737C60.3899 15.5737 60.6716 15.6824 60.8571 15.8866L60.6367 16.1433C60.491 16 60.2972 15.9248 60.078 15.9248H60.0636C59.7035 15.9248 59.4519 16.1934 59.4519 16.5767C59.4519 16.96 59.7035 17.2287 60.0636 17.2287C60.314 17.2287 60.5199 17.1475 60.6584 16.9946L60.8812 17.2155C60.6969 17.4484 60.4079 17.5725 60.0443 17.5725H60.0431Z" fill="white"/>
<path d="M61.3664 17.5583V15.5893H61.7698V17.5583H61.3664ZM61.5675 15.2502C61.4314 15.2502 61.3279 15.1451 61.3279 15.0054C61.3279 14.8657 61.4314 14.7571 61.5675 14.7571C61.7036 14.7571 61.8071 14.8645 61.8071 15.0054C61.8071 15.1463 61.7036 15.2502 61.5675 15.2502Z" fill="white"/>
<path d="M63.1401 17.5761C63.0113 17.5761 62.5898 17.5355 62.5898 17.0078V15.9582H62.3057V15.6633H62.5898V15.1152H62.9932V15.6633H63.588V15.9582H62.9932V16.929C62.9932 17.1248 63.0643 17.2131 63.2232 17.2131C63.3075 17.2131 63.399 17.1881 63.5182 17.132L63.6193 17.4364C63.4604 17.5284 63.2991 17.5749 63.1401 17.5749V17.5761Z" fill="white"/>
<path d="M64.6474 17.5761C64.2392 17.5761 63.9539 17.3266 63.9539 16.9707C63.9539 16.6149 64.2404 16.3881 64.7004 16.3845H65.3241V16.3104C65.3241 16.043 65.1483 15.8949 64.8292 15.8949C64.6354 15.8949 64.4379 15.9606 64.2392 16.0919L64.0755 15.8161C64.356 15.6513 64.5571 15.5737 64.9232 15.5737C65.4277 15.5737 65.7191 15.8245 65.7227 16.2615L65.7263 17.557H65.3265V17.3063L65.2374 17.3863C65.099 17.5104 64.8943 17.5761 64.6462 17.5761H64.6474ZM64.7642 16.6722C64.4668 16.6722 64.3344 16.7582 64.3344 16.9528C64.3344 17.1475 64.4933 17.2633 64.7377 17.2633C65.0532 17.2633 65.3001 17.0985 65.3229 16.8716V16.6722H64.7642Z" fill="white"/>
<path d="M67.8986 17.5582V16.4502C67.8986 16.1433 67.7072 15.9523 67.4001 15.9523C67.0714 15.9558 66.8474 16.1696 66.8149 16.5087V17.5582H66.4067V15.5893H66.8137V15.9797L66.9101 15.8544C67.0521 15.6693 67.2737 15.575 67.5699 15.575C68.0239 15.575 68.3056 15.8639 68.3056 16.3308V17.5594H67.8986V17.5582Z" fill="white"/>
<path d="M68.9861 17.5583V15.5893H69.3894V17.5583H68.9861ZM69.1883 15.2502C69.0523 15.2502 68.9487 15.1451 68.9487 15.0054C68.9487 14.8657 69.0523 14.7571 69.1883 14.7571C69.3244 14.7571 69.428 14.8645 69.428 15.0054C69.428 15.1463 69.3244 15.2502 69.1883 15.2502Z" fill="white"/>
<path d="M70.9572 17.5725C70.3503 17.5725 69.9421 17.1725 69.9421 16.5767C69.9421 15.9809 70.3552 15.5773 70.9464 15.5737C71.2498 15.5737 71.4834 15.6585 71.6411 15.8269C71.8242 16.0227 71.9036 16.3236 71.8759 16.7248H70.3467L70.3672 16.7928C70.4503 17.0758 70.6899 17.2513 70.9921 17.2513C71.2101 17.2513 71.4099 17.1713 71.5593 17.0245L71.7712 17.249C71.5713 17.4615 71.2895 17.5725 70.9572 17.5725ZM70.95 15.8913C70.6417 15.8913 70.4202 16.0716 70.3551 16.3725L70.3419 16.437H71.528L71.5219 16.3785C71.4894 16.074 71.2763 15.8913 70.9512 15.8913H70.95Z" fill="white"/>
<path d="M53.7793 14.1969L53.7829 12.7605L54.049 12.7653L54.0442 13.9557L54.6655 13.9605L54.6607 14.1969H53.7793Z" fill="white"/>
<path d="M55.1784 14.2079C54.9485 14.2079 54.7871 14.067 54.7871 13.8652C54.7871 13.6634 54.9436 13.5344 55.2061 13.532H55.518L55.5228 13.5105C55.5228 13.3768 55.4373 13.3052 55.276 13.3052C55.1736 13.3052 55.0689 13.341 54.9629 13.4126L54.9497 13.4222L54.8449 13.2359H54.8557C55.0123 13.1416 55.1231 13.0974 55.3266 13.0974C55.6095 13.0974 55.7721 13.2383 55.7745 13.4855L55.7769 14.2043L55.5216 14.1995L55.5264 14.0968V14.0861L55.5192 14.0932C55.4409 14.1697 55.3241 14.2091 55.1797 14.2091L55.1784 14.2079ZM55.2411 13.7219C55.0905 13.7219 55.0279 13.7601 55.0279 13.8544C55.0279 13.9488 55.1038 14.0025 55.2266 14.0025C55.3868 14.0025 55.5108 13.9213 55.5228 13.8091V13.7267L55.2411 13.7219Z" fill="white"/>
<path d="M56.6018 14.1969L56.6066 12.7605L57.1942 12.7653C57.5651 12.7653 57.7782 12.9444 57.7782 13.2572C57.7782 13.4769 57.6771 13.6405 57.494 13.7181L57.8119 14.1969H57.5109L57.2544 13.773C57.2327 13.773 57.2135 13.773 57.1942 13.773H56.8715L56.8667 14.2029L56.6006 14.1981L56.6018 14.1969ZM56.8667 13.533L57.193 13.5378C57.4146 13.5378 57.5278 13.4459 57.5278 13.2644C57.5278 13.0829 57.4146 13.0005 57.193 13.0005H56.8667V13.533Z" fill="white"/>
<path d="M58.5223 14.2054C58.1851 14.2054 57.9587 13.9833 57.9587 13.6526C57.9587 13.3218 58.1875 13.0974 58.5162 13.0962C58.6848 13.0962 58.8149 13.1439 58.9028 13.2383C59.0051 13.3481 59.0497 13.5177 59.0328 13.7409V13.7553L58.2248 13.7517C58.261 13.9057 58.3838 13.9989 58.5403 13.9989C58.6547 13.9989 58.7607 13.9559 58.8377 13.8771L58.8486 13.8663L58.9871 14.0192L58.9774 14.0239C58.8666 14.1445 58.7089 14.209 58.5223 14.209V14.2054ZM58.5187 13.3027C58.3621 13.3027 58.2465 13.3995 58.2152 13.5547L58.8028 13.5595C58.7932 13.3971 58.6848 13.3027 58.5187 13.3027ZM58.3465 12.972L58.5813 12.6472L58.851 12.7642L58.5789 12.972H58.3465Z" fill="white"/>
<path d="M59.7191 14.5946C59.5577 14.5946 59.4048 14.5469 59.2639 14.4514L59.2519 14.443L59.3687 14.2555L59.3759 14.2663C59.4843 14.3451 59.5866 14.3809 59.7094 14.3809C59.9093 14.3809 60.0382 14.2663 60.0382 14.0872V13.9869L60.0309 13.9964C59.9539 14.0932 59.8359 14.1433 59.6914 14.1433C59.3928 14.1433 59.1929 13.9308 59.1929 13.6143C59.1929 13.2979 59.3903 13.0961 59.6829 13.0938C59.8335 13.0938 59.9503 13.1439 60.0297 13.2418L60.037 13.2514V13.0973L60.2946 13.1021L60.2898 14.08C60.2898 14.3917 60.0659 14.5923 59.7179 14.5923L59.7191 14.5946ZM59.7371 13.3051C59.5601 13.3051 59.4349 13.4352 59.4325 13.6227C59.4349 13.8137 59.5565 13.9427 59.7371 13.9427C59.9177 13.9427 60.037 13.8114 60.037 13.6227C60.037 13.434 59.9141 13.3051 59.7371 13.3051Z" fill="white"/>
<path d="M60.5896 14.197L60.5944 13.0997L60.8521 13.1045L60.8473 14.1982H60.5896V14.197ZM60.7209 12.9576C60.6366 12.9576 60.574 12.8932 60.574 12.8084C60.574 12.7236 60.6366 12.6567 60.7209 12.6567C60.8052 12.6567 60.8678 12.7224 60.8678 12.8084C60.8678 12.8943 60.8052 12.9576 60.7209 12.9576Z" fill="white"/>
<path d="M61.6456 14.2054C61.3061 14.2054 61.0701 13.9774 61.0701 13.6502C61.0701 13.323 61.3013 13.095 61.6456 13.095C61.99 13.095 62.22 13.323 62.22 13.6502C62.22 13.9774 61.984 14.2054 61.6456 14.2054ZM61.6456 13.3171C61.4566 13.3171 61.3253 13.4556 61.3253 13.6526C61.3253 13.8496 61.4542 13.9905 61.6456 13.9905C61.8371 13.9905 61.9635 13.852 61.9635 13.6526C61.9635 13.4532 61.8323 13.3171 61.6456 13.3171Z" fill="white"/>
<path d="M62.4368 14.1971L62.4416 13.0998L62.7017 13.1045L62.6969 13.2657V13.2801L62.7053 13.2681C62.7848 13.1535 62.9124 13.0962 63.0846 13.0962C63.3398 13.0962 63.4976 13.2586 63.4976 13.5201V14.1983H63.2375L63.2423 13.5845C63.2423 13.4281 63.1496 13.335 62.9931 13.335C62.8269 13.3374 62.7137 13.4448 62.6969 13.618V14.2019L62.4368 14.1971Z" fill="white"/>
<path d="M54.2332 18.2676C54.4993 18.2676 54.6522 18.3977 54.6522 18.6258C54.6522 18.8538 54.4993 19.0007 54.2332 19.0007H53.99V19.3171H53.8118V18.2664H54.2344L54.2332 18.2676ZM53.99 18.8431H54.226C54.3897 18.8431 54.4813 18.7738 54.4813 18.6317C54.4813 18.4896 54.3885 18.4276 54.226 18.4276H53.99V18.8431Z" fill="white"/>
<path d="M55.1737 19.4279C55.1231 19.5545 55.0328 19.6166 54.9124 19.6166C54.8402 19.6166 54.7824 19.5951 54.7258 19.5485L54.8004 19.4148C54.8378 19.4423 54.8691 19.4542 54.9052 19.4542C54.9582 19.4542 55.0003 19.4256 55.028 19.3659L55.0557 19.3062L54.7222 18.5193H54.9028L55.1436 19.1247L55.3676 18.5193H55.5422L55.1761 19.4279H55.1737Z" fill="white"/>
<path d="M55.8431 18.6794C55.8972 18.5708 55.9948 18.5146 56.1212 18.5146V18.6794C55.9586 18.6699 55.8563 18.7654 55.8431 18.9015V19.3194H55.6685V18.5206H55.8431V18.6794Z" fill="white"/>
<path d="M56.9738 18.985H56.3657C56.3934 19.108 56.4886 19.1844 56.615 19.1844C56.7029 19.1844 56.7836 19.151 56.8426 19.0913L56.9353 19.1892C56.857 19.2752 56.7414 19.3241 56.6017 19.3241C56.3537 19.3241 56.1899 19.1606 56.1899 18.9206C56.1899 18.6806 56.3585 18.5158 56.5969 18.5134C56.8799 18.5134 56.9955 18.6961 56.9738 18.985ZM56.8233 18.8597C56.8173 18.7307 56.7306 18.6519 56.5993 18.6519C56.4681 18.6519 56.3826 18.7319 56.3633 18.8597H56.8233ZM56.4874 18.4059L56.6475 18.1838L56.8257 18.2591L56.6415 18.4059H56.4874Z" fill="white"/>
<path d="M57.9261 18.8215V19.3182H57.7515V18.8692C57.7515 18.7487 57.6793 18.6758 57.5577 18.6758C57.424 18.677 57.3409 18.7689 57.3289 18.8931V19.3182H57.1543V18.5194H57.3289V18.6722C57.3867 18.5612 57.489 18.5134 57.6251 18.5134C57.8129 18.5134 57.9249 18.6304 57.9249 18.8215H57.9261Z" fill="white"/>
<path d="M58.8679 18.985H58.2598C58.2875 19.108 58.3826 19.1844 58.509 19.1844C58.5969 19.1844 58.6776 19.151 58.7366 19.0913L58.8293 19.1892C58.7511 19.2752 58.6355 19.3241 58.4958 19.3241C58.2477 19.3241 58.084 19.1606 58.084 18.9206C58.084 18.6806 58.2526 18.5158 58.491 18.5134C58.7739 18.5134 58.8895 18.6961 58.8679 18.985ZM58.7161 18.8597C58.7101 18.7307 58.6234 18.6519 58.4922 18.6519C58.3609 18.6519 58.2754 18.7319 58.2562 18.8597H58.7161ZM58.3802 18.4059L58.5403 18.1838L58.7185 18.2591L58.5343 18.4059H58.3802Z" fill="white"/>
<path d="M59.7578 18.9851H59.1497C59.1774 19.1081 59.2725 19.1845 59.3989 19.1845C59.4868 19.1845 59.5675 19.151 59.6265 19.0913L59.7192 19.1892C59.641 19.2752 59.5254 19.3242 59.3857 19.3242C59.1376 19.3242 58.9739 19.1606 58.9739 18.9206C58.9739 18.6806 59.1425 18.5158 59.3809 18.5134C59.6638 18.5134 59.7794 18.6961 59.7578 18.9851ZM59.606 18.8597C59.6 18.7307 59.5133 18.6519 59.3821 18.6519C59.2508 18.6519 59.1653 18.7319 59.1461 18.8597H59.606Z" fill="white"/>
<path d="M60.461 18.5934L60.3972 18.7212C60.3261 18.6782 60.237 18.6507 60.166 18.6507C60.0949 18.6507 60.048 18.6734 60.048 18.7307C60.048 18.8776 60.4766 18.7988 60.4754 19.0877C60.4754 19.2513 60.3285 19.3253 60.1672 19.3253C60.0492 19.3253 59.9239 19.2859 59.8433 19.2143L59.9059 19.0913C59.9757 19.1534 60.0877 19.1904 60.1756 19.1904C60.2503 19.1904 60.3068 19.1653 60.3068 19.1044C60.3068 18.9409 59.883 19.0328 59.8842 18.7438C59.8842 18.5815 60.0263 18.5122 60.1804 18.5122C60.2816 18.5122 60.3899 18.5421 60.4622 18.5934H60.461Z" fill="white"/>
<path d="M61.0051 18.9207V18.8025H61.3772V18.9207H61.0051Z" fill="white"/>
<path d="M62.9546 19.3193V18.5336L62.6186 19.2095H62.5019L62.1671 18.5336V19.3193H61.9985V18.2686H62.2105L62.5596 18.9671L62.9076 18.2686H63.1184V19.3193H62.9534H62.9546Z" fill="white"/>
<path d="M64.0974 18.985H63.4893C63.517 19.108 63.6121 19.1844 63.7385 19.1844C63.8264 19.1844 63.9071 19.151 63.9661 19.0913L64.0588 19.1892C63.9806 19.2752 63.865 19.3241 63.7253 19.3241C63.4772 19.3241 63.3135 19.1606 63.3135 18.9206C63.3135 18.6806 63.4821 18.5158 63.7205 18.5134C64.0034 18.5134 64.119 18.6961 64.0974 18.985ZM63.9456 18.8597C63.9396 18.7307 63.8529 18.6519 63.7217 18.6519C63.5904 18.6519 63.5049 18.7319 63.4857 18.8597H63.9456ZM63.6097 18.4059L63.7698 18.1838L63.948 18.2591L63.7638 18.4059H63.6097Z" fill="white"/>
<path d="M65.0462 19.3194H64.8716V19.1833C64.8138 19.2764 64.7175 19.3277 64.5887 19.3277C64.3575 19.3277 64.2021 19.1606 64.2021 18.9182C64.2021 18.6758 64.3587 18.5146 64.5851 18.5146C64.7151 18.5146 64.8126 18.5671 64.8716 18.6603V18.2065H65.0462V19.3206V19.3194ZM64.8716 18.923C64.8716 18.7689 64.7705 18.6603 64.6248 18.6603C64.4791 18.6603 64.378 18.7701 64.3767 18.923C64.378 19.0746 64.4779 19.1821 64.6248 19.1821C64.7717 19.1821 64.8716 19.0734 64.8716 18.923Z" fill="white"/>
<path d="M65.4989 18.2926C65.4989 18.3523 65.4556 18.3965 65.3978 18.3965C65.34 18.3965 65.2966 18.3535 65.2966 18.2926C65.2966 18.2317 65.34 18.1875 65.3978 18.1875C65.4556 18.1875 65.4989 18.2305 65.4989 18.2926ZM65.3111 19.3194V18.5206H65.4833V19.3194H65.3111Z" fill="white"/>
<path d="M66.196 19.2681C66.1322 19.3051 66.0659 19.3266 65.9973 19.3266C65.8757 19.3266 65.7721 19.2574 65.7721 19.0938V18.6795H65.6589V18.5505H65.7721V18.3308H65.9443V18.5505H66.1815V18.6795H65.9443V19.0627C65.9443 19.1451 65.9756 19.1714 66.031 19.1714C66.0671 19.1714 66.1057 19.1595 66.1526 19.1368L66.196 19.2693V19.2681Z" fill="white"/>
<path d="M67.0559 18.9851H66.4478C66.4755 19.1081 66.5706 19.1845 66.697 19.1845C66.7849 19.1845 66.8656 19.151 66.9246 19.0913L67.0173 19.1892C66.9391 19.2752 66.8235 19.3242 66.6838 19.3242C66.4357 19.3242 66.272 19.1606 66.272 18.9206C66.272 18.6806 66.4405 18.5158 66.679 18.5134C66.9619 18.5134 67.0775 18.6961 67.0559 18.9851ZM66.9041 18.8597C66.8981 18.7307 66.8114 18.6519 66.6802 18.6519C66.5489 18.6519 66.4634 18.7319 66.4442 18.8597H66.9041Z" fill="white"/>
<path d="M67.4109 18.6794C67.4651 18.5708 67.5626 18.5146 67.6891 18.5146V18.6794C67.5265 18.6699 67.4242 18.7654 67.4109 18.9015V19.3194H67.2363V18.5206H67.4109V18.6794Z" fill="white"/>
<path d="M68.0081 18.6794C68.0623 18.5708 68.1598 18.5146 68.2862 18.5146V18.6794C68.1237 18.6699 68.0213 18.7654 68.0081 18.9015V19.3194H67.8335V18.5206H68.0081V18.6794Z" fill="white"/>
<path d="M68.8811 19.2215C68.8233 19.292 68.7318 19.3266 68.615 19.3266C68.4404 19.3266 68.332 19.2203 68.332 19.0794C68.332 18.9385 68.4428 18.8406 68.6367 18.8394H68.8799V18.8155C68.8799 18.7152 68.8149 18.6543 68.6872 18.6543C68.6102 18.6543 68.5295 18.6818 68.45 18.7355L68.379 18.6149C68.491 18.5493 68.5729 18.5146 68.7258 18.5146C68.9329 18.5146 69.0497 18.6197 69.0509 18.7952V19.3194H68.8811V19.2215ZM68.8799 19.0376V18.9636H68.662C68.5488 18.9636 68.4958 18.9935 68.4958 19.0699C68.4958 19.1415 68.5548 19.1881 68.6511 19.1881C68.7751 19.1881 68.8703 19.1236 68.8799 19.0364V19.0376Z" fill="white"/>
<path d="M70.0565 18.8215V19.3182H69.8819V18.8692C69.8819 18.7487 69.8097 18.6758 69.688 18.6758C69.5544 18.677 69.4713 18.7689 69.4593 18.8931V19.3182H69.2847V18.5194H69.4593V18.6722C69.5171 18.5612 69.6194 18.5134 69.7555 18.5134C69.9433 18.5134 70.0553 18.6304 70.0553 18.8215H70.0565Z" fill="white"/>
<path d="M70.9968 18.985H70.3887C70.4164 19.108 70.5115 19.1844 70.6379 19.1844C70.7258 19.1844 70.8065 19.151 70.8655 19.0913L70.9582 19.1892C70.88 19.2752 70.7644 19.3241 70.6247 19.3241C70.3767 19.3241 70.2129 19.1606 70.2129 18.9206C70.2129 18.6806 70.3815 18.5158 70.6199 18.5134C70.9028 18.5134 71.0184 18.6961 70.9968 18.985ZM70.8463 18.8597C70.8402 18.7307 70.7535 18.6519 70.6223 18.6519C70.491 18.6519 70.4055 18.7319 70.3863 18.8597H70.8463ZM70.5103 18.4059L70.6705 18.1838L70.8487 18.2591L70.6644 18.4059H70.5103Z" fill="white"/>
<path d="M71.8867 18.9851H71.2786C71.3063 19.1081 71.4014 19.1845 71.5278 19.1845C71.6157 19.1845 71.6964 19.151 71.7554 19.0913L71.8481 19.1892C71.7699 19.2752 71.6543 19.3242 71.5146 19.3242C71.2665 19.3242 71.1028 19.1606 71.1028 18.9206C71.1028 18.6806 71.2714 18.5158 71.5098 18.5134C71.7927 18.5134 71.9083 18.6961 71.8867 18.9851ZM71.7361 18.8597C71.7301 18.7307 71.6434 18.6519 71.5122 18.6519C71.3809 18.6519 71.2954 18.7319 71.2762 18.8597H71.7361Z" fill="white"/>
</g>
<path d="M90.18 22C90.0805 22 90 21.9234 90 21.8287V10.1713C90 10.0766 90.0805 10 90.18 10C90.2795 10 90.36 10.0766 90.36 10.1713V21.8287C90.36 21.9234 90.2795 22 90.18 22Z" fill="#A6A6A6"/>
<path d="M98.6707 24.9309H99.4281L100.173 26.8928H100.181L100.938 24.9309H101.649L100.407 27.9232H99.8758L98.6707 24.9309Z" fill="#642974"/>
<path d="M102.437 26.4273C102.437 26.1881 102.477 25.9711 102.559 25.7765C102.639 25.5819 102.753 25.4161 102.897 25.2805C103.042 25.1433 103.213 25.0396 103.412 24.9663C103.611 24.8929 103.828 24.8562 104.062 24.8562C104.298 24.8562 104.515 24.8929 104.712 24.9663C104.911 25.0396 105.083 25.1449 105.227 25.2805C105.372 25.4177 105.484 25.5819 105.566 25.7765C105.646 25.9711 105.688 26.1881 105.688 26.4273C105.688 26.6666 105.648 26.8835 105.566 27.0781C105.486 27.2727 105.372 27.4386 105.227 27.5741C105.083 27.7113 104.911 27.8166 104.712 27.8884C104.513 27.9617 104.297 27.9984 104.062 27.9984C103.826 27.9984 103.61 27.9617 103.412 27.8884C103.213 27.815 103.042 27.7097 102.897 27.5741C102.753 27.437 102.641 27.2727 102.559 27.0781C102.477 26.8835 102.437 26.6666 102.437 26.4273ZM103.125 26.4273C103.125 26.5677 103.148 26.6969 103.191 26.8149C103.234 26.9313 103.298 27.0334 103.38 27.1195C103.462 27.2057 103.562 27.2727 103.676 27.3205C103.791 27.3684 103.918 27.3923 104.061 27.3923C104.202 27.3923 104.33 27.3684 104.446 27.3205C104.561 27.2727 104.659 27.2057 104.741 27.1195C104.823 27.0334 104.887 26.9313 104.93 26.8149C104.974 26.6985 104.996 26.5693 104.996 26.4273C104.996 26.2885 104.974 26.1609 104.93 26.0429C104.887 25.9249 104.823 25.8228 104.741 25.7367C104.659 25.6505 104.56 25.5835 104.446 25.5357C104.33 25.4878 104.202 25.4639 104.061 25.4639C103.92 25.4639 103.791 25.4878 103.676 25.5357C103.56 25.5835 103.462 25.6505 103.38 25.7367C103.298 25.8228 103.234 25.9249 103.191 26.0429C103.148 26.1609 103.125 26.2885 103.125 26.4273Z" fill="#642974"/>
<path d="M107.516 26.6476L106.385 24.9314H107.21L107.848 26.0511L108.524 24.9314H109.31L108.179 26.6476V27.9237H107.516V26.6476Z" fill="#642974"/>
<path d="M111.162 24.9314H111.711L113.021 27.9237H112.273L112.013 27.2888H110.843L110.593 27.9237H109.861L111.162 24.9314ZM111.418 25.8023L111.052 26.7322H111.787L111.418 25.8023Z" fill="#642974"/>
<path d="M116.683 27.7128C116.488 27.8148 116.284 27.8882 116.07 27.9329C115.859 27.9775 115.64 27.9999 115.42 27.9999C115.185 27.9999 114.968 27.9632 114.771 27.8898C114.572 27.8164 114.4 27.7112 114.255 27.5756C114.111 27.4384 113.999 27.2741 113.917 27.0795C113.837 26.8849 113.795 26.668 113.795 26.4288C113.795 26.1895 113.835 25.9726 113.917 25.778C113.997 25.5834 114.111 25.4175 114.255 25.2819C114.4 25.1448 114.572 25.0411 114.771 24.9677C114.97 24.8943 115.186 24.8577 115.42 24.8577C115.661 24.8577 115.883 24.8864 116.086 24.9438C116.289 25.0012 116.467 25.1017 116.621 25.2421L116.154 25.7493C116.062 25.6568 115.961 25.5866 115.847 25.5371C115.733 25.4893 115.592 25.4654 115.422 25.4654C115.281 25.4654 115.153 25.4893 115.037 25.5371C114.921 25.585 114.824 25.652 114.742 25.7381C114.66 25.8243 114.596 25.9263 114.552 26.0444C114.509 26.1624 114.487 26.2916 114.487 26.4288C114.487 26.5691 114.509 26.6983 114.552 26.8164C114.596 26.9328 114.66 27.0349 114.742 27.121C114.824 27.2071 114.923 27.2741 115.037 27.322C115.153 27.3698 115.279 27.3938 115.422 27.3938C115.567 27.3938 115.692 27.3778 115.796 27.3459C115.9 27.314 115.984 27.2805 116.046 27.247V26.7605H115.506V26.1512H116.683V27.7128Z" fill="#642974"/>
<path d="M117.927 24.9314H119.973V25.5407H118.592V26.099H119.898V26.7083H118.592V27.3144H120.05V27.9237H117.929V24.9314H117.927Z" fill="#642974"/>
<path d="M123.762 26.7705C123.762 26.9475 123.735 27.1118 123.682 27.2601C123.628 27.4101 123.547 27.5393 123.441 27.6493C123.336 27.7594 123.202 27.8455 123.043 27.9077C122.885 27.9699 122.702 28.0002 122.495 28.0002C122.284 28.0002 122.1 27.9699 121.941 27.9077C121.782 27.8455 121.649 27.7594 121.543 27.6493C121.437 27.5393 121.357 27.4101 121.302 27.2601C121.248 27.1102 121.222 26.9475 121.222 26.7705V24.9314H121.885V26.7449C121.885 26.8375 121.899 26.9236 121.93 27.0033C121.96 27.0831 122.002 27.1501 122.055 27.2091C122.11 27.2665 122.174 27.3128 122.249 27.3447C122.325 27.3766 122.406 27.3925 122.493 27.3925C122.581 27.3925 122.662 27.3766 122.735 27.3447C122.809 27.3128 122.873 27.2665 122.926 27.2091C122.981 27.1517 123.023 27.0831 123.052 27.0033C123.082 26.9252 123.096 26.8391 123.096 26.7449V24.9314H123.759V26.7705H123.762Z" fill="#642974"/>
<path d="M125.011 24.9314H126.176C126.328 24.9314 126.474 24.9458 126.612 24.9761C126.75 25.0064 126.871 25.0542 126.973 25.1244C127.076 25.193 127.159 25.2871 127.22 25.4035C127.281 25.52 127.312 25.6667 127.312 25.8406C127.312 26.0527 127.257 26.2313 127.147 26.3797C127.036 26.528 126.874 26.6221 126.662 26.6604L127.427 27.9237H126.631L126.002 26.7274H125.675V27.9237H125.012V24.9314H125.011ZM125.673 26.1691H126.065C126.124 26.1691 126.187 26.1675 126.254 26.1628C126.322 26.158 126.381 26.1452 126.436 26.1245C126.49 26.1037 126.534 26.0702 126.569 26.0256C126.604 25.9809 126.622 25.9171 126.622 25.8358C126.622 25.7592 126.606 25.6986 126.575 25.6539C126.545 25.6093 126.505 25.5742 126.457 25.5503C126.408 25.5263 126.352 25.5104 126.291 25.5024C126.229 25.4944 126.168 25.4897 126.108 25.4897H125.675V26.1691H125.673Z" fill="#642974"/>
<path d="M129.896 25.6612C129.842 25.5942 129.769 25.5432 129.678 25.5113C129.586 25.4794 129.498 25.4634 129.416 25.4634C129.368 25.4634 129.318 25.4698 129.267 25.481C129.216 25.4921 129.168 25.5097 129.123 25.5336C129.078 25.5575 129.041 25.5894 129.012 25.6293C128.983 25.6692 128.969 25.717 128.969 25.7729C128.969 25.8638 129.002 25.9324 129.071 25.9802C129.139 26.0281 129.225 26.0695 129.328 26.103C129.431 26.1365 129.543 26.17 129.662 26.2051C129.781 26.2386 129.893 26.2865 129.996 26.3487C130.098 26.4109 130.185 26.4938 130.252 26.5975C130.32 26.7012 130.355 26.8415 130.355 27.0154C130.355 27.1813 130.325 27.3264 130.262 27.4508C130.199 27.5753 130.116 27.6773 130.008 27.7587C129.903 27.84 129.779 27.9006 129.638 27.9405C129.498 27.9804 129.349 27.9995 129.193 27.9995C128.997 27.9995 128.816 27.9692 128.649 27.9102C128.482 27.8512 128.327 27.7555 128.181 27.6231L128.652 27.1079C128.72 27.1988 128.807 27.2674 128.909 27.3169C129.014 27.3663 129.119 27.3902 129.23 27.3902C129.285 27.3902 129.339 27.3838 129.394 27.3711C129.448 27.3583 129.498 27.3392 129.543 27.3137C129.586 27.2881 129.622 27.2562 129.649 27.2164C129.676 27.1765 129.689 27.1302 129.689 27.0776C129.689 26.9867 129.654 26.9165 129.585 26.8639C129.516 26.8112 129.428 26.7666 129.323 26.7299C129.219 26.6932 129.105 26.6565 128.983 26.6198C128.861 26.5831 128.747 26.5337 128.643 26.4715C128.539 26.4093 128.45 26.3279 128.381 26.2259C128.312 26.1238 128.277 25.9898 128.277 25.8239C128.277 25.6628 128.309 25.5224 128.373 25.4012C128.437 25.28 128.522 25.1779 128.628 25.0966C128.734 25.0152 128.858 24.953 128.996 24.9131C129.135 24.8717 129.278 24.8525 129.426 24.8525C129.596 24.8525 129.76 24.8765 129.919 24.9243C130.077 24.9722 130.22 25.0519 130.349 25.1652L129.896 25.6612Z" fill="#642974"/>
<path d="M99.307 4.04307C98.9202 4.06061 98.6699 4.23766 98.6699 4.61568V21.5214C98.6699 21.8149 98.8817 22.0812 99.2091 22.0812H129.57C129.843 22.0812 130.061 22.0573 130.189 21.6984C130.189 21.6984 133.267 12.1283 133.32 11.956C133.434 11.5923 133.362 11.4105 133.051 11.2127C123.161 4.91555 108.375 4 101.661 4C100.695 4 99.8991 4.01754 99.307 4.04307Z" fill="url(#paint0_linear_16694_7172)"/>
<path d="M105.581 14.8474C104.466 14.3115 103.709 14.0323 103.892 13.4932C104.107 12.8568 105.228 12.6159 106.244 12.6383C106.758 12.651 107.122 12.7164 107.539 12.8121L107.907 11.6589C107.377 11.5616 107 11.5122 106.366 11.4962C104.33 11.4484 102.488 12.0082 102.017 13.1902C101.456 14.5906 103.044 15.3801 104.423 16.0293C105.52 16.5445 106.382 17.0342 106.081 17.6786C105.843 18.1762 105.07 18.4123 103.943 18.3868C102.969 18.3644 101.753 18.0853 100.793 17.6052L100.223 18.8318C100.928 19.1556 102.382 19.599 103.621 19.6277C105.949 19.6787 107.459 19.0981 108.062 17.8349C108.778 16.3467 107.006 15.5301 105.581 14.8474Z" fill="white"/>
<path d="M108.743 16.953C108.755 16.9817 108.775 16.9897 108.806 16.9897C108.838 16.9897 108.852 16.9801 108.86 16.953C108.873 16.9132 109.995 13.4583 109.995 13.4583C111.139 15.0837 112.274 17.2242 112.882 19.4859H114.748L115.669 16.6213C115.679 16.5926 115.7 16.5862 115.729 16.5862C115.759 16.5862 115.783 16.5957 115.785 16.6213C116.067 18.4189 117.864 19.6279 120.413 19.6279C122.064 19.6279 123.551 19.1972 123.922 18.9994L124.887 15.9753H128.598L128.974 14.8029H125.264L125.904 12.8187H130.328L130.712 11.6033H124.501L122.394 18.1541C121.947 18.2657 121.393 18.32 120.817 18.32C119.572 18.32 118.575 18.0265 118.01 17.3725C117.587 16.8797 117.418 16.2448 117.523 15.5366C117.773 13.8491 119.427 12.7836 121.64 12.7836C122.104 12.7836 122.584 12.8107 123.014 12.8666L123.45 11.5937C122.918 11.514 122.273 11.4773 121.64 11.4773C119.678 11.4773 117.974 12.1488 116.868 13.3307C116.834 13.3674 116.797 13.3658 116.776 13.3658C116.741 13.3658 116.72 13.3594 116.728 13.3307L117.284 11.6049H115.664L113.893 17.1285C113.33 15.5 112.169 13.353 110.751 11.6049H109.013L107.713 15.626C108.368 16.1045 108.573 16.4554 108.743 16.953Z" fill="white"/>
</g>
<defs>
<linearGradient id="paint0_linear_16694_7172" x1="98.6696" y1="13.0407" x2="133.325" y2="13.0407" gradientUnits="userSpaceOnUse">
<stop stop-color="#6B1258"/>
<stop offset="0.2472" stop-color="#A3116C"/>
<stop offset="0.8146" stop-color="#F0130B"/>
<stop offset="1" stop-color="#F0130B"/>
</linearGradient>
<clipPath id="clip0_16694_7172">
<rect width="133.371" height="32" fill="white"/>
</clipPath>
<clipPath id="clip1_16694_7172">
<rect width="82" height="32" fill="white"/>
</clipPath>
</defs>
</svg>
