<svg width="172" height="32" viewBox="0 0 172 32" fill="none" xmlns="http://www.w3.org/2000/svg">
<path d="M0.832379 0.0568038C0.327907 0.0803087 0 0.315358 0 0.816797V23.2464C0 23.6362 0.27746 23.9887 0.704321 23.9887H40.3675C40.7226 23.9887 41.0097 23.9574 41.1766 23.4814C41.1766 23.4814 45.1968 10.7829 45.2667 10.5557C45.4161 10.0738 45.321 9.83094 44.9136 9.57042C31.9932 1.21442 12.6778 0 3.90772 0C2.64848 0 1.60849 0.0235051 0.834319 0.0568038H0.832379Z" fill="url(#paint0_linear_184_20391)"/>
<path d="M9.03374 14.3929C7.57853 13.6819 6.58705 13.3117 6.8257 12.5967C7.10704 11.7505 8.57195 11.4313 9.8991 11.4626C10.5704 11.4802 11.0458 11.5664 11.591 11.6918L12.0722 10.162C11.3815 10.0327 10.8867 9.96808 10.0601 9.94653C7.40002 9.88385 4.99408 10.6262 4.37901 12.1932C3.64365 14.0521 5.72169 15.098 7.52032 15.9599C8.95225 16.6435 10.0815 17.2938 9.68567 18.1478C9.37523 18.8079 8.36434 19.1213 6.89361 19.086C5.62079 19.0567 4.0317 18.6864 2.77828 18.0499L2.03516 19.6776C2.95485 20.1085 4.85438 20.6942 6.47451 20.7353C9.51687 20.8019 11.4882 20.0321 12.2759 18.3574C13.2092 16.381 10.8945 15.2978 9.03374 14.3909V14.3929Z" fill="white"/>
<path d="M13.1649 17.1842C13.1804 17.2214 13.2056 17.2331 13.2464 17.2331C13.2871 17.2331 13.3065 17.2214 13.3182 17.1842C13.3356 17.1313 14.8006 12.5478 14.8006 12.5478C16.2946 14.7044 17.7769 17.5426 18.5705 20.5454H21.0075L22.2124 16.7434C22.2241 16.7062 22.2532 16.6964 22.29 16.6964C22.3269 16.6964 22.3599 16.7082 22.3638 16.7434C22.7324 19.1292 25.0821 20.7334 28.4097 20.7334C30.5653 20.7334 32.5095 20.1634 32.9926 19.9009L34.2538 15.8894H39.1025L39.5934 14.3342H34.7466L35.5829 11.7016H41.361L41.8616 10.0896H33.7493L30.9961 18.7805C30.4101 18.9294 29.6883 19.0019 28.9355 19.0019C27.3095 19.0019 26.0076 18.614 25.2703 17.7444C24.7173 17.0901 24.4981 16.2498 24.6339 15.3077C24.9599 13.0688 27.1213 11.6566 30.0123 11.6566C30.6196 11.6566 31.2464 11.6918 31.8071 11.7663L32.3775 10.0759C31.681 9.97011 30.8389 9.9231 30.0123 9.9231C27.4492 9.9231 25.2218 10.8143 23.7782 12.3813C23.7336 12.4303 23.6851 12.4283 23.6579 12.4283C23.6133 12.4283 23.5842 12.4205 23.5958 12.3813L24.3196 10.0915H22.2027L19.888 17.4192C19.1526 15.2587 17.6372 12.4107 15.7843 10.0915H13.5141L11.8164 15.4272C12.6701 16.0618 12.9398 16.528 13.163 17.1861L13.1649 17.1842Z" fill="white"/>
<path d="M0 27.8083H1.01671L2.01789 30.486H2.02953L3.04624 27.8083H4.00085L2.33221 31.8943H1.61819L0 27.8083Z" fill="#642974"/>
<path d="M4.91992 29.8511C4.91992 29.524 4.97425 29.2283 5.08291 28.9619C5.19156 28.6955 5.3429 28.4702 5.53693 28.2841C5.73096 28.0981 5.96185 27.9551 6.22767 27.8532C6.49349 27.7533 6.78647 27.7024 7.10273 27.7024C7.419 27.7024 7.71004 27.7533 7.9778 27.8532C8.24362 27.9531 8.47451 28.0961 8.66854 28.2841C8.86257 28.4702 9.01391 28.6974 9.12256 28.9619C9.23122 29.2283 9.28555 29.524 9.28555 29.8511C9.28555 30.1782 9.23122 30.474 9.12256 30.7404C9.01391 31.0068 8.86257 31.232 8.66854 31.4181C8.47451 31.6042 8.24362 31.7472 7.9778 31.8491C7.71004 31.9489 7.419 31.9999 7.10273 31.9999C6.78647 31.9999 6.49543 31.9489 6.22767 31.8491C5.95991 31.7492 5.73096 31.6062 5.53693 31.4181C5.3429 31.232 5.19156 31.0048 5.08291 30.7404C4.97425 30.476 4.91992 30.1782 4.91992 29.8511ZM5.84543 29.8511C5.84543 30.0431 5.87454 30.2194 5.93469 30.38C5.9929 30.5406 6.07827 30.6777 6.18886 30.7953C6.29946 30.9128 6.4314 31.0048 6.58662 31.0695C6.74184 31.1341 6.91259 31.1674 7.10467 31.1674C7.29676 31.1674 7.46751 31.1341 7.62273 31.0695C7.77795 31.0048 7.90989 30.9128 8.02049 30.7953C8.13108 30.6777 8.21645 30.5387 8.27466 30.38C8.33287 30.2213 8.36392 30.0451 8.36392 29.8511C8.36392 29.6572 8.33481 29.4868 8.27466 29.3262C8.21645 29.1636 8.13108 29.0245 8.02049 28.907C7.90989 28.7895 7.77795 28.6974 7.62273 28.6328C7.46751 28.5682 7.29676 28.5349 7.10467 28.5349C6.91259 28.5349 6.74184 28.5682 6.58662 28.6328C6.4314 28.6974 6.29946 28.7895 6.18886 28.907C6.07827 29.0245 5.9929 29.1636 5.93469 29.3262C5.87648 29.4888 5.84543 29.6631 5.84543 29.8511Z" fill="#642974"/>
<path d="M11.486 30.1527L9.96484 27.8101H11.0747L11.9323 29.3398L12.8403 27.8101H13.8978L12.3766 30.1527V31.896H11.4841V30.1527H11.486Z" fill="#642974"/>
<path d="M15.9376 27.8083H16.6749L18.4348 31.8943H17.4278L17.0785 31.0285H15.5069L15.1693 31.8943H14.1855L15.9357 27.8083H15.9376ZM16.281 28.9973L15.7902 30.2666H16.7797L16.283 28.9973H16.281Z" fill="#642974"/>
<path d="M23.2184 31.6062C22.9565 31.7452 22.681 31.8451 22.3958 31.9059C22.1105 31.9666 21.8176 31.9979 21.5207 31.9979C21.2044 31.9979 20.9134 31.947 20.6456 31.8471C20.3779 31.7472 20.1489 31.6042 19.9549 31.4162C19.7609 31.2301 19.6095 31.0029 19.5009 30.7385C19.3922 30.474 19.3379 30.1763 19.3379 29.8492C19.3379 29.5221 19.3922 29.2263 19.5009 28.9599C19.6095 28.6935 19.7609 28.4683 19.9549 28.2822C20.1489 28.0961 20.3798 27.9531 20.6456 27.8513C20.9115 27.7514 21.2044 27.7004 21.5207 27.7004C21.837 27.7004 22.1435 27.7396 22.4152 27.818C22.6868 27.8963 22.9274 28.0315 23.1331 28.2254L22.5044 28.9188C22.3822 28.7915 22.2444 28.6955 22.0931 28.6308C21.9398 28.5662 21.7497 28.5329 21.5207 28.5329C21.3306 28.5329 21.1579 28.5662 21.0026 28.6308C20.8474 28.6955 20.7155 28.7875 20.6049 28.9051C20.4943 29.0226 20.4089 29.1617 20.3507 29.3242C20.2925 29.4868 20.2615 29.6611 20.2615 29.8492C20.2615 30.0372 20.2906 30.2174 20.3507 30.378C20.4089 30.5387 20.4943 30.6758 20.6049 30.7933C20.7155 30.9108 20.8474 31.0029 21.0026 31.0675C21.1579 31.1322 21.3286 31.1655 21.5207 31.1655C21.7128 31.1655 21.8835 31.1439 22.0232 31.0989C22.1649 31.0538 22.2774 31.0088 22.3608 30.9637V30.2997H21.6352V29.4692H23.2184V31.6042V31.6062Z" fill="#642974"/>
<path d="M24.8633 27.8084H27.6127V28.6389H25.7539V29.4008H27.5098V30.2313H25.7539V31.0618H27.7155V31.8923H24.8633V27.8064V27.8084Z" fill="#642974"/>
<path d="M32.5594 30.3195C32.5594 30.5623 32.5226 30.7856 32.4508 30.9893C32.379 31.1931 32.2703 31.3693 32.1287 31.5202C31.9871 31.671 31.8086 31.7885 31.5932 31.8727C31.3798 31.957 31.1333 32.0001 30.8559 32.0001C30.5784 32.0001 30.3262 31.957 30.1128 31.8727C29.8993 31.7885 29.7208 31.671 29.5792 31.5202C29.4375 31.3693 29.3289 31.1931 29.2571 30.9893C29.1853 30.7856 29.1484 30.5623 29.1484 30.3195V27.8083H30.041V30.2842C30.041 30.4115 30.0604 30.529 30.1011 30.6368C30.1419 30.7445 30.1981 30.8385 30.2699 30.9169C30.3417 30.9952 30.429 31.0579 30.5299 31.101C30.6308 31.146 30.7395 31.1676 30.8578 31.1676C30.9762 31.1676 31.0848 31.146 31.1838 31.101C31.2827 31.0559 31.3681 30.9952 31.4418 30.9169C31.5136 30.8385 31.5699 30.7445 31.6107 30.6368C31.6514 30.529 31.6708 30.4115 31.6708 30.2842V27.8083H32.5633V30.3195H32.5594Z" fill="#642974"/>
<path d="M34.0957 27.8083H35.6615C35.8672 27.8083 36.0631 27.8279 36.2474 27.8691C36.4318 27.9102 36.5948 27.9768 36.7325 28.0708C36.8722 28.1648 36.9828 28.2922 37.0643 28.4508C37.1458 28.6095 37.1865 28.8093 37.1865 29.0482C37.1865 29.3362 37.1128 29.583 36.9634 29.7847C36.814 29.9865 36.5986 30.1138 36.3115 30.1686L37.3398 31.8943H36.2707L35.4248 30.2607H34.9843V31.8943H34.0918V27.8083H34.0957ZM34.9882 29.4987H35.514C35.5936 29.4987 35.6789 29.4968 35.7682 29.4909C35.8574 29.485 35.9389 29.4674 36.0107 29.438C36.0825 29.4086 36.1427 29.3636 36.1912 29.3029C36.2377 29.2421 36.263 29.154 36.263 29.0424C36.263 28.9385 36.2416 28.8563 36.2009 28.7936C36.1601 28.7309 36.1058 28.6859 36.0418 28.6526C35.9777 28.6193 35.9021 28.5977 35.8186 28.586C35.7352 28.5742 35.6537 28.5683 35.5722 28.5683H34.9882V29.4968V29.4987Z" fill="#642974"/>
<path d="M40.518 28.8071C40.4462 28.7151 40.3472 28.6465 40.223 28.6015C40.0989 28.5564 39.9824 28.5349 39.8718 28.5349C39.8078 28.5349 39.7399 28.5427 39.672 28.5584C39.6041 28.574 39.5381 28.5975 39.478 28.6308C39.4178 28.6641 39.3674 28.7072 39.3286 28.7601C39.2898 28.815 39.2723 28.8796 39.2723 28.956C39.2723 29.0794 39.3189 29.1734 39.4101 29.2381C39.5012 29.3027 39.6177 29.3595 39.7554 29.4045C39.8932 29.4496 40.0445 29.4966 40.2036 29.5436C40.3647 29.5906 40.5141 29.6553 40.6518 29.7395C40.7896 29.8237 40.906 29.9373 40.9972 30.0803C41.0884 30.2233 41.135 30.4133 41.135 30.6523C41.135 30.8912 41.0923 31.0773 41.0088 31.2458C40.9254 31.4142 40.8109 31.5552 40.6693 31.6669C40.5257 31.7785 40.3608 31.8608 40.1726 31.9157C39.9844 31.9685 39.7845 31.996 39.575 31.996C39.313 31.996 39.0686 31.9548 38.8435 31.8745C38.6184 31.7942 38.4089 31.663 38.2148 31.4828L38.8493 30.7796C38.9405 30.903 39.0569 30.997 39.1947 31.0656C39.3324 31.1341 39.478 31.1674 39.6254 31.1674C39.6972 31.1674 39.7709 31.1596 39.8447 31.1419C39.9184 31.1243 39.9863 31.0989 40.0445 31.0636C40.1027 31.0283 40.1512 30.9852 40.1881 30.9304C40.225 30.8756 40.2424 30.8129 40.2424 30.7404C40.2424 30.617 40.1959 30.521 40.1027 30.4486C40.0096 30.378 39.8912 30.3173 39.7515 30.2664C39.6099 30.2155 39.4586 30.1665 39.2936 30.1156C39.1307 30.0666 38.9774 29.998 38.8357 29.9138C38.6941 29.8296 38.5777 29.7179 38.4845 29.5789C38.3914 29.4398 38.3448 29.2576 38.3448 29.0304C38.3448 28.8032 38.3875 28.6191 38.4729 28.4526C38.5583 28.2861 38.6728 28.149 38.8163 28.0373C38.9599 27.9257 39.1248 27.8415 39.3111 27.7866C39.4974 27.7318 39.6895 27.7024 39.8893 27.7024C40.1183 27.7024 40.3394 27.7357 40.5529 27.8003C40.7663 27.865 40.9584 27.9747 41.1311 28.1294L40.5199 28.8052L40.518 28.8071Z" fill="#642974"/>
<path d="M52.3342 3.96362H52.3324C52.1488 3.96362 52 4.12068 52 4.31442V27.3488C52 27.5425 52.1488 27.6996 52.3324 27.6996H52.3342C52.5178 27.6996 52.6667 27.5425 52.6667 27.3488V4.31442C52.6667 4.12068 52.5178 3.96362 52.3342 3.96362Z" fill="#E0E0E0"/>
<path d="M61.1816 22.3047H62.0677V26.3517H66.8179V22.3047H67.7039V31.6378H66.8179V27.2217H62.0677V31.6378H61.1816V22.3047ZM71.2073 28.3158H74.9853L73.1024 23.412L71.2073 28.3158ZM69.9151 31.6378H68.8814L72.6717 22.3047H73.5331L77.3235 31.6378H76.2897L75.3298 29.1859H70.875L69.9151 31.6378ZM84.7263 28.1576C84.7263 28.5443 84.6811 28.9574 84.5909 29.3968C84.5088 29.8275 84.3488 30.2273 84.1109 30.5964C83.8729 30.9655 83.5449 31.273 83.1264 31.5192C82.7162 31.7564 82.187 31.8751 81.5389 31.8751C80.8825 31.8751 80.3493 31.7564 79.9391 31.5192C79.5288 31.273 79.2048 30.9655 78.9669 30.5964C78.7289 30.2273 78.5649 29.8275 78.4747 29.3968C78.3926 28.9574 78.3516 28.5443 78.3516 28.1576V22.3047H79.2377V28.0522C79.2377 28.5004 79.2787 28.887 79.3607 29.2122C79.4427 29.5286 79.5494 29.7966 79.6807 30.0164C79.8201 30.2361 79.9719 30.4118 80.136 30.5437C80.3083 30.6666 80.4764 30.7634 80.6406 30.8337C80.8129 30.9039 80.9769 30.9523 81.1328 30.9787C81.2886 30.9962 81.424 31.005 81.5389 31.005C81.6455 31.005 81.7768 30.9962 81.9327 30.9787C82.0968 30.9523 82.2608 30.9039 82.425 30.8337C82.5973 30.7634 82.7654 30.6666 82.9295 30.5437C83.1018 30.4118 83.2536 30.2361 83.3849 30.0164C83.5243 29.7966 83.6351 29.5286 83.7171 29.2122C83.7991 28.887 83.8402 28.5004 83.8402 28.0522V22.3047H84.7263V28.1576ZM89.7292 31.6378H88.8432V23.1747H85.9266V22.3047H92.6458V23.1747H89.7292V31.6378ZM98.1248 23.847C97.7392 23.2406 97.1772 22.9374 96.4388 22.9374C96.2092 22.9374 95.9835 22.9726 95.762 23.0429C95.5405 23.1044 95.3395 23.2054 95.159 23.3461C94.9867 23.4779 94.8472 23.6536 94.7406 23.8734C94.634 24.0843 94.5806 24.3348 94.5806 24.6248C94.5806 25.0466 94.6913 25.3762 94.9128 25.6134C95.1344 25.8419 95.4093 26.0309 95.7374 26.1803C96.0656 26.3296 96.4224 26.4659 96.808 26.5889C97.2018 26.7032 97.5629 26.8614 97.8909 27.0635C98.2191 27.2569 98.4939 27.5161 98.7155 27.8413C98.937 28.1665 99.0477 28.6102 99.0477 29.1727C99.0477 29.5945 98.9616 29.9768 98.7893 30.3196C98.6253 30.6535 98.4037 30.9348 98.1248 31.1632C97.854 31.3917 97.5464 31.5675 97.2018 31.6905C96.8655 31.8135 96.525 31.8751 96.1804 31.8751C95.6471 31.8751 95.1385 31.7696 94.6544 31.5587C94.1787 31.3389 93.7725 30.983 93.4361 30.4909L94.236 29.8714C94.4248 30.2141 94.6873 30.4909 95.0236 30.7018C95.36 30.9039 95.7579 31.005 96.2173 31.005C96.4388 31.005 96.6603 30.9698 96.8818 30.8996C97.1033 30.8205 97.3002 30.7107 97.4725 30.57C97.6531 30.4207 97.8007 30.2405 97.9156 30.0295C98.0305 29.8186 98.0878 29.577 98.0878 29.3045C98.0878 28.9793 98.0222 28.7113 97.8909 28.5004C97.7679 28.2806 97.5998 28.1006 97.3864 27.9599C97.1814 27.8106 96.9434 27.6874 96.6726 27.5908C96.4101 27.4942 96.1353 27.3974 95.8481 27.3008C95.5693 27.2042 95.2943 27.0942 95.0236 26.9712C94.7611 26.8482 94.5232 26.6944 94.3098 26.5098C94.1048 26.3165 93.9366 26.0792 93.8053 25.798C93.6822 25.508 93.6207 25.1477 93.6207 24.717C93.6207 24.2688 93.6987 23.8777 93.8545 23.5438C94.0187 23.2099 94.2319 22.9331 94.4944 22.7133C94.7652 22.4936 95.0688 22.331 95.4051 22.2256C95.7415 22.1201 96.0861 22.0674 96.4388 22.0674C96.9311 22.0674 97.3783 22.1508 97.7802 22.3178C98.1822 22.4849 98.5555 22.7792 98.9001 23.2011L98.1248 23.847ZM103.289 28.909H100.127V28.039H103.289V28.909ZM105.701 30.7678H107.424C108.089 30.7678 108.663 30.6623 109.147 30.4514C109.639 30.2316 110.045 29.9461 110.365 29.5945C110.694 29.2342 110.936 28.8299 111.091 28.3817C111.247 27.9247 111.325 27.4546 111.325 26.9712C111.325 26.4878 111.247 26.0221 111.091 25.5739C110.936 25.1169 110.694 24.7127 110.365 24.3611C110.045 24.0008 109.639 23.7152 109.147 23.5043C108.663 23.2845 108.089 23.1747 107.424 23.1747H105.701V30.7678ZM104.815 22.3047H107.707C108.249 22.3047 108.79 22.4013 109.332 22.5947C109.881 22.7881 110.374 23.0824 110.808 23.4779C111.251 23.8645 111.608 24.3523 111.879 24.9411C112.15 25.5212 112.285 26.1978 112.285 26.9712C112.285 27.7533 112.15 28.4345 111.879 29.0145C111.608 29.5945 111.251 30.0823 110.808 30.4777C110.374 30.8644 109.881 31.1544 109.332 31.3478C108.79 31.5412 108.249 31.6378 107.707 31.6378H104.815V22.3047ZM114.946 30.7678H119.61V31.6378H114.06V22.3047H119.462V23.1747H114.946V26.3517H119.167V27.2217H114.946V30.7678ZM123.804 28.909H120.641V28.039H123.804V28.909ZM126.339 31.6378H125.453V22.3047H130.708V23.1747H126.339V26.3517H130.4V27.2217H126.339V31.6378ZM133.177 26.4308H134.752C135.146 26.4308 135.478 26.3869 135.749 26.2989C136.028 26.211 136.249 26.0968 136.413 25.9562C136.577 25.8068 136.696 25.6355 136.77 25.4421C136.844 25.24 136.881 25.0246 136.881 24.7961C136.881 24.5764 136.844 24.3699 136.77 24.1766C136.696 23.9745 136.577 23.7986 136.413 23.6493C136.249 23.4999 136.028 23.3856 135.749 23.3065C135.478 23.2186 135.146 23.1747 134.752 23.1747H133.177V26.4308ZM133.177 31.6378H132.291V22.3047H134.974C135.86 22.3047 136.557 22.5112 137.066 22.9242C137.583 23.3372 137.841 23.9613 137.841 24.7961C137.841 25.4464 137.648 25.9957 137.263 26.4439C136.885 26.8833 136.336 27.1382 135.614 27.2085L138.124 31.6378H137.041L134.654 27.3008H133.177V31.6378ZM140.73 28.3158H144.508L142.625 23.412L140.73 28.3158ZM139.438 31.6378H138.404L142.195 22.3047H143.056L146.846 31.6378H145.813L144.853 29.1859H140.398L139.438 31.6378ZM154.323 30.2141H154.348V22.3047H155.234V31.6378H154.126L148.933 23.6493H148.908V31.6378H148.022V22.3047H149.13L154.323 30.2141ZM164.775 30.1614C164.627 30.3986 164.443 30.6227 164.221 30.8337C164.008 31.0446 163.762 31.2291 163.483 31.3873C163.204 31.5367 162.9 31.6553 162.572 31.7433C162.252 31.8312 161.912 31.8751 161.551 31.8751C160.902 31.8751 160.299 31.7521 159.742 31.506C159.192 31.2599 158.712 30.9216 158.302 30.4909C157.9 30.0516 157.584 29.533 157.354 28.9354C157.124 28.3378 157.01 27.6831 157.01 26.9712C157.01 26.2594 157.124 25.6046 157.354 25.0071C157.584 24.4095 157.9 23.8954 158.302 23.4647C158.712 23.0253 159.192 22.6826 159.742 22.4365C160.299 22.1904 160.902 22.0674 161.551 22.0674C162.092 22.0674 162.634 22.1817 163.175 22.4101C163.716 22.6386 164.18 23.0165 164.566 23.5438L163.79 24.1634C163.7 24.014 163.577 23.8645 163.421 23.7152C163.265 23.5658 163.085 23.434 162.88 23.3197C162.683 23.2054 162.469 23.1131 162.24 23.0429C162.01 22.9726 161.78 22.9374 161.551 22.9374C160.993 22.9374 160.492 23.0472 160.049 23.267C159.606 23.4867 159.229 23.7811 158.917 24.1502C158.613 24.5193 158.38 24.95 158.216 25.4421C158.052 25.9255 157.969 26.4351 157.969 26.9712C157.969 27.5074 158.052 28.0215 158.216 28.5136C158.38 28.997 158.613 29.4232 158.917 29.7923C159.229 30.1614 159.606 30.4557 160.049 30.6755C160.492 30.8952 160.993 31.005 161.551 31.005C161.78 31.005 162.006 30.983 162.227 30.9391C162.457 30.8952 162.679 30.8205 162.892 30.715C163.113 30.6096 163.319 30.4689 163.507 30.2932C163.704 30.1086 163.885 29.8802 164.049 29.6077L164.775 30.1614ZM167.151 30.7678H171.815V31.6378H166.265V22.3047H171.668V23.1747H167.151V26.3517H171.372V27.2217H167.151V30.7678Z" fill="#333333"/>
<path d="M62.7604 4.09333H58.75V1.22583H69.8679V4.09333H65.8575V15.9374H62.7604V4.09333ZM71.5598 1.22583H81.1092V4.21801H74.6569V6.96084H80.7519V9.95301H74.6569V12.9452H81.4666V15.9374H71.5598V1.22583ZM83.9459 1.22583H89.3857C90.1004 1.22583 90.7755 1.30202 91.4108 1.4544C92.0593 1.59293 92.6218 1.83534 93.0983 2.18166C93.5881 2.51413 93.9718 2.97127 94.2498 3.55308C94.541 4.12103 94.6866 4.83446 94.6866 5.69332C94.6866 6.73227 94.4285 7.61884 93.9123 8.35303C93.3961 9.07341 92.6417 9.53055 91.649 9.72445L95.2226 15.9374H91.51L88.5717 10.0569H87.043V15.9374H83.9459V1.22583ZM87.043 7.31408H88.8695C89.1475 7.31408 89.4387 7.30716 89.7431 7.2933C90.0607 7.2656 90.3454 7.20326 90.5968 7.10629C90.8483 6.99547 91.0534 6.82924 91.2122 6.60759C91.3843 6.38595 91.4703 6.07426 91.4703 5.67254C91.4703 5.29852 91.3976 5.00069 91.2519 4.77904C91.1064 4.55739 90.9211 4.39116 90.696 4.28034C90.4711 4.15567 90.213 4.07255 89.9218 4.031C89.6307 3.98944 89.346 3.96866 89.0681 3.96866H87.043V7.31408Z" fill="#333333"/>
<defs>
<linearGradient id="paint0_linear_184_20391" x1="0.00194028" y1="11.9934" x2="45.2725" y2="11.9934" gradientUnits="userSpaceOnUse">
<stop stop-color="#782A63"/>
<stop offset="0.25" stop-color="#A12771"/>
<stop offset="0.81" stop-color="#C93026"/>
<stop offset="1" stop-color="#C93026"/>
</linearGradient>
</defs>
</svg>
