<svg width="170" height="32" viewBox="0 0 170 32" fill="none" xmlns="http://www.w3.org/2000/svg">
<path d="M125.496 0.0568037C124.992 0.0803085 124.664 0.315358 124.664 0.816795V23.2463C124.664 23.6361 124.942 23.9887 125.368 23.9887H165.031C165.387 23.9887 165.674 23.9574 165.841 23.4814C165.841 23.4814 169.861 10.7829 169.931 10.5557C170.08 10.0738 169.985 9.83092 169.578 9.57041C156.657 1.21442 137.342 0 128.572 0C127.313 0 126.273 0.0235051 125.498 0.0568037H125.496Z" fill="url(#paint0_linear_184_20835)"/>
<path d="M133.698 14.3929C132.243 13.6818 131.251 13.3116 131.49 12.5967C131.771 11.7505 133.236 11.4313 134.563 11.4626C135.234 11.4802 135.71 11.5664 136.255 11.6918L136.736 10.162C136.046 10.0327 135.551 9.96808 134.724 9.94653C132.064 9.88385 129.658 10.6262 129.043 12.1932C128.308 14.0521 130.386 15.098 132.184 15.9599C133.616 16.6435 134.746 17.2938 134.35 18.1478C134.039 18.8079 133.028 19.1213 131.558 19.086C130.285 19.0566 128.696 18.6864 127.442 18.0498L126.699 19.6776C127.619 20.1085 129.518 20.6941 131.139 20.7353C134.181 20.8019 136.152 20.0321 136.94 18.3574C137.873 16.381 135.559 15.2978 133.698 14.3909V14.3929Z" fill="white"/>
<path d="M137.829 17.1841C137.844 17.2214 137.87 17.2331 137.91 17.2331C137.951 17.2331 137.971 17.2214 137.982 17.1841C138 17.1313 139.465 12.5478 139.465 12.5478C140.959 14.7044 142.441 17.5426 143.235 20.5453H145.672L146.876 16.7434C146.888 16.7062 146.917 16.6964 146.954 16.6964C146.991 16.6964 147.024 16.7082 147.028 16.7434C147.396 19.1292 149.746 20.7334 153.074 20.7334C155.229 20.7334 157.173 20.1634 157.657 19.9009L158.918 15.8894H163.767L164.257 14.3342H159.411L160.247 11.7016H166.025L166.526 10.0896H158.413L155.66 18.7805C155.074 18.9294 154.352 19.0019 153.6 19.0019C151.974 19.0019 150.672 18.614 149.934 17.7443C149.381 17.0901 149.162 16.2498 149.298 15.3077C149.624 13.0688 151.785 11.6566 154.676 11.6566C155.284 11.6566 155.91 11.6918 156.471 11.7663L157.042 10.0759C156.345 9.97011 155.503 9.9231 154.676 9.9231C152.113 9.9231 149.886 10.8143 148.442 12.3813C148.398 12.4303 148.349 12.4283 148.322 12.4283C148.277 12.4283 148.248 12.4205 148.26 12.3813L148.984 10.0915H146.867L144.552 17.4192C143.817 15.2587 142.301 12.4107 140.448 10.0915H138.178L136.48 15.4272C137.334 16.0618 137.604 16.528 137.827 17.1861L137.829 17.1841Z" fill="white"/>
<path d="M124.664 27.8081H125.681L126.682 30.4857H126.694L127.71 27.8081H128.665L126.996 31.894H126.282L124.664 27.8081Z" fill="#642974"/>
<path d="M129.584 29.8509C129.584 29.5238 129.638 29.228 129.747 28.9616C129.856 28.6952 130.007 28.47 130.201 28.2839C130.395 28.0978 130.626 27.9548 130.892 27.853C131.158 27.7531 131.451 27.7021 131.767 27.7021C132.083 27.7021 132.374 27.7531 132.642 27.853C132.908 27.9529 133.139 28.0959 133.333 28.2839C133.527 28.47 133.678 28.6972 133.787 28.9616C133.895 29.228 133.95 29.5238 133.95 29.8509C133.95 30.178 133.895 30.4738 133.787 30.7402C133.678 31.0065 133.527 31.2318 133.333 31.4179C133.139 31.604 132.908 31.7469 132.642 31.8488C132.374 31.9487 132.083 31.9996 131.767 31.9996C131.451 31.9996 131.159 31.9487 130.892 31.8488C130.624 31.7489 130.395 31.6059 130.201 31.4179C130.007 31.2318 129.856 31.0046 129.747 30.7402C129.638 30.4757 129.584 30.178 129.584 29.8509ZM130.509 29.8509C130.509 30.0428 130.539 30.2191 130.599 30.3797C130.657 30.5404 130.742 30.6775 130.853 30.795C130.964 30.9125 131.095 31.0046 131.251 31.0692C131.406 31.1339 131.577 31.1672 131.769 31.1672C131.961 31.1672 132.132 31.1339 132.287 31.0692C132.442 31.0046 132.574 30.9125 132.685 30.795C132.795 30.6775 132.881 30.5384 132.939 30.3797C132.997 30.2211 133.028 30.0448 133.028 29.8509C133.028 29.657 132.999 29.4866 132.939 29.3259C132.881 29.1634 132.795 29.0243 132.685 28.9068C132.574 28.7893 132.442 28.6972 132.287 28.6326C132.132 28.5679 131.961 28.5346 131.769 28.5346C131.577 28.5346 131.406 28.5679 131.251 28.6326C131.095 28.6972 130.964 28.7893 130.853 28.9068C130.742 29.0243 130.657 29.1634 130.599 29.3259C130.541 29.4885 130.509 29.6628 130.509 29.8509Z" fill="#642974"/>
<path d="M136.15 30.1527L134.629 27.8101H135.739L136.596 29.3398L137.504 27.8101H138.562L137.041 30.1527V31.896H136.148V30.1527H136.15Z" fill="#642974"/>
<path d="M140.6 27.8081H141.337L143.097 31.894H142.09L141.741 31.0283H140.169L139.831 31.894H138.848L140.598 27.8081H140.6ZM140.943 28.9971L140.452 30.2663H141.442L140.945 28.9971H140.943Z" fill="#642974"/>
<path d="M147.883 31.6062C147.621 31.7452 147.345 31.8451 147.06 31.9059C146.775 31.9666 146.482 31.9979 146.185 31.9979C145.868 31.9979 145.577 31.947 145.31 31.8471C145.042 31.7472 144.813 31.6042 144.619 31.4162C144.425 31.2301 144.274 31.0029 144.165 30.7384C144.056 30.474 144.002 30.1763 144.002 29.8492C144.002 29.5221 144.056 29.2263 144.165 28.9599C144.274 28.6935 144.425 28.4683 144.619 28.2822C144.813 28.0961 145.044 27.9531 145.31 27.8513C145.576 27.7514 145.868 27.7004 146.185 27.7004C146.501 27.7004 146.808 27.7396 147.079 27.818C147.351 27.8963 147.591 28.0315 147.797 28.2254L147.168 28.9188C147.046 28.7915 146.908 28.6955 146.757 28.6308C146.604 28.5662 146.414 28.5329 146.185 28.5329C145.995 28.5329 145.822 28.5662 145.667 28.6308C145.511 28.6955 145.38 28.7875 145.269 28.9051C145.158 29.0226 145.073 29.1617 145.015 29.3242C144.957 29.4868 144.926 29.6611 144.926 29.8492C144.926 30.0372 144.955 30.2174 145.015 30.378C145.073 30.5387 145.158 30.6758 145.269 30.7933C145.38 30.9108 145.511 31.0029 145.667 31.0675C145.822 31.1322 145.993 31.1655 146.185 31.1655C146.377 31.1655 146.548 31.1439 146.687 31.0989C146.829 31.0538 146.941 31.0088 147.025 30.9637V30.2997H146.299V29.4692H147.883V31.6042V31.6062Z" fill="#642974"/>
<path d="M149.527 27.8084H152.277V28.6389H150.418V29.4008H152.174V30.2313H150.418V31.0618H152.38V31.8923H149.527V27.8064V27.8084Z" fill="#642974"/>
<path d="M157.224 30.3192C157.224 30.5621 157.187 30.7854 157.115 30.9891C157.043 31.1928 156.934 31.3691 156.793 31.5199C156.651 31.6707 156.473 31.7883 156.257 31.8725C156.044 31.9567 155.797 31.9998 155.52 31.9998C155.242 31.9998 154.99 31.9567 154.777 31.8725C154.563 31.7883 154.385 31.6707 154.243 31.5199C154.102 31.3691 153.993 31.1928 153.921 30.9891C153.849 30.7854 153.812 30.5621 153.812 30.3192V27.8081H154.705V30.284C154.705 30.4113 154.724 30.5288 154.765 30.6365C154.806 30.7443 154.862 30.8383 154.934 30.9166C155.006 30.995 155.093 31.0577 155.194 31.1007C155.295 31.1458 155.404 31.1673 155.522 31.1673C155.64 31.1673 155.749 31.1458 155.848 31.1007C155.947 31.0557 156.032 30.995 156.106 30.9166C156.178 30.8383 156.234 30.7443 156.275 30.6365C156.315 30.5288 156.335 30.4113 156.335 30.284V27.8081H157.227V30.3192H157.224Z" fill="#642974"/>
<path d="M158.76 27.8081H160.326C160.531 27.8081 160.727 27.8277 160.912 27.8688C161.096 27.91 161.259 27.9766 161.397 28.0706C161.536 28.1646 161.647 28.2919 161.728 28.4506C161.81 28.6092 161.851 28.809 161.851 29.048C161.851 29.3359 161.777 29.5827 161.627 29.7845C161.478 29.9862 161.263 30.1135 160.976 30.1684L162.004 31.894H160.935L160.089 30.2604H159.648V31.894H158.756V27.8081H158.76ZM159.652 29.4985H160.178C160.258 29.4985 160.343 29.4965 160.432 29.4907C160.522 29.4848 160.603 29.4672 160.675 29.4378C160.747 29.4084 160.807 29.3633 160.855 29.3026C160.902 29.2419 160.927 29.1538 160.927 29.0421C160.927 28.9383 160.906 28.856 160.865 28.7934C160.824 28.7307 160.77 28.6856 160.706 28.6523C160.642 28.619 160.566 28.5975 160.483 28.5857C160.399 28.574 160.318 28.5681 160.236 28.5681H159.652V29.4965V29.4985Z" fill="#642974"/>
<path d="M165.182 28.8069C165.11 28.7148 165.011 28.6463 164.887 28.6012C164.763 28.5562 164.646 28.5346 164.536 28.5346C164.472 28.5346 164.404 28.5425 164.336 28.5581C164.268 28.5738 164.202 28.5973 164.142 28.6306C164.082 28.6639 164.031 28.707 163.993 28.7599C163.954 28.8147 163.936 28.8794 163.936 28.9557C163.936 29.0791 163.983 29.1732 164.074 29.2378C164.165 29.3024 164.282 29.3592 164.419 29.4043C164.557 29.4493 164.709 29.4964 164.868 29.5434C165.029 29.5904 165.178 29.655 165.316 29.7392C165.454 29.8235 165.57 29.9371 165.661 30.0801C165.752 30.223 165.799 30.413 165.799 30.652C165.799 30.891 165.756 31.0771 165.673 31.2455C165.589 31.414 165.475 31.555 165.333 31.6666C165.19 31.7783 165.025 31.8606 164.837 31.9154C164.648 31.9683 164.449 31.9957 164.239 31.9957C163.977 31.9957 163.733 31.9546 163.508 31.8743C163.282 31.794 163.073 31.6627 162.879 31.4825L163.513 30.7793C163.605 30.9027 163.721 30.9967 163.859 31.0653C163.997 31.1339 164.142 31.1672 164.289 31.1672C164.361 31.1672 164.435 31.1593 164.509 31.1417C164.582 31.1241 164.65 31.0986 164.709 31.0633C164.767 31.0281 164.815 30.985 164.852 30.9302C164.889 30.8753 164.906 30.8126 164.906 30.7402C164.906 30.6168 164.86 30.5208 164.767 30.4483C164.674 30.3778 164.555 30.3171 164.416 30.2661C164.274 30.2152 164.123 30.1662 163.958 30.1153C163.795 30.0663 163.641 29.9978 163.5 29.9136C163.358 29.8293 163.242 29.7177 163.149 29.5786C163.055 29.4396 163.009 29.2574 163.009 29.0302C163.009 28.803 163.052 28.6188 163.137 28.4523C163.222 28.2859 163.337 28.1487 163.48 28.0371C163.624 27.9254 163.789 27.8412 163.975 27.7864C164.161 27.7315 164.354 27.7021 164.553 27.7021C164.782 27.7021 165.004 27.7354 165.217 27.8001C165.43 27.8647 165.622 27.9744 165.795 28.1292L165.184 28.8049L165.182 28.8069Z" fill="#642974"/>
<path d="M117.668 3.96362H117.666C117.483 3.96362 117.334 4.12068 117.334 4.31442V27.3487C117.334 27.5425 117.483 27.6995 117.666 27.6995H117.668C117.852 27.6995 118.001 27.5425 118.001 27.3487V4.31442C118.001 4.12068 117.852 3.96362 117.668 3.96362Z" fill="#E0E0E0"/>
<path d="M28.4575 28.7081L28.3014 29.437H28.6116C28.8378 29.437 28.9828 29.3226 29.0362 29.0729C29.0904 28.8239 28.9939 28.7081 28.7684 28.7081H28.4575ZM29.1035 30.5915C29.0883 30.6606 29.0251 30.7122 28.8815 30.7122C28.7372 30.7122 28.6962 30.6606 28.7108 30.5915L28.7517 30.4004C28.8371 30.0035 28.7753 29.7726 28.5262 29.7726H28.2293L28.0537 30.5915C28.0384 30.6606 27.9753 30.7122 27.831 30.7122C27.6873 30.7122 27.6464 30.6606 27.661 30.5915L28.1099 28.4981C28.1266 28.4228 28.1696 28.3733 28.2612 28.3726H28.8725C29.2978 28.3733 29.5289 28.6062 29.4304 29.0666C29.3741 29.3296 29.2125 29.5166 29.005 29.6184C29.1903 29.7398 29.2375 29.9637 29.1688 30.2853" fill="#262262"/>
<path d="M31.04 27.6199L31.0969 27.6011C31.1628 27.6011 31.2246 27.689 31.2141 27.742L31.1746 27.8048L30.777 28.1305L30.7208 28.1501C30.6556 28.1501 30.5924 28.0608 30.6042 28.0085L30.6438 27.9457L31.04 27.6199ZM29.7612 30.6871C29.6855 30.6871 29.6633 30.6404 29.6821 30.5546L30.1213 28.5044C30.14 28.4193 30.1817 28.3726 30.2573 28.3726H31.3397C31.4015 28.3726 31.4348 28.4193 31.4091 28.5407C31.3828 28.6628 31.33 28.7081 31.2676 28.7088L30.4703 28.7081L30.3385 29.3234H31.0546C31.117 29.3234 31.1496 29.3687 31.1232 29.4908C31.0969 29.6108 31.0441 29.6582 30.9824 29.6582H30.2663L30.1178 30.3509H30.9324C30.9935 30.3509 31.0275 30.3976 31.0004 30.519C30.9748 30.6404 30.9227 30.6871 30.8596 30.6871" fill="#262262"/>
<path d="M31.544 30.0621C31.5585 29.993 31.6224 29.9407 31.7667 29.9407C31.9103 29.9407 31.9513 29.993 31.936 30.0621L31.9346 30.0719C31.8951 30.256 32.0234 30.3907 32.233 30.3907C32.4418 30.3907 32.6 30.2783 32.6403 30.0914C32.6819 29.8975 32.5771 29.7726 32.2566 29.6673C31.8902 29.5466 31.7022 29.3227 31.7757 28.9809C31.8611 28.5833 32.2253 28.3342 32.634 28.3342C33.0955 28.3342 33.3057 28.6328 33.2391 28.9418L33.2294 28.9913C33.2141 29.0597 33.151 29.1127 33.0066 29.1127C32.863 29.1127 32.8221 29.0604 32.8366 28.9906L32.8401 28.9739C32.8769 28.8065 32.7714 28.6691 32.5626 28.6691C32.3724 28.6691 32.2163 28.7737 32.1782 28.9516C32.1455 29.1064 32.233 29.2439 32.5404 29.352C32.9345 29.4936 33.1302 29.6805 33.0476 30.0691C32.9636 30.4569 32.6347 30.7262 32.1608 30.7262C31.689 30.7262 31.469 30.4144 31.5377 30.0914" fill="#262262"/>
<path d="M33.533 30.6871C33.4574 30.6871 33.4351 30.6403 33.4532 30.5545L33.8931 28.5037C33.9118 28.4193 33.9535 28.3733 34.0284 28.3726H35.1115C35.1733 28.3733 35.2059 28.4193 35.1802 28.5407C35.1539 28.6627 35.1018 28.7088 35.0394 28.7088L34.2421 28.7081L34.1103 29.3233H34.8257C34.8881 29.3233 34.9207 29.3687 34.8951 29.4908C34.8687 29.6114 34.816 29.6589 34.7549 29.6582L34.0381 29.6589L33.8896 30.3509H34.7042C34.766 30.3509 34.7986 30.3976 34.7722 30.519C34.7466 30.6403 34.6938 30.6871 34.6321 30.6871" fill="#262262"/>
<path d="M36.6432 29.5396L36.7369 29.1023C36.7945 28.8323 36.6696 28.6684 36.4406 28.6684C36.2116 28.6684 36.0166 28.833 35.9584 29.1029L35.8647 29.5396H36.6432ZM35.7925 29.8752L35.6392 30.5916C35.6239 30.6606 35.5608 30.7129 35.4171 30.7129C35.2728 30.7129 35.2319 30.6606 35.2471 30.5916L35.5684 29.0897C35.669 28.623 36.077 28.3335 36.5121 28.3342C36.9471 28.3335 37.2323 28.623 37.1317 29.0897L36.8097 30.5909C36.7952 30.6606 36.7313 30.7129 36.587 30.7129C36.4434 30.7129 36.4031 30.6606 36.4177 30.5909L36.5711 29.8745" fill="#262262"/>
<path d="M37.9385 29.9567C37.8809 30.2267 38.0058 30.3906 38.2348 30.3913C38.4638 30.3906 38.6588 30.2267 38.717 29.9567L39.0362 28.4681C39.0508 28.3983 39.1146 28.3474 39.2583 28.3474C39.4026 28.3474 39.4435 28.399 39.4283 28.4681L39.1063 29.97C39.0064 30.4366 38.5977 30.7254 38.1626 30.7254C37.7276 30.7254 37.4431 30.4366 37.5437 29.97L37.865 28.4681C37.8802 28.399 37.9434 28.3474 38.087 28.3474C38.2313 28.3474 38.2723 28.399 38.2584 28.4681" fill="#262262"/>
<path d="M41.2315 30.3509C41.4604 30.3509 41.6492 30.1869 41.7068 29.9177L41.874 29.142C41.9316 28.8727 41.8129 28.7088 41.5839 28.7081H41.2599L40.9081 30.3509H41.2315ZM40.5709 30.6871C40.4862 30.6864 40.4557 30.6313 40.4737 30.5483L40.9095 28.5142C40.9275 28.4291 40.9824 28.3726 41.067 28.3726L41.6519 28.3733C42.0877 28.3726 42.3694 28.6627 42.2695 29.128L42.0974 29.9309C41.9968 30.3976 41.5916 30.6864 41.1565 30.6871" fill="#262262"/>
<path d="M42.6092 30.6871C42.5335 30.6871 42.5113 30.6403 42.5294 30.5545L42.97 28.5037C42.988 28.4193 43.0296 28.3733 43.1046 28.3726L44.1877 28.3733C44.2495 28.3726 44.2821 28.4193 44.2564 28.5407C44.2307 28.6627 44.178 28.7088 44.1163 28.7081H43.3183L43.1865 29.3233H43.9018C43.965 29.3226 43.9976 29.368 43.9712 29.4908C43.9449 29.6114 43.8921 29.6589 43.8311 29.6582L43.1143 29.6589L42.9658 30.3509H43.7804C43.8422 30.3509 43.8755 30.3976 43.8484 30.519C43.8227 30.6403 43.77 30.6871 43.7083 30.6871" fill="#262262"/>
<path d="M46.2573 30.5918L46.5904 29.0369C46.6389 28.8137 46.5258 28.6686 46.3454 28.6686C46.1532 28.6686 45.9936 28.8004 45.9437 29.0369L45.6099 30.5918C45.5946 30.6601 45.5308 30.7131 45.3872 30.7131C45.2429 30.7124 45.2026 30.6601 45.2179 30.5918L45.5433 29.0704C45.6404 28.6197 45.9957 28.3344 46.4009 28.3337C46.6299 28.3337 46.8068 28.4398 46.8811 28.6002C47.0233 28.4391 47.2447 28.3337 47.4737 28.3337C47.8796 28.3337 48.1127 28.6197 48.0163 29.0704L47.6895 30.5918C47.6749 30.6608 47.611 30.7124 47.4674 30.7124C47.3231 30.7124 47.2822 30.6601 47.2967 30.5918L47.6305 29.0369C47.6811 28.8004 47.5784 28.6686 47.3855 28.6686C47.2058 28.6686 47.031 28.8137 46.9831 29.0369L46.6493 30.5918C46.6348 30.6601 46.5709 30.7131 46.4273 30.7131C46.2837 30.7131 46.242 30.6608 46.2573 30.5918Z" fill="#262262"/>
<path d="M49.7411 29.1032C49.7987 28.8332 49.6738 28.6693 49.4449 28.6693C49.2159 28.6686 49.0209 28.8339 48.9626 29.1025L48.7794 29.9577C48.7218 30.2269 48.8467 30.3902 49.0757 30.3902C49.3047 30.3909 49.4997 30.2269 49.558 29.9577L49.7411 29.1032ZM49.9444 29.9702C49.8438 30.4369 49.4386 30.7264 49.0042 30.7264C48.5685 30.7257 48.2875 30.4369 48.3874 29.9702L48.5761 29.0899C48.676 28.6225 49.082 28.3344 49.517 28.3337C49.9521 28.3344 50.2331 28.6232 50.1332 29.0899" fill="#262262"/>
<path d="M51.4387 29.3233C51.6316 29.3233 51.7572 29.1782 51.7926 29.0143C51.8266 28.8532 51.7634 28.7081 51.5699 28.7074L51.1743 28.7081L51.0425 29.3233H51.4387ZM51.2243 30.3509C51.4595 30.3509 51.5914 30.18 51.6295 30.0035C51.6663 29.8319 51.6018 29.6589 51.3992 29.6589H50.971L50.8219 30.3509H51.2243ZM50.4853 30.6871C50.4007 30.6871 50.3701 30.6313 50.3875 30.549L50.8239 28.5142C50.842 28.4284 50.8961 28.3726 50.9808 28.3726H51.6968C52.0861 28.3726 52.263 28.6495 52.1895 28.9913C52.143 29.211 52.0118 29.3784 51.8169 29.4803C52.0007 29.5856 52.0694 29.7795 52.0153 30.03C51.9432 30.3669 51.6531 30.6871 51.2014 30.6871" fill="#262262"/>
<path d="M52.8186 30.5917C52.8041 30.6608 52.7409 30.7124 52.5973 30.7124C52.453 30.7124 52.412 30.6608 52.4266 30.5917L52.8811 28.4683C52.897 28.3992 52.9602 28.3469 53.1038 28.3469C53.2474 28.3469 53.2884 28.3999 53.2738 28.4683" fill="#262262"/>
<path d="M53.5358 30.6866C53.4602 30.6866 53.4283 30.6405 53.4463 30.5547L53.8932 28.4683C53.9084 28.3992 53.9723 28.3469 54.1159 28.3469C54.2602 28.3469 54.3005 28.3992 54.2859 28.4683L53.8828 30.351H54.73C54.7918 30.351 54.8244 30.3971 54.798 30.5191C54.7716 30.6405 54.7196 30.6873 54.6578 30.6866" fill="#262262"/>
<path d="M55.594 30.5917C55.5795 30.6608 55.5163 30.7124 55.3727 30.7124C55.2284 30.7124 55.1874 30.6608 55.202 30.5917L55.6565 28.4683C55.6724 28.3999 55.7356 28.3469 55.8799 28.3469C56.0235 28.3469 56.0645 28.3999 56.0499 28.4683" fill="#262262"/>
<path d="M58.0141 28.3733C58.0766 28.3733 58.1092 28.4186 58.0828 28.5407C58.0572 28.6628 58.0037 28.7081 57.9427 28.7081H57.4479L57.0448 30.5916C57.0302 30.6599 56.9657 30.7122 56.8221 30.7122C56.6777 30.7122 56.6375 30.6599 56.6521 30.5922L57.0559 28.7081H56.5619C56.5001 28.7081 56.4668 28.6621 56.4939 28.5407C56.5188 28.4186 56.5716 28.3733 56.634 28.3733" fill="#262262"/>
<path d="M59.4423 27.6199L59.4992 27.6011C59.5651 27.6011 59.6276 27.689 59.6158 27.742L59.5762 27.8048L59.1787 28.1305L59.1231 28.1501C59.0572 28.1501 58.9948 28.0608 59.0066 28.0085L59.0454 27.9457L59.4423 27.6199ZM58.1635 30.6864C58.0879 30.6871 58.0657 30.6404 58.0844 30.5546L58.5236 28.5044C58.5417 28.4186 58.584 28.3726 58.6596 28.3726H59.7428C59.8045 28.3726 59.8364 28.4186 59.8108 28.5407C59.7851 28.6621 59.7331 28.7081 59.6706 28.7081H58.872L58.7401 29.3234H59.4569C59.5187 29.3234 59.552 29.368 59.5256 29.4908C59.4992 29.6108 59.4472 29.6582 59.3847 29.6582H58.6687L58.5202 30.3516L59.3341 30.3509C59.3965 30.3516 59.4291 30.3976 59.4035 30.519C59.3771 30.6404 59.3244 30.6871 59.2626 30.6871" fill="#262262"/>
<path d="M61.1885 30.5915C61.1732 30.6605 61.1101 30.7122 60.9657 30.7122C60.8221 30.7122 60.7812 30.6605 60.7957 30.5915L61.2516 28.4681C61.2662 28.3997 61.33 28.3467 61.4737 28.3474C61.6173 28.3467 61.6582 28.3997 61.643 28.4681" fill="#262262"/>
<path d="M62.2017 30.5918C62.1871 30.6608 62.1233 30.7124 61.9789 30.7124C61.8353 30.7124 61.7944 30.6608 61.8096 30.5918L62.1316 29.0899C62.2315 28.6225 62.6402 28.3337 63.0753 28.3337C63.5096 28.3337 63.7948 28.6225 63.6942 29.0899L63.3722 30.5918C63.3584 30.6601 63.2945 30.7124 63.1495 30.7124C63.0059 30.7124 62.9656 30.6601 62.9809 30.5918L63.2994 29.1032C63.3577 28.8332 63.2321 28.6686 63.0031 28.6686C62.7741 28.6686 62.5791 28.8332 62.5209 29.1032" fill="#262262"/>
<path d="M65.7524 28.3733C65.8142 28.3733 65.8475 28.4186 65.8218 28.5407C65.7955 28.6621 65.7427 28.7081 65.681 28.7081H65.1869L64.7824 30.5916C64.7671 30.6599 64.7047 30.7122 64.5604 30.7122C64.416 30.7122 64.3758 30.6599 64.3904 30.5916L64.7942 28.7081H64.3009C64.2384 28.7081 64.2058 28.6621 64.2315 28.5407C64.2571 28.4186 64.3092 28.3733 64.3723 28.3733" fill="#262262"/>
<path d="M65.9037 30.6871C65.8281 30.6871 65.8059 30.6403 65.8246 30.5545L66.2646 28.5037C66.2826 28.4193 66.3242 28.3733 66.3999 28.3726L67.483 28.3733C67.5448 28.3733 67.5774 28.4193 67.551 28.5407C67.5253 28.662 67.4726 28.7088 67.4108 28.7088L66.6129 28.7081L66.4804 29.3233H67.1971C67.2589 29.3233 67.2915 29.368 67.2658 29.4908C67.2395 29.6114 67.1874 29.6582 67.125 29.6582H66.4089L66.2604 30.3509H67.0743C67.1368 30.3509 67.1694 30.3976 67.1437 30.519C67.1173 30.6403 67.0653 30.6871 67.0028 30.6871" fill="#262262"/>
<path d="M68.4159 28.7081L68.259 29.4371H68.5699C68.7961 29.4371 68.9418 29.3227 68.9952 29.0729C69.0487 28.8239 68.9522 28.7081 68.7267 28.7081H68.4159ZM69.0626 30.5916C69.0466 30.6606 68.9834 30.7122 68.8391 30.7122C68.6962 30.7122 68.6546 30.6606 68.6698 30.5916L68.7108 30.4004C68.7954 30.0028 68.7337 29.7726 68.4852 29.7726H68.1876L68.012 30.5916C67.9968 30.6599 67.9336 30.7122 67.79 30.7122C67.6457 30.7122 67.6054 30.6606 67.62 30.5909L68.0689 28.4975C68.0849 28.4228 68.1279 28.3733 68.2195 28.3733H68.8315C69.2561 28.3733 69.4872 28.6063 69.3887 29.0667C69.3325 29.3297 69.1715 29.5166 68.9626 29.6191C69.1493 29.7398 69.1965 29.9637 69.1278 30.2853" fill="#262262"/>
<path d="M70.1585 29.9567C70.1009 30.2267 70.2258 30.3906 70.4548 30.3913C70.6838 30.3906 70.8795 30.2267 70.9371 29.9567L71.2562 28.4681C71.2715 28.399 71.3347 28.3474 71.479 28.3474C71.6226 28.3474 71.6635 28.399 71.649 28.4681L71.327 29.97C71.2264 30.4366 70.8184 30.7254 70.3827 30.7254C69.9483 30.7254 69.6638 30.4366 69.7644 29.9693L70.0857 28.4681C70.1009 28.399 70.1634 28.3474 70.307 28.3474C70.452 28.3474 70.493 28.399 70.4777 28.4681" fill="#262262"/>
<path d="M72.5882 28.7081L72.4314 29.437H72.7422C72.9678 29.437 73.1135 29.3226 73.1676 29.0729C73.221 28.8239 73.1239 28.7081 72.8991 28.7081H72.5882ZM73.2342 30.5915C73.2189 30.6606 73.1558 30.7122 73.0122 30.7122C72.8685 30.7122 72.8269 30.6606 72.8415 30.5915L72.8831 30.4004C72.9678 30.0028 72.9053 29.7726 72.6576 29.7726H72.3592L72.1844 30.5915C72.1691 30.6606 72.106 30.7122 71.9616 30.7122C71.818 30.7122 71.7778 30.6606 71.7916 30.5915L72.2406 28.4974C72.2572 28.4228 72.3002 28.3726 72.3918 28.3726H73.0031C73.4285 28.3733 73.6595 28.6062 73.561 29.0666C73.5048 29.3296 73.3431 29.5166 73.1357 29.6191C73.3216 29.7398 73.3695 29.9637 73.2994 30.2853" fill="#262262"/>
<path d="M74.8652 29.3236C75.0574 29.3236 75.1837 29.1792 75.2184 29.0146C75.2538 28.8534 75.1892 28.7083 74.9963 28.7076L74.6008 28.7083L74.469 29.3236H74.8652ZM74.6508 30.3511C74.886 30.3511 75.0171 30.1802 75.056 30.0037C75.0921 29.8321 75.0282 29.6584 74.8249 29.6591H74.3968L74.249 30.3511H74.6508ZM73.9111 30.6866C73.8265 30.6866 73.7959 30.6315 73.8133 30.5492L74.2497 28.5144C74.2685 28.4286 74.3226 28.3728 74.4072 28.3728H75.1233C75.5133 28.3728 75.6888 28.6497 75.6166 28.9915C75.5695 29.2113 75.4376 29.3794 75.2433 29.4805C75.4265 29.5859 75.4959 29.7798 75.4425 30.0295C75.3696 30.3678 75.0796 30.6873 74.6279 30.6866" fill="#262262"/>
<path d="M77.2233 29.5396L77.317 29.1022C77.3746 28.833 77.249 28.6684 77.02 28.6691C76.791 28.6691 76.596 28.833 76.5377 29.1029L76.4441 29.5396H77.2233ZM76.3726 29.8752L76.2193 30.5916C76.2047 30.6606 76.1409 30.7129 75.9965 30.7129C75.8529 30.7129 75.812 30.6606 75.8272 30.5916L76.1485 29.0897C76.2491 28.623 76.6571 28.3342 77.0922 28.3342C77.5272 28.3342 77.8124 28.623 77.7118 29.0897L77.3898 30.5909C77.3753 30.6606 77.3114 30.7136 77.1671 30.7136C77.0235 30.7136 76.9825 30.6599 76.9978 30.5909L77.1518 29.8752" fill="#262262"/>
<path d="M78.4065 30.5917C78.392 30.6608 78.3281 30.7124 78.1845 30.7124C78.0409 30.7124 77.9999 30.6608 78.0145 30.5917L78.4697 28.4683C78.4849 28.3999 78.5474 28.3469 78.6924 28.3469C78.8353 28.3469 78.8763 28.3992 78.8617 28.4683" fill="#262262"/>
<path d="M79.4191 30.5915C79.4039 30.6606 79.34 30.7122 79.1957 30.7115C79.0528 30.7122 79.0111 30.6599 79.0264 30.5915L79.3491 29.0897C79.4483 28.623 79.857 28.3335 80.292 28.3335C80.7271 28.3335 81.0123 28.623 80.911 29.0897L80.589 30.5915C80.5751 30.6599 80.5113 30.7122 80.367 30.7122C80.2233 30.7122 80.1824 30.6599 80.1977 30.5915L80.5169 29.1029C80.5744 28.833 80.4495 28.6683 80.2199 28.6683C79.9909 28.6683 79.7959 28.833 79.7376 29.1029" fill="#262262"/>
<path d="M81.2788 30.6873C81.2032 30.6873 81.1817 30.6406 81.199 30.5548L81.6396 28.5039C81.657 28.4195 81.6993 28.3735 81.7749 28.3728L82.8581 28.3735C82.9198 28.3735 82.9524 28.4195 82.9268 28.5409C82.8997 28.663 82.8477 28.709 82.7859 28.709L81.9879 28.7083L81.8554 29.3236H82.5722C82.6339 29.3236 82.6666 29.3689 82.6416 29.491C82.6145 29.6117 82.5625 29.6591 82.5 29.6584L81.7839 29.6591L81.6355 30.3511H82.4494C82.5118 30.3511 82.5444 30.3978 82.5188 30.5192C82.4924 30.6406 82.4403 30.6873 82.3772 30.6873" fill="#262262"/>
<mask id="mask0_184_20835" style="mask-type:luminance" maskUnits="userSpaceOnUse" x="0" y="27" width="26" height="5">
<path d="M0 27.144H25.2237V31.9998H0V27.144Z" fill="white"/>
</mask>
<g mask="url(#mask0_184_20835)">
<path d="M24.9371 28.6841H21.551C21.1978 27.7843 20.327 27.146 19.307 27.1467C18.2856 27.146 17.4148 27.7843 17.0623 28.6841H11.6667C11.3135 27.7843 10.4434 27.1467 9.42205 27.146C8.40136 27.146 7.53124 27.7836 7.17806 28.6841H0.725725C0.461359 28.6841 0.144258 29.1724 0.0311567 29.7291C-0.0687612 30.2843 0.0811156 30.4615 0.345482 30.4622H7.17736C7.53193 31.3607 8.40136 31.9997 9.42205 31.999C10.4434 31.999 11.3135 31.3607 11.6667 30.4615L17.063 30.4622C17.4148 31.3614 18.2856 31.999 19.307 31.999C20.327 31.999 21.1978 31.3607 21.551 30.4615H24.3292C24.5929 30.4622 24.8378 30.2843 25.0342 29.7284C25.2174 29.1731 25.2014 28.6841 24.9371 28.6841Z" fill="#262262"/>
</g>
<mask id="mask1_184_20835" style="mask-type:luminance" maskUnits="userSpaceOnUse" x="85" y="27" width="26" height="5">
<path d="M85.2676 27.1443H110.669V32H85.2676V27.1443Z" fill="white"/>
</mask>
<g mask="url(#mask1_184_20835)">
<path d="M110.254 28.6844H103.4C103.047 27.7845 102.176 27.147 101.156 27.147C100.136 27.147 99.2645 27.7839 98.912 28.6844H93.5164C93.1619 27.7845 92.2918 27.147 91.2718 27.147C90.2511 27.147 89.3809 27.7845 89.0271 28.6844H86.2488C85.9844 28.6844 85.7395 28.8616 85.5438 29.4176C85.3606 29.9735 85.3766 30.4618 85.641 30.4618L87.7899 30.4625L88.1479 30.4618H89.0271C89.3803 31.361 90.2511 31.9992 91.2718 31.9999C92.2924 31.9999 93.1626 31.3617 93.5157 30.4625L98.912 30.4618C99.2645 31.361 100.135 31.9999 101.156 31.9999C102.176 31.9999 103.047 31.361 103.4 30.4618H109.873C110.137 30.4618 110.455 29.9735 110.568 29.4176C110.668 28.8616 110.518 28.6844 110.254 28.6844Z" fill="#262262"/>
</g>
<path d="M69.9854 17.9022C68.4921 17.9022 67.9176 18.4219 67.8031 19.086L67.7747 19.1718C67.631 19.9231 66.8844 20.5872 65.8221 20.5872C64.8167 20.5872 64.2429 20.0096 64.4149 18.9995L64.501 18.5663L64.5003 18.567C64.5648 18.341 64.6217 18.1087 64.6696 17.8694L65.6306 12.9035H65.6237L65.8762 11.5865C66.0337 10.8261 65.6244 10.2883 63.9875 10.2883C62.3507 10.2883 61.7518 10.8261 61.595 11.5865L60.3856 17.746H60.3863L60.3252 18.0592C60.097 19.2374 59.4752 19.9656 58.5385 20.0912V20.0905C58.4428 20.1037 58.3456 20.1156 58.2443 20.1163C57.3117 20.1156 56.8108 19.5596 56.8663 18.5558L57.9688 12.8058C58.7252 9.00826 56.5214 6.88696 53.4045 6.88696C51.6733 6.88696 50.067 7.55174 48.9651 8.62739C48.3046 7.55174 46.9501 6.88696 45.2189 6.88696C43.7236 6.88696 42.2519 7.38084 41.0397 8.3086C40.3222 7.42269 39.0747 6.88766 37.5225 6.88696C37.0333 6.88696 36.5483 6.94486 36.0723 7.0481C37.5127 8.04771 38.4585 9.71629 38.4578 11.6095C38.4578 11.8153 38.4446 12.0204 38.4231 12.2213C38.4127 12.337 38.3974 12.457 38.3725 12.584L38.3815 12.5721C38.3634 12.6503 38.3405 12.7249 38.3246 12.8051L36.4671 22.4901C36.3096 23.2498 36.719 23.7876 38.3565 23.7876C39.9933 23.7876 40.5908 23.2498 40.7483 22.4901L42.6689 12.6154C42.9208 11.3179 43.6445 10.5583 44.7471 10.559C45.817 10.5583 46.3208 11.2865 46.0689 12.584L44.1483 22.4901C43.9914 23.2498 44.4008 23.7876 46.037 23.7876C47.6745 23.7876 48.272 23.2498 48.4309 22.4908L50.3508 12.5833C50.6027 11.2865 51.3583 10.5583 52.429 10.559C53.365 10.559 53.841 11.1121 53.8098 12.0734L52.6434 18.0906L52.6593 18.1359C52.0591 21.7626 54.2233 23.7876 57.2653 23.7876C57.3513 23.7876 57.4359 23.7792 57.5213 23.7757C57.6073 23.7792 57.6885 23.7876 57.7753 23.7876C59.1491 23.7876 60.5036 23.3746 61.6547 22.5885C62.4762 23.3621 63.7072 23.7918 65.276 23.7918C68.6934 23.7911 71.2204 21.6558 71.6506 19.2883L71.7082 19.0867C71.8227 18.4505 71.5077 17.9022 69.9854 17.9022Z" fill="#00AEEF"/>
<path d="M66.5432 7.68258C66.3545 8.66405 65.5357 9.58135 64.0237 9.58135C62.5139 9.58135 62.0726 8.66405 62.262 7.68258L62.5 6.32163C62.6894 5.34085 63.5068 4.42355 65.0181 4.42285C66.53 4.42355 66.9699 5.34085 66.7819 6.32163" fill="#F4D044"/>
<path d="M32.4013 11.8047C32.2757 12.595 31.74 13.0708 30.8276 13.2919L29.0964 13.7349C28.7182 13.8304 28.3401 13.9567 28.152 14.115L28.5302 12.2163C28.7495 11.0451 29.5363 10.2219 30.7964 10.2212C31.8976 10.2219 32.5907 10.8232 32.4013 11.8047ZM15.3702 5.06342H17.2596C19.2434 5.06342 20.0934 6.17046 19.6833 8.38663C19.2434 10.6014 17.9528 11.7091 15.9683 11.7091H14.0803L15.3702 5.06342ZM31.552 6.70898C28.2145 6.70898 24.9408 8.54428 24.1845 12.5002L23.1457 17.8812C23.1221 18.0047 23.1096 18.1226 23.0916 18.2432C22.7918 19.3684 22.0751 20.0018 21.0828 20.0018C20.3452 20.0011 19.8921 19.66 19.7471 19.0454L19.7353 19.0524L18.7736 15.1384L18.7667 15.1398L18.7375 15.0219C20.6013 14.4199 22.4595 13.2773 23.3893 11.1246L23.3546 11.1399C23.7633 10.3287 24.0769 9.41135 24.2795 8.38663C25.1927 3.63829 22.8002 1.13822 18.4877 1.13892L12.789 1.13822C12.7404 1.13822 12.6995 1.14519 12.6537 1.14868C11.9383 1.028 11.2291 0.783156 10.4777 0.406471L10.0863 0.211152C9.17873 -0.238778 8.10392 0.0269947 7.34274 1.04056C6.58295 2.05412 6.78417 2.95259 7.69037 3.40321L8.04009 3.56714C8.93171 4.01428 9.90244 4.29331 10.912 4.41678L7.43711 22.3435C7.28029 23.1032 7.78335 23.6724 9.48404 23.6724C11.184 23.6724 11.8758 23.1032 12.034 22.3435L13.3246 15.6336L14.4959 15.6343L15.4493 20.0018C15.7941 22.3777 17.6724 23.6724 20.1066 23.6724C21.6386 23.6724 23.0708 23.1506 24.1442 22.2849C25.0414 23.2169 26.4388 23.7359 28.2457 23.7359C31.9926 23.7359 34.7633 21.3934 35.2344 18.7985L35.2982 18.5774C35.4231 17.8819 35.0776 17.2792 33.4088 17.2792C31.7713 17.2792 31.1419 17.8491 31.0163 18.5774L30.9851 18.6722C30.8276 19.4947 30.0095 20.2229 28.8445 20.2229C27.7426 20.2229 27.1126 19.5895 27.3006 18.4825L27.3964 18.0075C27.4908 17.5959 27.9633 17.3113 28.9389 17.0895L31.6776 16.4568C34.5419 15.792 36.2107 14.3683 36.6832 11.931C37.2175 9.14558 35.3295 6.70898 31.552 6.70898Z" fill="#262262"/>
<path d="M27.6172 6.3504L27.6942 6.31552C28.6407 5.88931 29.6634 5.62075 30.7133 5.50914C32.586 5.20779 34.5011 5.10036 36.299 4.49976C36.8582 4.31211 37.4348 4.05192 37.761 3.55735C38.1433 2.97558 38.0579 2.12734 37.5674 1.63416C37.3523 1.41791 37.2246 1.27212 36.9547 1.13051C36.641 0.965887 36.1775 0.799867 35.8362 0.708486C35.5621 0.635939 35.2776 0.611524 34.9952 0.597573C32.8095 0.488752 30.5197 1.00286 28.8454 2.41962C28.0349 3.10463 27.2529 3.81405 26.7873 4.58556C26.5369 5.00061 26.1982 5.61517 25.9908 6.05324C25.7465 6.56874 25.623 7.12749 25.5391 7.69322C26.1622 7.14074 26.8651 6.69709 27.6172 6.3504Z" fill="#11B14B"/>
<path d="M94.9711 13.5884C94.5791 13.5884 94.187 13.5703 93.8026 13.5333C92.9179 13.4489 92.0381 13.3003 91.186 13.1559C90.4963 13.0388 89.8253 12.9271 89.1641 12.8469C90.1063 13.8172 91.0209 14.812 91.7182 15.9881C91.8854 16.2685 91.7709 16.5364 91.5656 16.6814L92.2095 17.4578C93.3224 16.1492 94.5756 14.9731 95.7579 13.7175C95.8079 13.6631 95.8599 13.6066 95.9106 13.5515C95.6018 13.5745 95.2889 13.5884 94.9711 13.5884Z" fill="#11B14B"/>
<path d="M79.5664 21.5673C79.4415 21.5052 79.2202 21.4739 79.0301 21.4732C78.2973 21.4732 77.8123 21.997 77.8123 22.6053C77.8123 23.1159 78.2384 23.4054 78.6693 23.4047C78.8913 23.4047 79.1279 23.3384 79.3097 23.2408L79.2285 23.6112C79.0696 23.6851 78.9024 23.7319 78.5846 23.7319C78.0489 23.7319 77.4355 23.3503 77.4355 22.6095C77.4355 21.8052 78.0649 21.146 79.046 21.146C79.2785 21.146 79.5075 21.1851 79.6365 21.2437" fill="#262262"/>
<path d="M80.7249 22.188C80.4841 22.188 80.1198 22.4056 80.0497 22.8005C80.5389 22.7998 80.9074 22.5661 80.9074 22.3631C80.9074 22.2654 80.8685 22.188 80.7249 22.188ZM80.0345 23.0767C80.0581 23.2755 80.201 23.4164 80.4612 23.4164C80.6506 23.4164 80.8331 23.346 80.9774 23.2253L80.8879 23.6075C80.7721 23.685 80.5972 23.7282 80.4341 23.7282C79.988 23.7282 79.6667 23.4625 79.666 22.9749C79.666 22.3317 80.2516 21.8762 80.7561 21.8755C81.0822 21.8755 81.2605 22.0548 81.2598 22.3087C81.2605 22.7963 80.7172 23.0767 80.0345 23.0767Z" fill="#262262"/>
<path d="M83.1155 22.4447L82.8977 23.6849H82.5459L82.7631 22.437L82.7665 22.3826C82.7665 22.2689 82.7006 22.1677 82.5604 22.1677C82.2933 22.1677 81.963 22.3784 81.8423 23.0655L81.734 23.6849H81.3809L81.691 21.9187H81.9824L81.9436 22.25L81.9519 22.2535C82.1073 22.0275 82.285 21.8748 82.6264 21.8748C82.8748 21.8748 83.1239 22.0666 83.1239 22.3554" fill="#262262"/>
<path d="M84.664 22.184H84.1047L83.934 23.1864C83.9111 23.3224 83.9965 23.4047 84.1054 23.4047C84.1713 23.4047 84.2095 23.3928 84.2678 23.3461L84.1984 23.6544C84.1477 23.6851 84.0777 23.7005 83.984 23.7005C83.7328 23.7005 83.5274 23.4947 83.585 23.1627L83.7557 22.184H83.4102L83.4573 21.9182H83.8029L83.8639 21.5596L84.2449 21.3755L84.1512 21.9182H84.7216" fill="#262262"/>
<path d="M85.9603 22.1915C85.6619 22.1915 85.2733 22.5431 85.1651 23.1744L85.0763 23.685H84.7266L85.0367 21.9187L85.3282 21.918L85.265 22.4022L85.274 22.4056C85.3823 22.0743 85.6459 21.8957 85.9679 21.895L86.038 22.1915" fill="#262262"/>
<path d="M87.1116 22.188C86.8715 22.188 86.5065 22.4063 86.4364 22.8005C86.9256 22.7998 87.2941 22.5654 87.2941 22.3631C87.2941 22.2654 87.2559 22.188 87.1116 22.188ZM86.4212 23.0767C86.4448 23.2755 86.5877 23.4164 86.8479 23.4164C87.038 23.4164 87.2205 23.346 87.3642 23.2253L87.2753 23.6075C87.1588 23.685 86.9839 23.7282 86.8209 23.7282C86.3747 23.7282 86.0527 23.4631 86.0527 22.9749C86.0527 22.3317 86.6384 21.8755 87.1435 21.8755C87.4689 21.8755 87.6473 22.0548 87.6473 22.3087C87.648 22.7963 87.104 23.0767 86.4212 23.0767Z" fill="#262262"/>
<path d="M87.9543 22.4524L87.9043 22.737H88.8736L88.9243 22.4524H87.9543Z" fill="#262262"/>
<path d="M89.9023 23.7199H89.7823L89.2383 21.1968H89.6109L89.8628 22.3819C89.8975 22.5542 89.937 22.7649 89.9641 22.9756H89.9724C90.0723 22.7684 90.1813 22.5619 90.2826 22.3819L90.9452 21.1968H91.3261" fill="#262262"/>
<path d="M92.2303 22.1951C91.7953 22.1958 91.3727 22.5934 91.3727 23.1236C91.3727 23.3384 91.481 23.4361 91.6482 23.4361C91.8772 23.4361 92.1915 23.155 92.2768 22.6953L92.3663 22.2028C92.3393 22.1993 92.2886 22.1958 92.2303 22.1951ZM92.4593 23.6858L92.1679 23.6851L92.2067 23.3538L92.1991 23.3503C92.052 23.6349 91.8154 23.7284 91.5746 23.7277C91.2915 23.7284 91.0195 23.5254 91.0195 23.1473C91.0195 22.359 91.6641 21.9028 92.2609 21.9028C92.4781 21.9028 92.6529 21.9189 92.766 21.9377" fill="#262262"/>
<path d="M93.3945 23.2441L93.3861 23.3076C93.3868 23.4359 93.4687 23.5057 93.561 23.5294L93.3362 23.7554C93.1967 23.7275 93.0378 23.5922 93.0371 23.3341C93.0371 23.2915 93.0413 23.2483 93.0489 23.2016L93.4527 20.908H93.8059" fill="#262262"/>
<path d="M95.4885 22.1957C95.0889 22.1957 94.6774 22.5696 94.6781 23.069C94.6774 23.3069 94.8058 23.4359 94.9994 23.4359C95.236 23.4359 95.5461 23.1548 95.6322 22.6951L95.721 22.211C95.6669 22.1992 95.5857 22.1957 95.4885 22.1957ZM95.8147 23.685H95.5232L95.5621 23.3536L95.5545 23.3501C95.406 23.6347 95.1659 23.7282 94.8863 23.7282C94.6032 23.7282 94.3242 23.5022 94.3242 23.0732C94.3242 22.3631 94.9452 21.902 95.5191 21.9027C95.6363 21.9027 95.7092 21.9062 95.7716 21.9145L95.95 20.908H96.3031" fill="#262262"/>
<path d="M97.4182 22.188C97.1775 22.188 96.8132 22.4063 96.7431 22.7998C97.2323 22.7998 97.6014 22.5661 97.6007 22.3624C97.6007 22.2654 97.5619 22.188 97.4182 22.188ZM96.7271 23.0767C96.7514 23.2755 96.895 23.4164 97.1546 23.4164C97.3447 23.4164 97.5272 23.346 97.6708 23.2253L97.5806 23.6075C97.4654 23.685 97.2906 23.7282 97.1275 23.7282C96.6813 23.7275 96.3594 23.4631 96.3594 22.9749C96.3594 22.3317 96.945 21.8755 97.4495 21.8755C97.7756 21.8755 97.9532 22.0548 97.9532 22.3087C97.9539 22.7956 97.4106 23.0767 96.7271 23.0767Z" fill="#262262"/>
<path d="M99.9505 23.6857H98.4844L98.9187 21.1968H99.2955L98.9146 23.3809H100.005" fill="#262262"/>
<path d="M101.29 22.1873C100.945 22.1873 100.604 22.55 100.604 22.9714C100.604 23.272 100.755 23.4164 101 23.4164C101.341 23.4164 101.687 23.0579 101.687 22.6323C101.687 22.3359 101.531 22.1873 101.29 22.1873ZM100.96 23.7282C100.542 23.7282 100.243 23.4631 100.242 23.0069C100.243 22.3784 100.747 21.8755 101.325 21.8755C101.744 21.8755 102.043 22.1441 102.043 22.601C102.043 23.2295 101.539 23.7282 100.96 23.7282Z" fill="#262262"/>
<path d="M102.856 21.579C102.778 21.579 102.669 21.4506 102.67 21.3802C102.67 21.2986 102.856 21.1458 102.929 21.1465C103.007 21.1458 103.115 21.2783 103.115 21.3488C103.115 21.4269 102.929 21.579 102.856 21.579ZM102.661 23.6856L102.305 23.6849L102.615 21.9187H102.972" fill="#262262"/>
<path d="M104.438 22.1915C104.139 22.1915 103.751 22.5431 103.642 23.1744L103.554 23.6857L103.203 23.685L103.514 21.9188H103.805L103.743 22.4022L103.751 22.4057C103.86 22.0743 104.123 21.8958 104.446 21.8958L104.515 22.1915" fill="#262262"/>
<path d="M105.589 22.188C105.348 22.188 104.984 22.4056 104.913 22.8005C105.402 22.7998 105.771 22.5661 105.771 22.3631C105.771 22.2654 105.732 22.188 105.589 22.188ZM104.898 23.0767C104.922 23.2755 105.065 23.4164 105.325 23.4164C105.515 23.4164 105.697 23.346 105.841 23.2253L105.751 23.6075C105.635 23.685 105.461 23.7282 105.297 23.7282C104.851 23.7282 104.53 23.4625 104.529 22.9749C104.529 22.3317 105.115 21.8755 105.62 21.8755C105.945 21.8755 106.124 22.0548 106.124 22.3087C106.124 22.7963 105.581 23.0767 104.898 23.0767Z" fill="#262262"/>
<path d="M87.601 11.1907C86.9619 10.4938 86.3617 9.76415 85.8663 8.9473C85.0288 7.56542 84.5903 5.56759 85.8628 4.30988C87.2249 2.96357 89.8304 3.78391 90.4528 5.47132C90.6929 6.12076 91.7358 5.84173 91.4943 5.18532C90.858 3.46233 89.1858 2.49969 87.3852 2.59735C85.3875 2.70617 84.0872 4.27221 83.9859 6.20028C83.8825 8.19532 84.8761 9.82344 86.1758 11.319C86.6261 11.2416 87.1007 11.2004 87.601 11.1907Z" fill="#262262"/>
<path d="M89.1921 12.8461C88.6259 12.7778 88.0646 12.7331 87.5039 12.7324C88.7452 13.9901 90.0275 15.2046 90.8158 16.5335C91.171 17.1327 92.1043 16.59 91.7476 15.9873C91.0496 14.8119 90.1351 13.8171 89.1921 12.8461Z" fill="#262262"/>
<path d="M95.9139 13.5513C95.8626 13.6064 95.8112 13.6622 95.7592 13.7173C94.1515 15.4257 92.4098 16.9868 91.0727 18.933C90.6759 19.5099 91.6105 20.0526 92.0018 19.482C93.5776 17.1912 95.7432 15.4173 97.5431 13.3176C97.0179 13.4313 96.4739 13.5095 95.9139 13.5513Z" fill="#262262"/>
<path d="M93.3899 11.5607C94.0776 11.5056 94.0852 10.4216 93.3927 10.4774C92.0057 10.5876 90.9163 9.35569 91.504 7.9766C91.9307 6.9742 93.204 6.26826 94.1324 5.82461C95.1239 5.35166 96.2661 5.17448 97.354 5.23377C98.8882 5.31539 99.4724 6.49288 99.2476 7.90336C99.0707 9.01737 98.5919 10.0505 97.9702 11.0047C98.5204 10.799 99.0631 10.5485 99.6043 10.25C100.532 8.29399 100.976 5.87972 99.0409 4.62131C97.9855 3.93421 96.4846 4.08837 95.3203 4.3088C93.9339 4.57108 92.6621 5.28539 91.5977 6.19572C90.527 7.11092 90.0004 8.3512 90.4368 9.73098C90.8289 10.9713 92.1618 11.6584 93.3899 11.5607Z" fill="#262262"/>
<path d="M101.307 13.4648C100.319 13.4536 99.37 13.5799 98.418 13.8485C97.983 13.9705 97.8706 14.3821 97.9781 14.7169C97.5347 14.9248 97.0955 15.1438 96.6618 15.3761C96.1914 15.6293 96.258 16.1623 96.5675 16.4476C96.3926 16.5118 96.2185 16.5766 96.0422 16.6408C95.6085 16.8006 95.476 17.2651 95.6245 17.6028L94.2146 17.7939C93.6532 17.8699 93.5325 18.8158 94.0501 19.0383C94.1299 19.0725 94.209 19.1074 94.2895 19.1416C94.5629 19.2588 94.8238 19.1953 95.0167 19.0481C96.9436 18.7865 98.8711 18.5249 100.799 18.2633C101.619 18.1524 101.311 17.0049 100.621 16.9247C100.254 16.8829 99.8856 16.8438 99.5171 16.8089C99.8786 16.6764 100.24 16.5438 100.602 16.4106C101.27 16.1651 101.213 15.2952 100.598 15.1069C100.891 15.0015 101.186 14.8976 101.484 14.8034C102.209 14.5739 102.086 13.4739 101.307 13.4648Z" fill="#7ED3F7"/>
<path d="M90.2208 17.8575C90.0126 17.725 89.8065 17.6385 89.6005 17.5813C90.0993 17.2011 89.7566 16.4289 89.164 16.3745C89.1168 16.3703 89.071 16.3661 89.0245 16.3619C89.1571 16.2545 89.2882 16.1471 89.4207 16.0397C89.8586 15.6832 89.5179 14.8029 88.944 14.8761C88.2231 14.9689 87.5022 15.0603 86.7819 15.1531C85.9479 15.2598 85.9181 16.558 86.7216 16.5168C86.4905 16.8209 86.6556 17.2179 86.9471 17.4257C86.648 17.5715 86.3497 17.7194 86.0464 17.8575C85.5614 18.0794 85.6426 18.6479 85.9652 18.9436C85.5302 19.0776 85.0937 19.2129 84.6587 19.3475C83.826 19.6056 84.1785 20.9212 85.0167 20.6624L90.057 19.102C90.6246 18.9269 90.7218 18.1763 90.2208 17.8575Z" fill="#7ED3F7"/>
<path d="M93.2435 11.5661C92.0569 11.601 90.8135 10.9216 90.4367 9.73082C90.001 8.35034 90.5276 7.11076 91.5969 6.19556L91.1993 5.79376C90.9294 5.90397 90.5595 5.82654 90.4277 5.47148C89.8053 3.78337 87.1998 2.96373 85.837 4.31003C84.5645 5.56844 85.003 7.56558 85.8412 8.94745C86.3359 9.7643 86.9375 10.494 87.5766 11.1908C87.6446 11.1894 87.7119 11.1873 87.7813 11.1873C88.8665 11.1873 89.9739 11.3387 90.9134 11.4866C91.8057 11.6275 92.6176 11.7063 93.3815 11.7273" fill="#00AEEF"/>
<path d="M93.3925 10.4765C94.0863 10.4221 94.0787 11.5062 93.3904 11.5599C93.3397 11.5648 93.2884 11.5654 93.2377 11.5661H93.2433L93.3807 11.7259C93.5222 11.7294 93.6631 11.7343 93.8005 11.7336C93.9809 11.7343 94.1606 11.7301 94.3382 11.7231C94.3819 11.7217 94.4249 11.7182 94.4687 11.7161C94.6026 11.7091 94.7372 11.7022 94.8704 11.6917C94.9127 11.6875 94.9558 11.6826 94.9988 11.6785C95.1334 11.6666 95.2659 11.6533 95.3978 11.6366C95.4345 11.6317 95.4706 11.6261 95.5081 11.622C95.6462 11.6031 95.7836 11.5822 95.9209 11.5592L96.0063 11.5438C96.152 11.518 96.2963 11.4894 96.4393 11.458L96.501 11.4441C96.653 11.4092 96.8049 11.3722 96.9548 11.3318L96.9923 11.3213C97.1512 11.2787 97.3087 11.2313 97.4648 11.1811L97.4808 11.1755C97.6459 11.1225 97.8083 11.066 97.9713 11.0046C98.5924 10.0503 99.0711 9.01654 99.2488 7.90183C99.4729 6.49344 98.8886 5.31595 97.3538 5.23294C96.4053 5.18202 95.4158 5.30967 94.5214 5.65706L93.7894 5.99468C92.9144 6.44043 91.8805 7.09335 91.5044 7.97577C90.9174 9.35486 92.0054 10.5868 93.3925 10.4765Z" fill="#F4D044"/>
<path d="M93.8287 13.2886C94.202 13.3249 94.585 13.343 94.9729 13.343C97.5936 13.343 100.443 12.5004 102.229 10.437C102.631 9.9724 102.27 9.21415 101.797 9.21484C101.699 9.21484 101.596 9.24693 101.493 9.32297C98.9127 11.2259 96.514 11.9807 93.7995 11.9807C92.8683 11.9807 91.9004 11.8921 90.8755 11.7303C89.8313 11.5656 88.7939 11.4338 87.7802 11.4338C85.9594 11.4338 84.2171 11.8593 82.6538 13.2886C82.4415 13.4826 82.6365 13.8348 82.8613 13.8355C82.9043 13.8348 82.9466 13.8223 82.989 13.7951C84.4704 12.7982 85.9594 12.4857 87.4645 12.4857C89.5433 12.4857 91.6541 13.0815 93.8287 13.2886Z" fill="#7ED3F7"/>
<path d="M74.4119 23.7552H73.7617L77.5808 2.43823H78.231L74.4119 23.7552Z" fill="#262262"/>
<defs>
<linearGradient id="paint0_linear_184_20835" x1="124.666" y1="11.9934" x2="169.936" y2="11.9934" gradientUnits="userSpaceOnUse">
<stop stop-color="#782A63"/>
<stop offset="0.25" stop-color="#A12771"/>
<stop offset="0.81" stop-color="#C93026"/>
<stop offset="1" stop-color="#C93026"/>
</linearGradient>
</defs>
</svg>
